<?xml version="1.0" encoding="UTF-8"?>
<svg id="Layer_2" data-name="Layer 2" xmlns="http://www.w3.org/2000/svg" viewBox="0 0 362.864 443.5">
  <g id="Outline">
    <g id="icons">
      <g id="save">
        <path d="m197.559,7.56c-8.064-10.08-24.191-10.08-32.255,0l-120.955,127.002c-10.08,10.08,0,26.207,16.127,26.207h80.636s-4.032,92.732,0,141.114c2.016,22.175,18.143,40.318,40.318,40.318s38.302-18.143,40.318-40.318c4.032-46.366,0-141.114,0-141.114h80.636c16.127,0,26.207-16.127,16.127-28.223L197.559,7.56Z" style="stroke-width: 0px;"/>
        <path d="m322.545,383.023H40.318c-22.175,0-40.318,18.143-40.318,40.318h0c0,12.095,8.064,20.159,20.159,20.159h322.545c12.095,0,20.159-8.064,20.159-20.159h0c0-22.175-18.143-40.318-40.318-40.318Z" style="stroke-width: 0px;"/>
      </g>
    </g>
  </g>
</svg>