<?xml version="1.0" encoding="UTF-8"?>
<svg xmlns="http://www.w3.org/2000/svg" id="Layer_1" data-name="Layer 1" viewBox="0 0 24 24">
  <path d="m23,13c0-5.897-4.667-10.711-10.5-10.975V0h-1v2.025C5.667,2.289,1,7.103,1,13c0,3.054,1.253,5.819,3.269,7.814l-2.138,2.35.739.673,2.139-2.35c1.902,1.57,4.338,2.514,6.991,2.514s5.089-.944,6.991-2.514l2.139,2.35.739-.673-2.138-2.35c2.016-1.995,3.269-4.76,3.269-7.814Zm-21,0C2,7.486,6.486,3,12,3s10,4.486,10,10-4.486,10-10,10S2,18.514,2,13ZM18.797,1.333l.504-.863c1.646.961,3.068,2.218,4.228,3.734l-.795.607c-1.079-1.413-2.404-2.583-3.937-3.479ZM1.249,4.834l-.796-.605C1.614,2.703,3.04,1.439,4.691.474l.505.863c-1.538.899-2.866,2.076-3.948,3.497Zm11.251,6.882l4.757,2.854-.515.857-5.243-3.146v-7.283h1v6.717Z"/>
</svg>
