<?xml version="1.0" encoding="UTF-8"?>
<!DOCTYPE svg PUBLIC "-//W3C//DTD SVG 1.1//EN" "http://www.w3.org/Graphics/SVG/1.1/DTD/svg11.dtd">
<svg xmlns="http://www.w3.org/2000/svg" version="1.1" width="14px" height="12px" viewBox="0 0 512 512" style="shape-rendering:geometricPrecision; text-rendering:geometricPrecision; image-rendering:optimizeQuality; fill-rule:evenodd; clip-rule:evenodd" xmlns:xlink="http://www.w3.org/1999/xlink">
  <g>
    <path style="opacity:0.962" fill="currentColor" d="M 511.5,406.5 C 511.5,414.5 511.5,422.5 511.5,430.5C 504.417,462.42 485.083,482.92 453.5,492C 387.535,493.158 321.535,493.658 255.5,493.5C 189.465,493.658 123.465,493.158 57.5,492C 25.9168,482.92 6.58345,462.42 -0.5,430.5C -0.5,422.5 -0.5,414.5 -0.5,406.5C 1.68229,396.8 5.18229,387.467 10,378.5C 70,270.5 130,162.5 190,54.5C 212.013,21.9312 242.179,10.7645 280.5,21C 297.941,27.4438 311.441,38.6105 321,54.5C 382.667,165.833 444.333,277.167 506,388.5C 508.168,394.531 510.001,400.531 511.5,406.5 Z M 246.5,48.5 C 266.032,46.0207 281.532,52.6874 293,68.5C 353,176.5 413,284.5 473,392.5C 486.553,417.282 482.386,438.449 460.5,456C 455.828,458.837 450.828,460.837 445.5,462C 318.833,462.667 192.167,462.667 65.5,462C 43.2718,455.944 31.6051,441.444 30.5,418.5C 30.258,409.058 32.758,400.391 38,392.5C 98,284.5 158,176.5 218,68.5C 225.215,58.433 234.715,51.7663 246.5,48.5 Z M 250.5,134.5 C 259.051,132.86 265.218,135.86 269,143.5C 269.667,186.833 269.667,230.167 269,273.5C 262.837,283.457 254.837,285.124 245,278.5C 244,276.833 243,275.167 242,273.5C 241.333,230.167 241.333,186.833 242,143.5C 243.688,139.315 246.521,136.315 250.5,134.5 Z M 254.5,373.5 C 269.171,376.842 273.004,385.175 266,398.5C 256.163,405.124 248.163,403.457 242,393.5C 239.879,382.719 244.046,376.052 254.5,373.5 Z"/>
  </g>
  <g>
    <path style="opacity:0.965" fill="currentColor" d="M 245.5,103.5 C 268.817,100.407 285.983,109.074 297,129.5C 298.286,132.405 299.286,135.405 300,138.5C 300.667,185.167 300.667,231.833 300,278.5C 295.167,296.667 283.667,308.167 265.5,313C 242.182,316.591 225.015,308.091 214,287.5C 212.714,284.595 211.714,281.595 211,278.5C 210.333,231.833 210.333,185.167 211,138.5C 216.007,120.327 227.507,108.66 245.5,103.5 Z M 250.5,134.5 C 246.521,136.315 243.688,139.315 242,143.5C 241.333,186.833 241.333,230.167 242,273.5C 243,275.167 244,276.833 245,278.5C 254.837,285.124 262.837,283.457 269,273.5C 269.667,230.167 269.667,186.833 269,143.5C 265.218,135.86 259.051,132.86 250.5,134.5 Z"/>
  </g>
  <g>
    <path style="opacity:0.963" fill="currentColor" d="M 245.5,343.5 C 268.793,340.396 285.959,349.062 297,369.5C 304.988,390.521 300.821,408.688 284.5,424C 267.975,435.067 250.642,436.401 232.5,428C 209.914,411.83 204.414,390.997 216,365.5C 223.172,354.481 233.005,347.148 245.5,343.5 Z M 254.5,373.5 C 244.046,376.052 239.879,382.719 242,393.5C 248.163,403.457 256.163,405.124 266,398.5C 273.004,385.175 269.171,376.842 254.5,373.5 Z"/>
  </g>
</svg>
