<svg width="20" height="20" viewBox="0 0 20 20" fill="none" xmlns="http://www.w3.org/2000/svg">
<path d="M10 10V2.5" stroke="#45AFF4" stroke-width="1.5" stroke-linecap="round" stroke-linejoin="round"/>
<path d="M16.4953 6.25L3.50488 13.75" stroke="#45AFF4" stroke-width="1.5" stroke-linecap="round" stroke-linejoin="round"/>
<path d="M2.62507 11.3721C2.30034 9.61473 2.61277 7.7992 3.50624 6.2515C4.39971 4.7038 5.81569 3.52533 7.4999 2.92773V8.55758L2.62507 11.3721Z" stroke="#45AFF4" stroke-width="1.5" stroke-linecap="round" stroke-linejoin="round"/>
<path d="M10.0007 2.5C11.3147 2.50024 12.6056 2.84571 13.7441 3.5018C14.8825 4.15789 15.8287 5.10159 16.4877 6.23838C17.1468 7.37517 17.4956 8.66516 17.4992 9.97917C17.5029 11.2932 17.1612 12.5851 16.5085 13.7255C15.8558 14.866 14.9149 15.8149 13.7801 16.4773C12.6453 17.1397 11.3563 17.4923 10.0423 17.4999C8.72833 17.5074 7.43542 17.1696 6.29305 16.5203C5.15069 15.8709 4.19897 14.9329 3.5332 13.8" stroke="#45AFF4" stroke-width="1.5" stroke-linecap="round" stroke-linejoin="round"/>
</svg>
