<svg width="36" height="36" viewBox="0 0 36 36" fill="none" xmlns="http://www.w3.org/2000/svg">
<rect width="36" height="36" rx="6" fill="#44AEF4" fill-opacity="0.2"/>
<path d="M18 18V10.5" stroke="#45AFF4" stroke-width="1.5" stroke-linecap="round" stroke-linejoin="round"/>
<path d="M24.4953 14.25L11.5049 21.75" stroke="#45AFF4" stroke-width="1.5" stroke-linecap="round" stroke-linejoin="round"/>
<path d="M10.6251 19.3721C10.3003 17.6147 10.6128 15.7992 11.5062 14.2515C12.3997 12.7038 13.8157 11.5253 15.4999 10.9277V16.5576L10.6251 19.3721Z" stroke="#45AFF4" stroke-width="1.5" stroke-linecap="round" stroke-linejoin="round"/>
<path d="M18.0007 10.5C19.3147 10.5002 20.6056 10.8457 21.7441 11.5018C22.8825 12.1579 23.8287 13.1016 24.4877 14.2384C25.1468 15.3752 25.4956 16.6652 25.4992 17.9792C25.5029 19.2932 25.1612 20.5851 24.5085 21.7255C23.8558 22.866 22.9149 23.8149 21.7801 24.4773C20.6453 25.1397 19.3563 25.4923 18.0423 25.4999C16.7283 25.5074 15.4354 25.1696 14.2931 24.5203C13.1507 23.8709 12.199 22.9329 11.5332 21.8" stroke="#45AFF4" stroke-width="1.5" stroke-linecap="round" stroke-linejoin="round"/>
</svg>
