<?xml version="1.0" encoding="UTF-8"?>
<svg xmlns="http://www.w3.org/2000/svg" id="Layer_1" data-name="Layer 1" viewBox="0 0 24 24" width="512" height="512"><path d="M22.834,6.874l1.149-5.689c.069-.367-.072-.741-.366-.972-.293-.231-.692-.278-1.03-.123l-4.033,1.87c-1.886-1.235-4.135-1.96-6.554-1.96S7.333,.725,5.446,1.96L1.414,.09C1.076-.065,.677-.019,.383,.213,.089,.443-.052,.817,.017,1.185L1.166,6.873c-.74,1.557-1.166,3.291-1.166,5.127,0,6.617,5.383,12,12,12s12-5.383,12-12c0-1.836-.426-3.569-1.166-5.126Zm-10.834,15.126c-5.514,0-10-4.486-10-10S6.486,2,12,2s10,4.486,10,10-4.486,10-10,10Zm5.666-5.746c.412,.368,.448,1,.08,1.412-.197,.222-.471,.334-.746,.334-.237,0-.475-.084-.666-.254-.018-.016-2.003-1.746-4.334-1.746s-4.316,1.73-4.336,1.747c-.412,.367-1.044,.33-1.411-.084-.366-.412-.331-1.042,.081-1.409,.103-.092,2.559-2.254,5.666-2.254s5.563,2.162,5.666,2.254Zm1.133-8.855c.332,.44,.244,1.068-.197,1.4l-1.675,1.262c.043,.14,.073,.285,.073,.439,0,.828-.672,1.5-1.5,1.5s-1.5-.672-1.5-1.5c0-.466,.217-.878,.551-1.153,0,0,0-.001,.002-.002l2.846-2.145c.442-.333,1.068-.244,1.4,.197Zm-11.726,2.662l-1.675-1.262c-.441-.332-.529-.96-.197-1.4,.333-.441,.958-.529,1.4-.197l2.846,2.145s0,.001,.002,.002c.334,.275,.551,.686,.551,1.153,0,.828-.672,1.5-1.5,1.5s-1.5-.672-1.5-1.5c0-.154,.03-.3,.073-.439Z"/></svg>
