<?xml version="1.0" encoding="utf-8"?>
<!-- Generator: Adobe Illustrator 27.9.0, SVG Export Plug-In . SVG Version: 6.00 Build 0)  -->
<svg version="1.1" id="Layer_1" xmlns="http://www.w3.org/2000/svg" xmlns:xlink="http://www.w3.org/1999/xlink" x="0px" y="0px"
	 viewBox="0 0 36 36" style="enable-background:new 0 0 36 36;" xml:space="preserve">
<style type="text/css">
	.st0{fill:#F4D944;fill-opacity:0.2;}
	.st1{fill:#F3BA2F;}
</style>
<g id="Page-1">
	<g id="gear">
		<path id="Rectangle" class="st0" d="M6,0h24c3.3,0,6,2.7,6,6v24c0,3.3-2.7,6-6,6H6c-3.3,0-6-2.7-6-6V6C0,2.7,2.7,0,6,0z"/>
		<path id="Shape" class="st1" d="M19.5,10.1c2.4,0.3,4,1.7,4,4.1c0,1.2-0.4,2.2-1.1,2.9c1.3,0.7,2.1,1.9,2.1,3.6
			c0,2.7-1.9,4.2-4.8,4.2h-0.2v1.9h-2v-1.9h-2v1.9h-2v-1.9h-2V23h2V11.9h-2V10h2V8.1h2V10h2V8.1h2V10.1z M18.5,11.9h-3v4.7h3
			c2,0,3-0.8,3-2.3S20.5,11.9,18.5,11.9z M15.5,18.4V23h4.2c1.8,0,2.8-0.7,2.8-2.3s-1-2.3-2.8-2.3H15.5z"/>
	</g>
</g>
</svg>
