<?xml version="1.0" encoding="UTF-8"?>
<svg width="358px" height="358px" viewBox="0 0 358 358" version="1.1" xmlns="http://www.w3.org/2000/svg" xmlns:xlink="http://www.w3.org/1999/xlink">
    <title>Group</title>
    <g id="Page-1" stroke="none" stroke-width="1" fill="none" fill-rule="evenodd">
        <g id="Group" transform="translate(0.291694, 0.467294)" fill="var(--font-color)" fill-rule="nonzero">
            <path d="M178.708306,186.942706 L8.238306,186.942706 C3.296906,186.942706 0.003906,183.649706 0.003906,178.708306 L-2.84217094e-14,8.238306 C-2.84217094e-14,3.296906 3.293,0.003906 8.2344,0.003906 L178.7044,0 C183.6458,0 186.9388,3.293 186.9388,8.2344 L186.9388,178.7044 C186.9388,182.8255 183.6458,186.942706 178.7044,186.942706 L178.708306,186.942706 Z M16.478306,170.473706 L170.478306,170.473706 L170.478306,16.473706 L16.478306,16.473706 L16.478306,170.473706 Z" id="Shape"></path>
            <path d="M178.708306,356.592706 L8.238306,356.592706 C3.296906,356.592706 0.003906,353.299706 0.003906,348.358306 L-2.84217094e-14,178.708306 C-2.84217094e-14,173.766906 3.293,170.473906 8.2344,170.473906 L178.7044,170.473906 C183.6458,170.473906 186.9388,173.766906 186.9388,178.708306 L186.9388,349.178306 C186.9388,353.299406 183.6458,356.592706 178.7044,356.592706 L178.708306,356.592706 Z M16.478306,340.123706 L170.478306,340.123706 L170.478306,186.943706 L16.478306,186.943706 L16.478306,340.123706 Z" id="Shape"></path>
            <path d="M349.178306,356.592706 L178.708306,356.592706 C173.766906,356.592706 170.473906,353.299706 170.473906,348.358306 L170.473906,178.708306 C170.473906,173.766906 173.766906,170.473906 178.708306,170.473906 L349.178306,170.473906 C354.119706,170.473906 357.412709,173.766906 357.412709,178.708306 L357.412709,349.178306 C357.416612,353.299406 353.299406,356.592706 349.178306,356.592706 L349.178306,356.592706 Z M186.948306,340.123706 L340.948306,340.123706 L340.948306,186.943706 L186.948306,186.943706 L186.948306,340.123706 Z" id="Shape"></path>
        </g>
    </g>
</svg>