<?xml version="1.0" encoding="UTF-8"?>
<svg xmlns="http://www.w3.org/2000/svg" id="Layer_1" data-name="Layer 1" width="1.5em" height="1.5em" viewBox="0 0 24 24">
  <path d="M11.5,24c-.276,0-.5-.224-.5-.5v-4.579c0-.243-.182-.452-.422-.486-.673-.096-1.312-.295-1.899-.581l-2.557,4.299c-.143,.239-.451,.314-.686,.174-.237-.141-.315-.448-.174-.685l2.553-4.293c-.651-.452-1.216-1.02-1.664-1.67l-4.4,2.549c-.238,.137-.545,.058-.684-.182-.139-.239-.057-.545,.182-.683l4.398-2.547c-.346-.713-.564-1.496-.628-2.315H.5c-.276,0-.5-.224-.5-.5s.224-.5,.5-.5H5.02c.063-.818,.282-1.6,.627-2.313L1.251,6.665c-.239-.137-.322-.443-.185-.683s.441-.322,.683-.185l4.4,2.525c.45-.653,1.017-1.222,1.671-1.675L5.311,2.301c-.139-.239-.057-.545,.183-.683,.239-.138,.546-.057,.683,.183l2.508,4.342c.587-.284,1.223-.482,1.895-.578,.24-.034,.422-.243,.422-.486V.5c0-.276,.224-.5,.5-.5s.5,.224,.5,.5V5.079c0,.738-.551,1.373-1.281,1.477-2.69,.382-4.719,2.723-4.719,5.445s2.028,5.062,4.719,5.445c.73,.104,1.281,.738,1.281,1.477v4.579c0,.276-.224,.5-.5,.5Zm6.5-6c-3.309,0-6-2.691-6-6s2.691-6,6-6,6,2.691,6,6-2.691,6-6,6Zm0-11c-2.757,0-5,2.243-5,5s2.243,5,5,5,5-2.243,5-5-2.243-5-5-5Z" fill="currentColor"/>
</svg>
