<?xml version="1.0" encoding="UTF-8"?>
<svg xmlns="http://www.w3.org/2000/svg" id="Layer_1" data-name="Layer 1" viewBox="0 0 24 24" width="512" height="512"><path d="m17.5,0H6.5C4.019,0,2,2.019,2,4.5v16c0,1.93,1.57,3.5,3.5,3.5h12c2.481,0,4.5-2.019,4.5-4.5V4.5c0-2.481-2.019-4.5-4.5-4.5Zm3.5,4.5v12.5H7V1h10.5c1.93,0,3.5,1.57,3.5,3.5Zm-18,0c0-1.758,1.308-3.204,3-3.449v15.949h-.5c-.98,0-1.864.407-2.5,1.058V4.5Zm14.5,18.5H5.5c-1.379,0-2.5-1.122-2.5-2.5s1.121-2.5,2.5-2.5h15.5v1.5c0,1.93-1.57,3.5-3.5,3.5Zm-3.5-13c1.654,0,3-1.346,3-3s-1.346-3-3-3-3,1.346-3,3,1.346,3,3,3Zm0-5c1.103,0,2,.897,2,2s-.897,2-2,2-2-.897-2-2,.897-2,2-2Zm-4.975,9.342c.012-.033,1.158-3.342,4.975-3.342s4.963,3.309,4.975,3.342c.087.261-.054.543-.315.631-.053.018-.106.026-.159.026-.208,0-.402-.131-.474-.339-.037-.108-.944-2.66-4.026-2.66s-3.989,2.551-4.026,2.66c-.09.261-.371.402-.633.313-.262-.088-.402-.37-.315-.631Z"/></svg>
