<?xml version="1.0" encoding="UTF-8"?>
<!DOCTYPE svg PUBLIC "-//W3C//DTD SVG 1.1//EN" "http://www.w3.org/Graphics/SVG/1.1/DTD/svg11.dtd">
<svg xmlns="http://www.w3.org/2000/svg" version="1.1" width="512px" height="512px" viewBox="0 0 512 512" style="shape-rendering:geometricPrecision; text-rendering:geometricPrecision; image-rendering:optimizeQuality; fill-rule:evenodd; clip-rule:evenodd" xmlns:xlink="http://www.w3.org/1999/xlink">
<g><path style="opacity:0.954" fill="currentColor" d="M 241.5,37.5 C 324.639,34.9823 389.139,67.9823 435,136.5C 440.197,122.576 445.197,108.576 450,94.5C 457.667,86.5 465.333,86.5 473,94.5C 474.131,96.7249 474.964,99.0583 475.5,101.5C 467.498,126.005 458.998,150.338 450,174.5C 445.874,180.97 440.041,183.137 432.5,181C 411.833,173.667 391.167,166.333 370.5,159C 359.905,156.646 355.738,150.146 358,139.5C 361.525,132.765 367.025,130.265 374.5,132C 384.72,135.36 394.886,138.86 405,142.5C 405.5,142.167 406,141.833 406.5,141.5C 363.278,83.8995 305.612,58.3995 233.5,65C 161.06,76.7932 111.227,116.627 84,184.5C 80.3518,196.428 77.0185,208.428 74,220.5C 69.8244,226.112 64.3244,227.945 57.5,226C 52.4371,223.376 49.7704,219.209 49.5,213.5C 62.9227,139.591 103.589,86.7574 171.5,55C 194.022,45.3696 217.355,39.5363 241.5,37.5 Z"/></g>
<g><path style="opacity:0.958" fill="currentColor" d="M 246.5,131.5 C 252.833,131.5 259.167,131.5 265.5,131.5C 265.5,139.167 265.5,146.833 265.5,154.5C 291.545,155.584 310.378,167.584 322,190.5C 324.133,196.663 325.299,202.996 325.5,209.5C 315.5,209.5 305.5,209.5 295.5,209.5C 292.221,192.562 281.888,183.229 264.5,181.5C 264.5,201.833 264.5,222.167 264.5,242.5C 281.195,245.45 296.528,251.617 310.5,261C 329.258,278.213 333.758,298.713 324,322.5C 310.784,345.038 290.95,356.704 264.5,357.5C 264.5,364.5 264.5,371.5 264.5,378.5C 258.167,378.5 251.833,378.5 245.5,378.5C 245.83,371.468 245.497,364.468 244.5,357.5C 228.267,356.035 213.601,350.535 200.5,341C 188.299,329.913 181.965,316.079 181.5,299.5C 191.833,299.5 202.167,299.5 212.5,299.5C 215.782,317.774 226.782,327.774 245.5,329.5C 245.833,308.156 245.5,286.823 244.5,265.5C 225.871,261.77 209.704,253.436 196,240.5C 185.328,224.126 183.661,206.793 191,188.5C 203.329,167.405 221.829,156.072 246.5,154.5C 246.5,146.833 246.5,139.167 246.5,131.5 Z M 243.5,181.5 C 244.5,181.5 245.5,181.5 246.5,181.5C 246.833,199.845 246.5,218.179 245.5,236.5C 238.439,234.136 231.772,230.969 225.5,227C 214.152,213.119 215.152,200.119 228.5,188C 233.367,185.226 238.367,183.059 243.5,181.5 Z M 265.5,271.5 C 278.517,273.254 289.017,279.254 297,289.5C 301.271,307.31 294.771,319.81 277.5,327C 273.615,328.095 269.782,329.261 266,330.5C 265.5,310.836 265.333,291.169 265.5,271.5 Z"/></g>
<g><path style="opacity:0.954" fill="currentColor" d="M 443.5,286.5 C 457.376,284.874 463.209,290.874 461,304.5C 442.504,384.998 394.004,438.164 315.5,464C 244.168,482.411 179.834,468.744 122.5,423C 104.669,407.018 89.6687,388.851 77.5,368.5C 71.7678,384.196 65.9345,399.862 60,415.5C 51.1728,422.905 43.5061,421.905 37,412.5C 36.3333,409.167 36.3333,405.833 37,402.5C 45.3333,378.833 53.6667,355.167 62,331.5C 64.3047,325.529 68.6381,322.195 75,321.5C 102.047,330.404 128.88,339.904 155.5,350C 162.382,357.626 162.049,364.959 154.5,372C 152.222,372.986 149.889,373.82 147.5,374.5C 133.582,370.138 119.749,365.472 106,360.5C 105.5,360.833 105,361.167 104.5,361.5C 137.492,411.849 184.159,440.016 244.5,446C 319.163,448.094 375.996,417.594 415,354.5C 425.186,335.277 432.186,314.943 436,293.5C 437.742,290.254 440.242,287.921 443.5,286.5 Z"/></g>
</svg>