<?xml version="1.0" encoding="UTF-8"?>
<svg xmlns="http://www.w3.org/2000/svg" id="Layer_1" data-name="Layer 1" viewBox="0 0 24 24">
  <path d="m24.008,19.906l-3.603,3.517c-.384.384-.893.577-1.402.577-.513,0-1.026-.195-1.417-.586l-3.567-3.567,1.414-1.414,2.567,2.567V0h2v21.024l2.611-2.549,1.396,1.432ZM12.409,7.006c.372.457.591.962.591,1.494v12c0,2.298-3.27,3.5-6.5,3.5s-6.5-1.202-6.5-3.5v-12c0-.532.219-1.038.591-1.494-.055-.328-.091-.662-.091-1.006C.5,2.686,3.186,0,6.5,0s6,2.686,6,6c0,.344-.035.678-.091,1.006ZM3.205,4.374c0,1.033.734,1.929,1.747,2.131l2.791.559c.268.054.462.291.462.563,0,.316-.258.574-.574.574h-2.126c-.316,0-.585-.211-.671-.5h-1.62c.102,1.175,1.09,2.1,2.291,2.1h.2v1.2h1.6v-1.2h.326c1.199,0,2.174-.975,2.174-2.173,0-1.033-.734-1.929-1.747-2.131l-2.792-.559c-.267-.054-.461-.291-.461-.562,0-.316.257-.574.573-.574h2.127c.316,0,.585.211.671.5h1.62c-.102-1.175-1.09-2.1-2.291-2.1h-.2v-1.2h-1.6v1.2h-.327c-1.198,0-2.173.975-2.173,2.173Zm7.795,16.126v-1.409c-1.226.601-2.867.909-4.5.909s-3.274-.308-4.5-.909v1.409c0,.436,1.577,1.5,4.5,1.5s4.5-1.064,4.5-1.5Zm0-4v-1.409c-1.226.601-2.867.909-4.5.909s-3.274-.308-4.5-.909v1.409c0,.436,1.577,1.5,4.5,1.5s4.5-1.064,4.5-1.5Zm0-4v-1.409c-1.226.601-2.867.909-4.5.909s-3.274-.308-4.5-.909v1.409c0,.436,1.577,1.5,4.5,1.5s4.5-1.064,4.5-1.5Z"/>
</svg>
