<svg width="20" height="20" viewBox="0 0 20 20" fill="none" xmlns="http://www.w3.org/2000/svg">
<path d="M6.2373 7.79102H2.4873V4.04102" stroke="#45AFF4" stroke-width="1.5" stroke-linecap="round" stroke-linejoin="round"/>
<path d="M14.8617 5.13864C14.2233 4.50024 13.4654 3.99383 12.6313 3.64833C11.7971 3.30283 10.9032 3.125 10.0003 3.125C9.09748 3.125 8.20348 3.30283 7.36936 3.64833C6.53525 3.99383 5.77736 4.50024 5.13895 5.13864L2.4873 7.79029" stroke="#45AFF4" stroke-width="2" stroke-linecap="round" stroke-linejoin="round"/>
<path d="M13.7627 12.209H17.5127V15.959" stroke="#45AFF4" stroke-width="2" stroke-linecap="round" stroke-linejoin="round"/>
<path d="M5.13867 14.8606C5.77707 15.499 6.53497 16.0054 7.36908 16.3509C8.2032 16.6964 9.09719 16.8743 10 16.8743C10.9029 16.8743 11.7969 16.6964 12.631 16.3509C13.4651 16.0054 14.223 15.499 14.8614 14.8606L17.513 12.209" stroke="#45AFF4" stroke-width="2" stroke-linecap="round" stroke-linejoin="round"/>
</svg>
