<?xml version="1.0" encoding="UTF-8"?>
<svg xmlns="http://www.w3.org/2000/svg" id="Layer_1" data-name="Layer 1" viewBox="0 0 24 24">
  <path d="m24,.5v2.5c0,.551-.448,1-1,1h-2.5c-.276,0-.5-.224-.5-.5s.224-.5.5-.5h1.492c-.935-1.247-2.396-2-3.992-2-2.605,0-4.746,1.954-4.979,4.545-.023.26-.242.455-.498.455-.015,0-.03,0-.045-.002-.275-.025-.478-.268-.453-.543.28-3.11,2.849-5.455,5.976-5.455,2.04,0,3.895,1.022,5,2.698V.5c0-.276.224-.5.5-.5s.5.224.5.5Zm-7,14v5.571c0,2.203-3.733,3.929-8.5,3.929S0,22.274,0,20.071V4.5C0,1.977,3.733,0,8.5,0c1.072,0,2.114.101,3.099.3.271.055.446.319.391.589-.048.237-.257.401-.49.401-.033,0-.066-.003-.1-.01-.92-.187-1.896-.281-2.901-.281C4.435,1,1,2.603,1,4.5s3.435,3.5,7.5,3.5c.329,0,.652-.01.97-.03.279-.012.513.193.529.469.017.275-.193.513-.469.529-.337.021-.681.032-1.03.032-3.287,0-6.081-.94-7.5-2.351v3.117c0,1.562,3.014,3.233,7.5,3.233.655,0,1.308-.038,1.941-.114.273-.036.523.164.556.437.033.274-.163.523-.438.556-.672.08-1.365.121-2.059.121-3.287,0-6.081-.884-7.5-2.211v2.978c0,1.562,3.014,3.233,7.5,3.233s7.5-1.672,7.5-3.233v-.267c0-.276.224-.5.5-.5s.5.224.5.5Zm-1,2.289c-1.419,1.327-4.213,2.211-7.5,2.211s-6.081-.884-7.5-2.211v3.283c0,1.385,3.08,2.929,7.5,2.929s7.5-1.544,7.5-2.929v-3.283Zm7.522-10.787c-.277-.03-.519.177-.543.453-.233,2.591-2.374,4.545-4.979,4.545-1.596,0-3.057-.753-3.992-2h1.492c.276,0,.5-.224.5-.5s-.224-.5-.5-.5h-2.5c-.551,0-1,.449-1,1v2.5c0,.276.224.5.5.5s.5-.224.5-.5v-2.198c1.105,1.675,2.96,2.698,5,2.698,3.126,0,5.695-2.345,5.976-5.455.024-.275-.178-.518-.453-.543Z"/>
</svg>
