<?xml version="1.0" encoding="UTF-8"?>
<svg width="406px" height="328px" viewBox="0 0 406 328" version="1.1" xmlns="http://www.w3.org/2000/svg" xmlns:xlink="http://www.w3.org/1999/xlink">
    <title>Group</title>
    <g id="Page-1" stroke="none" stroke-width="1" fill="none" fill-rule="evenodd">
        <g id="Group" transform="translate(0.522625, 0.965727)" fill="var(--font-color)" fill-rule="nonzero">
            <path d="M200.507375,204.684273 C186.683375,204.684273 173.335375,197.750673 169.456375,188.543273 L168.702465,186.750273 L145.632465,196.527573 L146.398085,198.320573 C153.464485,214.863573 168.789085,225.183573 189.652085,227.535573 L189.652085,243.402573 L214.496085,243.402573 L214.496085,226.730573 C234.258085,224.671973 253.613085,212.292573 253.613085,188.648573 C253.613085,156.765573 223.816085,153.089573 202.054085,150.406573 C187.784085,148.707373 176.870085,146.699573 176.870085,137.812573 C176.870085,125.570573 193.858085,124.250573 201.159085,124.250573 C211.936085,124.250573 223.460085,129.348273 227.393085,135.852573 L228.295425,137.340873 L249.502425,127.528373 L248.627425,125.743173 C240.400825,108.946173 225.580425,104.223173 214.494425,102.329173 L214.494425,87.6811727 L189.650425,87.6811727 L189.650425,102.279173 C165.627425,105.693273 151.353425,118.888173 151.353425,137.814173 C151.353425,168.494173 179.349425,171.626173 199.783425,173.912173 C218.428425,176.115273 227.111425,180.798873 227.111425,188.650173 C227.111425,203.533173 206.748425,204.685173 200.506425,204.685173 L200.507375,204.684273 Z" id="Path"></path>
            <path d="M386.607375,140.204273 L357.728375,170.513273 C360.271375,133.146273 349.759575,96.4192727 327.455375,65.7832727 C302.307375,31.2402727 265.209375,8.56027273 223.005375,1.92427273 C157.278375,-8.41572727 91.235375,23.5962727 58.645375,81.5652727 L78.985375,92.9992727 C106.821375,43.4832727 163.235375,16.1472727 219.375375,24.9722727 C255.426375,30.6441727 287.105375,50.0112727 308.590375,79.5192727 C327.813375,105.925273 336.770375,137.621273 334.379375,169.839273 L305.348375,142.175273 L287.575375,160.812273 L329.196375,200.460273 L329.180751,200.468085 L347.836751,218.230085 L365.594751,199.613085 L365.594751,199.601367 L405.250751,157.992367 L386.607375,140.204273 Z" id="Path"></path>
            <path d="M185.887375,301.734273 C149.832375,296.058473 118.153375,276.695273 96.672375,247.191273 C77.449375,220.781273 68.492375,189.086273 70.883375,156.871273 L99.910375,184.531273 L117.683375,165.898273 L76.054375,126.253273 L76.07,126.24546 L57.414,108.48346 L39.656,127.10046 L39.656,127.112179 L0,168.721179 L18.648,186.494179 L47.527,156.189179 C44.9879,193.560179 55.4958,230.283179 77.804,260.919179 C102.952,295.462179 140.046,318.142179 182.254,324.778179 C190.4728,326.075079 198.692,326.700079 206.852,326.700079 C263.965,326.700079 318.092,295.852079 346.612,245.134079 L326.272,233.700079 C298.432,283.216079 242.03,310.552079 185.882,301.727079 L185.887375,301.734273 Z" id="Path"></path>
        </g>
    </g>
</svg>