<?xml version="1.0" encoding="UTF-8"?>
<!DOCTYPE svg PUBLIC "-//W3C//DTD SVG 1.1//EN" "http://www.w3.org/Graphics/SVG/1.1/DTD/svg11.dtd">
<svg xmlns="http://www.w3.org/2000/svg" version="1.1" width="50" height="50" viewBox="0 0 500 500" style="shape-rendering:geometricPrecision; text-rendering:geometricPrecision; image-rendering:optimizeQuality; fill-rule:evenodd; clip-rule:evenodd" xmlns:xlink="http://www.w3.org/1999/xlink">
<g><path style="opacity:0.998" fill="#21c187" d="M 232.5,-0.5 C 247.833,-0.5 263.167,-0.5 278.5,-0.5C 368.144,10.3879 435.644,54.7213 481,132.5C 497.695,163.971 507.861,197.304 511.5,232.5C 511.5,247.833 511.5,263.167 511.5,278.5C 500.612,368.144 456.279,435.644 378.5,481C 347.029,497.695 313.696,507.861 278.5,511.5C 263.167,511.5 247.833,511.5 232.5,511.5C 142.856,500.612 75.3562,456.279 30,378.5C 13.3051,347.028 3.13839,313.695 -0.5,278.5C -0.5,263.167 -0.5,247.833 -0.5,232.5C 10.3875,142.857 54.7208,75.3573 132.5,30C 163.971,13.3053 197.304,3.1386 232.5,-0.5 Z"/></g>
<g><path style="opacity:1" fill="#fbfdfb" stroke="#fbfdfb" stroke-width="50" d="M 371.5,167.5 C 380.841,168.004 384.007,172.671 381,181.5C 327.833,234.667 274.667,287.833 221.5,341C 217.5,344.333 213.5,344.333 209.5,341C 183.333,314.833 157.167,288.667 131,262.5C 126.365,253.154 129.198,248.32 139.5,248C 165.622,271.955 190.956,296.788 215.5,322.5C 267.548,270.785 319.548,219.118 371.5,167.5 Z"/></g>
</svg>
