<svg width="36" height="36" viewBox="0 0 36 36" fill="none" xmlns="http://www.w3.org/2000/svg">
<rect width="36" height="36" rx="6" fill="#EBBF9A" fill-opacity="0.24"/>
<path d="M25.5 21.8549V14.1484C25.5 14.0375 25.4705 13.9286 25.4145 13.8329C25.3585 13.7372 25.2781 13.6581 25.1814 13.6037L18.3064 9.73652C18.2129 9.68389 18.1073 9.65625 18 9.65625C17.8927 9.65625 17.7871 9.68389 17.6936 9.73652L10.8186 13.6037C10.7219 13.6581 10.6415 13.7372 10.5855 13.8329C10.5295 13.9286 10.5 14.0375 10.5 14.1484V21.8549C10.5 21.9658 10.5295 22.0747 10.5855 22.1704C10.6415 22.2661 10.7219 22.3452 10.8186 22.3996L17.6936 26.2668C17.7871 26.3194 17.8927 26.3471 18 26.3471C18.1073 26.3471 18.2129 26.3194 18.3064 26.2668L25.1814 22.3996C25.2781 22.3452 25.3585 22.2661 25.4145 22.1704C25.4705 22.0747 25.5 21.9658 25.5 21.8549Z" stroke="#F3B3A6" stroke-width="1.5" stroke-linecap="round" stroke-linejoin="round"/>
<path d="M25.4142 13.8308L18.0745 18.0006L10.5869 13.8301" stroke="#F3B3A6" stroke-width="1.5" stroke-linecap="round" stroke-linejoin="round"/>
<path d="M18.0738 18L18.0005 26.3454" stroke="#F3B3A6" stroke-width="1.5" stroke-linecap="round" stroke-linejoin="round"/>
</svg>
