<svg width="20" height="20" viewBox="0 0 20 20" fill="none" xmlns="http://www.w3.org/2000/svg">
<path d="M17.5 13.8549V6.14844C17.5 6.03754 17.4705 5.92864 17.4145 5.83291C17.3585 5.73718 17.2781 5.65807 17.1814 5.6037L10.3064 1.73652C10.2129 1.68389 10.1073 1.65625 10 1.65625C9.89266 1.65625 9.78714 1.68389 9.69359 1.73652L2.81859 5.6037C2.72193 5.65807 2.64148 5.73718 2.58549 5.83291C2.52951 5.92864 2.5 6.03754 2.5 6.14844V13.8549C2.5 13.9658 2.52951 14.0747 2.58549 14.1704C2.64148 14.2661 2.72193 14.3452 2.81859 14.3996L9.69359 18.2668C9.78714 18.3194 9.89266 18.3471 10 18.3471C10.1073 18.3471 10.2129 18.3194 10.3064 18.2668L17.1814 14.3996C17.2781 14.3452 17.3585 14.2661 17.4145 14.1704C17.4705 14.0747 17.5 13.9658 17.5 13.8549Z" stroke="#F3B3A6" stroke-width="1.5" stroke-linecap="round" stroke-linejoin="round"/>
<path d="M17.4142 5.83078L10.0745 10.0006L2.58691 5.83008" stroke="#F3B3A6" stroke-width="1.5" stroke-linecap="round" stroke-linejoin="round"/>
<path d="M10.0738 10L10.0005 18.3454" stroke="#F3B3A6" stroke-width="1.5" stroke-linecap="round" stroke-linejoin="round"/>
</svg>
