<?xml version="1.0" encoding="UTF-8"?>
<svg width="442px" height="442px" viewBox="0 0 442 442" version="1.1" xmlns="http://www.w3.org/2000/svg" xmlns:xlink="http://www.w3.org/1999/xlink">
    <g id="Group" transform="translate(0.130626, 0.128000)" fill-rule="nonzero">
        <path d="M289.919374,258.252 C285.563874,253.8965 279.821374,251.7129 274.075374,251.7129 C268.337074,251.7129 262.595374,253.8965 258.239374,258.2481 L222.602374,293.8931 L147.368374,218.6551 L183.005374,183.0181 C191.720174,174.3033 191.720174,160.0451 183.005374,151.3461 L175.079574,143.4281 C170.731874,139.0609 164.989574,136.8773 159.243574,136.8773 C153.505274,136.8773 147.763574,139.0609 143.407574,143.4125 L107.770574,179.0495 L72.6295737,143.9085 L46.6415737,169.8965 C-13.5534263,230.0955 -15.4834263,326.4965 40.8524737,389.0065 L5.05547369,424.8035 C1.77427369,428.0808 1.77427369,433.4012 5.05547369,436.6825 C8.33277369,439.9637 13.6570737,439.9637 16.9344737,436.6825 L52.7314737,400.8855 C82.9544737,428.1235 121.094474,441.7445 159.241474,441.7445 C199.999474,441.7445 240.753474,426.2055 271.851474,395.1075 L297.839474,369.1195 L262.202474,333.4825 L297.839474,297.8455 C306.554274,289.1307 306.554274,274.8725 297.839474,266.1735 L289.919374,258.252 Z M155.289374,155.292 C156.687774,153.8936 158.375274,153.6787 159.254174,153.6787 C160.129174,153.6787 161.808874,153.88964 163.215074,155.2959 L171.140874,163.2139 C172.539274,164.6123 172.754174,166.292 172.754174,167.1748 C172.754174,168.0498 172.543234,169.7295 171.136974,171.1357 L135.503974,206.7727 L119.659974,190.9367 L155.289374,155.292 Z M259.969374,383.232 C233.067374,410.134 197.293374,424.947 159.239374,424.947 C121.192374,424.947 85.4153737,410.131 58.5193737,383.232 C2.98037369,327.693 2.98037369,237.312 58.5154667,181.772 L72.6284667,167.659 L274.078467,369.119 L259.969374,383.232 Z M285.961374,285.966 L250.324374,321.603 L234.488374,305.767 L270.125374,270.122 C271.523774,268.7236 273.211274,268.5087 274.090174,268.5087 C274.965174,268.5087 276.644874,268.71964 278.051074,270.1259 L285.976874,278.0439 C287.375274,279.4423 287.590174,281.122 287.590174,282.0048 C287.574549,282.8798 287.367514,284.5595 285.961274,285.9657 L285.961374,285.966 Z" id="Shape"></path>
        <path d="M395.099374,271.852 C455.294374,211.657 457.212374,115.252 400.872774,52.742 L436.673774,16.941 C439.954974,13.6598 439.954974,8.3394 436.673774,5.062 C433.396474,1.7808 428.072174,1.7808 424.794774,5.062 L388.993774,40.863 C358.774774,13.629 320.630774,-2.84217094e-14 282.483774,-2.84217094e-14 C241.721774,-2.84217094e-14 200.975774,15.539 169.873774,46.637 L143.885774,72.625 L369.095774,297.835 L395.099374,271.852 Z M181.769374,58.512 C208.675374,31.61 244.445374,16.797 282.499374,16.797 C320.550374,16.797 356.323374,31.613 383.229374,58.516 C410.131374,85.418 424.948374,121.192 424.948374,159.246 C424.948374,197.3 410.132374,233.066 383.233374,259.966 L369.120374,274.079 L167.670374,72.619 L181.769374,58.512 Z" id="Shape"></path>
        <path d="M77.0293737,89.942 C80.3066737,93.2232 85.6309737,93.2232 88.9083737,89.942 C92.1895737,86.6608 92.1895737,81.3404 88.9083737,78.063 L55.3063737,44.461 C52.0290737,41.1798 46.7047737,41.1798 43.4273737,44.461 C40.1461737,47.7383 40.1461737,53.0587 43.4273737,56.34 L77.0293737,89.942 Z" id="Path"></path>
        <path d="M110.969374,67.112 C115.609974,67.112 119.367774,63.3503 119.367774,58.7136 L119.367774,11.2016 C119.367774,6.561 115.609974,2.8032 110.969374,2.8032 C106.328774,2.8032 102.570971,6.561 102.570971,11.2016 L102.570971,58.7136 C102.567068,63.3464 106.332674,67.112 110.969374,67.112 Z" id="Path"></path>
        <path d="M13.0593737,120.402 L60.5713737,120.402 C65.2119737,120.402 68.9697737,116.6403 68.9697737,112.0036 C68.9697737,107.363 65.2119737,103.6052 60.5713737,103.6052 L13.0593737,103.6052 C8.41877369,103.6052 4.66097065,107.363 4.66097065,112.0036 C4.65706669,116.6364 8.42267369,120.402 13.0593737,120.402 Z" id="Path"></path>
        <path d="M363.679374,352.462 C360.402074,349.1808 355.077774,349.1808 351.800374,352.462 C348.519174,355.7393 348.519174,361.0597 351.800374,364.341 L385.402374,397.943 C388.679674,401.2242 394.003974,401.2242 397.281374,397.943 C400.562574,394.6618 400.562574,389.3414 397.281374,386.064 L363.679374,352.462 Z" id="Path"></path>
        <path d="M329.739374,375.282 C325.098774,375.282 321.340974,379.0398 321.340974,383.6804 L321.340974,431.1924 C321.340974,435.8291 325.098774,439.5908 329.739374,439.5908 C334.379974,439.5908 338.137774,435.8291 338.137774,431.1924 L338.137774,383.6804 C338.137774,379.0398 334.379974,375.282 329.739374,375.282 Z" id="Path"></path>
        <path d="M427.659374,322.002 L380.147374,322.002 C375.506774,322.002 371.748974,325.7598 371.748974,330.4004 C371.748974,335.0371 375.506774,338.7988 380.147374,338.7988 L427.659374,338.7988 C432.299974,338.7988 436.057777,335.0371 436.057777,330.4004 C436.06168,325.7559 432.296074,322.002 427.659374,322.002 Z" id="Path"></path>
    </g>
</svg>