<?xml version="1.0" encoding="UTF-8"?>
<svg xmlns="http://www.w3.org/2000/svg" id="Layer_1" data-name="Layer 1" viewBox="0 0 24 24">
  <path d="m23.508,4.298l-1.537-.659c-.101-1.542-.762-2.689-1.889-3.254-1.793-.899-3.981-.169-4.872,1.607l-1.783,3.282c-2.302-.872-4.342-2.438-5.028-2.964-.464-.356-1.072-.41-1.59-.141-.524.273-.833.812-.807,1.405.016.362.079.773.154,1.21-.667-.493-1.224-.979-1.645-1.377-.444-.42-1.066-.527-1.624-.275-.559.252-.907.813-.886,1.43.095,2.792,1.005,8.107,6.028,12.312l.142.124H1.8c-.556,0-1.074.25-1.419.688-.336.425-.458.968-.333,1.489.355,1.496,1.549,3.602,3.743,4.612.307.142.638.212.972.212.355,0,.715-.081,1.054-.242l5.054-2.583c.324-.166.695-.183,1.019-.046.842.356,2.149.78,3.598.78,3.591,0,6.512-2.921,6.512-6.511,0-1.712-.008-6.163-.012-8.955l1.519-.651c.299-.128.492-.422.492-.747s-.194-.619-.492-.747Zm-16.507-.768c-.014-.302.203-.439.27-.474.083-.042.297-.123.519.047,1.864,1.431,3.555,2.435,5.156,3.058l-.461.849c-.096.178-.286.287-.465.266-1.776-.188-3.398-.903-4.733-1.726.004-.044-.267-1.628-.285-2.02Zm8.488,17.379c-1.281,0-2.452-.381-3.209-.701-.597-.253-1.276-.224-1.863.076l-5.042,2.577c-.371.176-.807.183-1.165.018-1.748-.805-2.861-2.556-3.188-3.935-.072-.303.06-.529.146-.637.154-.195.386-.308.634-.308h7.7c.208,0,.395-.129.468-.324.074-.195.019-.415-.138-.552l-1.15-1.007C3.945,12.153,3.089,7.156,3,4.529c-.011-.32.226-.452.298-.485.087-.039.314-.109.526.09,1.46,1.379,4.454,3.751,8.089,4.135.587.061,1.156-.245,1.449-.782l2.733-5.032c.651-1.299,2.239-1.827,3.538-1.176,1.175.588,1.351,1.994,1.351,2.779l.003,1.763c.004,2.702.013,7.73.013,9.576,0,3.039-2.473,5.511-5.512,5.511Z"/>
</svg>
