<?xml version="1.0" encoding="UTF-8"?>
<svg xmlns="http://www.w3.org/2000/svg" id="Layer_1" data-name="Layer 1" viewBox="0 0 24 24">
  <path d="m24,4.295l-2.096-.898c-.23-1.371-.941-2.428-2.027-2.972-.954-.478-2.037-.557-3.054-.22-1.014.337-1.835,1.049-2.299,1.975l-1.345,2.476c-3.222-1.257-5.482-3.283-5.507-3.306L6.213.027l-.208,1.957c-.005.052-.089.874-.039,2.171-1.349-1.122-2.157-2.154-2.174-2.176L2.272.011l-.267,2.47c-.039.355-.797,8.053,4.408,13.365l-6.414.902v.869c0,2.423,1.242,5.362,4.729,6.344l.362.102,6.076-2.894c.238.073.455.148.667.223.858.298,1.745.607,3.416.607,3.722,0,6.75-3.028,6.75-6.75,0-1.643-.007-5.924-.011-8.593l2.011-.862v-1.5Zm-16.033-.19c1.031.719,2.497,1.612,4.25,2.321l-.289.531c-1.411-.155-2.713-.673-3.843-1.319-.065-.565-.101-1.081-.119-1.533Zm7.283,15.896c-1.333,0-1.962-.219-2.759-.496-.356-.124-1.514-.458-1.514-.458l-6.052,2.882c-2.039-.722-2.666-2.353-2.851-3.451l7.244-1.065.635-1.211-.685-.51c-4.051-3.016-5.049-7.737-5.262-10.582,1.793,1.645,4.799,3.769,8.461,3.891l.617.021,3.214-5.916c.239-.478.649-.833,1.157-1.002.507-.169,1.048-.129,1.525.11.874.438,1.005,1.562,1.005,2.192,0,0,.015,9.081.015,10.845,0,2.619-2.131,4.75-4.75,4.75Z"/>
</svg>
