<?xml version="1.0" encoding="UTF-8"?>
<svg xmlns="http://www.w3.org/2000/svg" id="Layer_1" data-name="Layer 1" viewBox="0 0 24 24" width="512" height="512"><path d="M.5,8H22.859c-.04,.075-.073,.154-.132,.22-.21,.237-.416,.463-.565,.613l-2.244,2.283c-.194,.197-.191,.514,.006,.707,.098,.096,.224,.144,.351,.144,.129,0,.259-.05,.356-.149l2.242-2.281c.158-.158,.378-.399,.604-.653,.699-.788,.699-1.978,0-2.765-.226-.255-.446-.496-.602-.652l-2.244-2.283c-.194-.197-.51-.199-.707-.006-.197,.193-.2,.51-.006,.707l2.247,2.285c.147,.148,.353,.374,.563,.612,.058,.066,.092,.144,.132,.219H.5c-.276,0-.5,.224-.5,.5s.224,.5,.5,.5Z"/><path d="M23.5,16H1.142c.04-.075,.074-.153,.132-.22,.209-.238,.416-.463,.564-.613l2.245-2.283c.194-.197,.191-.514-.006-.707-.199-.194-.514-.192-.707,.006l-2.243,2.281c-.158,.158-.378,.4-.603,.653-.7,.788-.7,1.978,0,2.765,.225,.254,.446,.496,.602,.652l2.245,2.283c.098,.1,.227,.149,.356,.149,.126,0,.253-.048,.351-.144,.197-.193,.2-.51,.006-.707l-2.247-2.285c-.147-.148-.353-.373-.563-.612-.059-.066-.092-.144-.132-.219H23.5c.276,0,.5-.224,.5-.5s-.224-.5-.5-.5Z"/></svg>
