<svg width="50px" height="40px" viewBox="0 0 50 40" version="1.1" xmlns="http://www.w3.org/2000/svg" xmlns:xlink="http://www.w3.org/1999/xlink">
    <g id="Page-1" stroke="none" stroke-width="1">
        <g id="finance" transform="translate(25.000000, 19.642857) scale(-1, 1) translate(-25.000000, -19.642857) ">
            <path d="M15.3126442,15.3699144 C15.3126442,16.7435727 14.2832666,17.8571429 13.0134649,17.8571429 C11.7436633,17.8571429 10.7142857,16.7435727 10.7142857,15.3699144 C10.7142857,13.996256 11.7436633,12.8826859 13.0134649,12.8826859 C14.2832666,12.8826859 15.3126442,13.996256 15.3126442,15.3699144 Z M18.8012654,10.4087226 C20.6216679,9.84657585 22.5058849,9.56304081 24.3990005,9.56638126 C26.4406716,9.56638126 28.3934412,9.88806281 30.2021288,10.4717324 C31.0061096,10.7116324 31.8398518,10.2121232 32.0784296,9.34760868 C32.3170074,8.48309413 31.8728544,7.57088098 31.0788825,7.29471258 C28.9109101,6.59769386 26.6606895,6.24579222 24.3990005,6.25003796 C22.1488704,6.25003796 19.9815108,6.59165599 17.9551675,7.21843757 C17.1408014,7.47119071 16.6700327,8.39025725 16.9036762,9.27123014 C17.1373197,10.152203 17.9868993,10.6614758 18.8012654,10.4087226 Z" id="Shape"></path>
            <path d="M24.7373626,0 C15.378618,0 7.22390401,5.35542853 4.86928537,12.9642856 L3.14025966,12.9642856 C2.21253219,12.9653029 1.33262549,13.3759356 0.736088789,14.0862581 C0.13955209,14.7965805 -0.112694292,15.7340523 0.0468754877,16.6477142 L0.845370996,21.2362856 C1.23820618,23.4946009 3.19892221,25.1431325 5.49173462,25.142857 L6.31852328,25.142857 C7.26162821,26.7551427 8.48137725,28.2165712 9.91804043,29.4862855 L7.62629545,37.2711426 C7.48656801,37.7463951 7.57916813,38.2596926 7.87616329,38.6562007 C8.17315844,39.0527088 8.63977637,39.2857143 9.13526334,39.2857143 L15.4226295,39.2857143 C16.0871967,39.2857143 16.6800097,38.8680516 16.9033043,38.2422855 L18.4185595,33.9962855 C20.4147983,34.5399998 22.5367844,34.8354283 24.7405063,34.8354283 C26.9630902,34.8354283 29.1039384,34.5368569 31.1158956,33.9805712 L32.8229155,38.2925712 C33.0602481,38.892082 33.6398026,39.2857143 34.2847282,39.2857143 L40.5720944,39.2857143 C41.0694451,39.2852036 41.5372114,39.0494038 41.8333373,38.6499247 C42.1294633,38.2504456 42.2190069,37.7344242 42.0747749,37.2585712 L39.6824321,29.3825712 C43.115334,26.2994284 45.2844753,22.1005713 45.2844753,17.4177142 C45.2844753,16.9619999 45.2624696,16.5062856 45.2216017,16.0631427 C46.042103,15.7174285 46.8185927,15.2271428 47.4378983,14.6677142 C48.4281584,15.6294285 50,15.6294285 50,13.3571428 C50,14.0579999 48.4281584,14.0579999 48.5507621,13.2754285 C48.6828156,13.0231401 48.7780911,12.7532639 48.8336936,12.4739999 C48.9839641,11.7341149 48.7442447,10.9688756 48.1986696,10.4468571 C47.6161881,9.84665042 46.6999058,9.71967436 45.9760856,10.1388571 C45.3197001,10.501473 44.8801709,11.1600078 44.7972045,11.9051428 C44.7217561,12.6688571 45.0549865,13.4137142 45.8031831,13.9605713 C45.5435558,14.1400011 45.2714612,14.3006943 44.9889691,14.4414285 C43.3102424,6.0688571 34.6651138,0 24.7373626,0 L24.7373626,0 Z M7.61057703,14.8751428 C9.04095285,8.38199994 15.9947799,3.14285712 24.7373626,3.14285712 C34.6273896,3.14285712 42.1407922,9.78685708 42.1407922,17.4177142 C42.1407922,21.358857 40.179134,24.9919998 36.8908415,27.6257141 C36.3908497,28.0278006 36.1855304,28.6933582 36.3721337,29.3071427 L38.4469646,36.1428571 L35.3504367,36.1428571 L33.4956637,31.4694284 C33.1853802,30.6869756 32.3135166,30.2878807 31.518287,30.5642855 C29.4403125,31.2871426 27.1485675,31.6925712 24.7373626,31.6925712 C22.4298226,31.6985158 20.1376577,31.3171199 17.9564381,30.5642855 C17.1415118,30.2810838 16.2505692,30.7075017 15.9601994,31.5197141 L14.3097657,36.1428571 L11.2321,36.1428571 L13.2220514,29.3857141 C13.4037035,28.7696667 13.1920843,28.1051083 12.6876252,27.7074284 C11.0056517,26.4059203 9.62809663,24.7530739 8.65113614,22.8642856 C8.3842762,22.3348383 7.84207595,22.0006098 7.24905348,21.9999998 L5.48859094,21.9999998 C4.72544435,21.9991629 4.07315969,21.4504334 3.94189885,20.698857 L3.14340334,16.1102856 L6.07645968,16.1102856 C6.8144557,16.1096705 7.45264609,15.595853 7.61057703,14.8751428 Z M47.2870015,12.1817142 C47.2310253,12.4206322 47.1261255,12.6453585 46.9789205,12.8417142 C46.9318862,12.8171895 46.885749,12.7909821 46.8405985,12.7631428 C46.3816207,12.4802856 46.3470402,12.2131428 46.3627586,12.0622856 C46.3941104,11.8337238 46.5300579,11.6327602 46.7305696,11.5185713 C46.88461,11.4337142 46.9820642,11.4525713 47.0858058,11.5562856 C47.2639439,11.7111654 47.3414368,11.9520566 47.2870015,12.1817142 L47.2870015,12.1817142 Z" id="Shape"></path>
        </g>
    </g>
</svg>
