<?xml version="1.0" encoding="UTF-8"?>
<svg width="36px" height="36px" viewBox="0 0 36 36" version="1.1" xmlns="http://www.w3.org/2000/svg" xmlns:xlink="http://www.w3.org/1999/xlink">
    <title>gear</title>
    <g id="Page-1" stroke="none" stroke-width="1" fill="none" fill-rule="evenodd">
        <g id="gear">
            <rect id="Rectangle" fill-opacity="0.2" fill="#B344F4" fill-rule="nonzero" x="0" y="0" width="36" height="36" rx="6"></rect>
            <path d="M18.3014002,15.3788986 C17.0122023,15.2486817 15.7820625,15.9610515 15.2280211,17.1586824 C14.6739796,18.3563133 14.9155669,19.7808246 15.8316025,20.7176792 C16.7476382,21.6545338 18.1404937,21.9016118 19.3115105,21.3349785 C20.4825274,20.7683451 21.1790668,19.5102477 21.0517436,18.1917498 C20.9056854,16.7045126 19.7555876,15.5282763 18.3014002,15.3788986 L18.3014002,15.3788986 Z M25.7105099,18.5 C25.7085448,18.8413266 25.6839713,19.1821272 25.6369574,19.5200701 L27.8103607,21.2599299 C28.0057933,21.425271 28.0555919,21.7105192 27.9281408,21.9345794 L25.8720368,25.5654206 C25.7431323,25.7872614 25.476556,25.8823019 25.240351,25.7906308 L23.0818505,24.903528 C22.8400642,24.8052726 22.5660915,24.83753 22.3525754,24.9893925 C22.0231515,25.2209212 21.6769901,25.426605 21.317072,25.6046729 C21.0872804,25.7186639 20.9282682,25.9420469 20.8930637,26.2003271 L20.569529,28.5500701 C20.5257064,28.8059911 20.3105947,28.9944999 20.0561039,29 L15.9438961,29 C15.693901,28.9955856 15.4803645,28.8147484 15.4299903,28.5647897 L15.1069363,26.2184813 C15.0700904,25.9573257 14.9077018,25.7322887 14.6742748,25.6189019 C14.3147872,25.4417973 13.9697954,25.2355521 13.6426173,25.0021495 C13.4298125,24.8510306 13.1567383,24.8194891 12.9162266,24.9182477 L10.7582068,25.8048598 C10.5221179,25.896618 10.2555763,25.801797 10.126521,25.5801402 L8.07041704,21.9492991 C7.9427572,21.7252765 7.99258132,21.4398817 8.18819713,21.2746495 L10.0250859,19.8026869 C10.2295456,19.6370346 10.338074,19.3770998 10.3135269,19.1118458 C10.2962204,18.907243 10.2856443,18.7031308 10.2856443,18.498528 C10.2856443,18.2939252 10.2957397,18.092757 10.3135269,17.8925701 C10.335387,17.6289609 10.2256916,17.371843 10.0217207,17.2085981 L8.18579346,15.7366355 C7.99345746,15.5706439 7.94544225,15.2877742 8.07185925,15.0654206 L10.1279632,11.4345794 C10.2568677,11.2127386 10.523444,11.1176981 10.759649,11.2093692 L12.9181495,12.096472 C13.1599358,12.1947274 13.4339085,12.16247 13.6474246,12.0106075 C13.9768485,11.7790788 14.3230099,11.573395 14.682928,11.3953271 C14.9127196,11.2813361 15.0717318,11.0579531 15.1069363,10.7996729 L15.430471,8.44992991 C15.4742936,8.1940089 15.6894053,8.00550005 15.9438961,8 L20.0561039,8 C20.306099,8.00441439 20.5196355,8.18525158 20.5700097,8.43521028 L20.8930637,10.7815187 C20.9299096,11.0426743 21.0922982,11.2677113 21.3257252,11.3810981 C21.6852128,11.5582027 22.0302046,11.7644479 22.3573827,11.9978505 C22.5701875,12.1489694 22.8432617,12.1805109 23.0837734,12.0817523 L25.2417932,11.1951402 C25.4778821,11.103382 25.7444237,11.198203 25.873479,11.4198598 L27.929583,15.0507009 C28.0572428,15.2747235 28.0074187,15.5601183 27.8118029,15.7253505 L25.9749141,17.1973131 C25.7695556,17.3624335 25.6600862,17.6224551 25.6840694,17.8881542 C25.6999337,18.091285 25.7105099,18.2953972 25.7105099,18.5 Z" id="Shape" stroke="#845EC2" stroke-width="2" stroke-linecap="round" stroke-linejoin="round"></path>
        </g>
    </g>
</svg>