<?xml version="1.0" encoding="utf-8"?>
<!-- Generator: Adobe Illustrator 27.9.0, SVG Export Plug-In . SVG Version: 6.00 Build 0)  -->
<svg version="1.1" id="Layer_1" xmlns="http://www.w3.org/2000/svg" xmlns:xlink="http://www.w3.org/1999/xlink" x="0px" y="0px"
	 viewBox="0 0 36 36" style="enable-background:new 0 0 36 36;" xml:space="preserve">
<style type="text/css">
	.st0{fill:#B344F4;fill-opacity:0.2;}
	.st1{fill:none;stroke:#845EC2;stroke-width:1.5;stroke-linecap:round;stroke-linejoin:round;}
</style>
<g id="Page-1">
	<g id="gear">
		<path id="Rectangle" class="st0" d="M6,0h24c3.3,0,6,2.7,6,6v24c0,3.3-2.7,6-6,6H6c-3.3,0-6-2.7-6-6V6C0,2.7,2.7,0,6,0z"/>
		<path id="Shape" class="st1" d="M18.2,15.8c-0.9-0.1-1.8,0.4-2.1,1.2c-0.4,0.8-0.2,1.8,0.4,2.5c0.6,0.7,1.6,0.8,2.4,0.4
			c0.8-0.4,1.3-1.3,1.2-2.2C20,16.7,19.2,15.9,18.2,15.8L18.2,15.8z M23.4,18c0,0.2,0,0.5-0.1,0.7l1.5,1.2c0.1,0.1,0.2,0.3,0.1,0.5
			l-1.4,2.5c-0.1,0.2-0.3,0.2-0.4,0.2l-1.5-0.6c-0.2-0.1-0.4,0-0.5,0.1c-0.2,0.2-0.5,0.3-0.7,0.4C20.2,23,20,23.2,20,23.4L19.8,25
			c0,0.2-0.2,0.3-0.4,0.3h-2.9c-0.2,0-0.3-0.1-0.4-0.3L16,23.4c0-0.2-0.1-0.3-0.3-0.4c-0.3-0.1-0.5-0.3-0.7-0.4
			c-0.1-0.1-0.3-0.1-0.5-0.1L13,23.1c-0.2,0.1-0.4,0-0.4-0.2l-1.4-2.5C11,20.2,11,20,11.2,19.9l1.3-1c0.1-0.1,0.2-0.3,0.2-0.5
			c0-0.1,0-0.3,0-0.4s0-0.3,0-0.4c0-0.2-0.1-0.4-0.2-0.5l-1.3-1C11,16,11,15.8,11.1,15.6l1.4-2.5c0.1-0.2,0.3-0.2,0.4-0.2l1.5,0.6
			c0.2,0.1,0.4,0,0.5-0.1c0.2-0.2,0.5-0.3,0.7-0.4c0.2-0.1,0.3-0.2,0.3-0.4l0.2-1.6c0-0.2,0.2-0.3,0.4-0.3h2.9
			c0.2,0,0.3,0.1,0.4,0.3l0.2,1.6c0,0.2,0.1,0.3,0.3,0.4c0.3,0.1,0.5,0.3,0.7,0.4c0.1,0.1,0.3,0.1,0.5,0.1l1.5-0.6
			c0.2-0.1,0.4,0,0.4,0.2l1.4,2.5c0.1,0.2,0.1,0.4-0.1,0.5l-1.3,1c-0.1,0.1-0.2,0.3-0.2,0.5C23.4,17.7,23.4,17.9,23.4,18z"/>
	</g>
</g>
</svg>
