<?xml version="1.0" encoding="UTF-8"?>
<svg width="494px" height="494px" viewBox="0 0 494 494" version="1.1" xmlns="http://www.w3.org/2000/svg" xmlns:xlink="http://www.w3.org/1999/xlink">
    <title>Shape</title>
    <g id="Page-1" stroke="none" stroke-width="1" fill="none" fill-rule="evenodd">
        <path d="M247,0.602 C382.95,0.602 493.4,111.052 493.4,247.002 C493.4,382.952 382.95,493.402 247,493.402 C111.05,493.402 0.6,382.952 0.6,247.002 C0.6,111.052 111.05,0.602 247,0.602 Z M258.199,24.403 L258.199,129.403 L337.472,129.403 C332.7454,113.368 327.089,98.594 320.671,85.653 C303.362,50.743 281.374,29.61 258.198,24.399 L258.199,24.403 Z M235.801,24.403 C212.625,29.6139 190.637,50.747 173.324,85.653 C166.906,98.594 161.25,113.368 156.523,129.403 L235.796,129.403 L235.796,24.403 L235.801,24.403 Z M311.75,32.6296 C322.684,44.4886 332.367,59.0276 340.625,75.6806 C348.5664,91.6966 355.332,109.7976 360.75,129.4076 L437.75,129.4076 C409.328,83.3686 364.672,48.5526 311.75,32.6346 L311.75,32.6296 Z M182.25,32.6296 C129.328,48.5516 84.672,83.3636 56.25,129.4026 L133.25,129.4026 C138.668,109.7976 145.434,91.6916 153.375,75.6756 C161.6328,59.0276 171.32,44.4846 182.25,32.6246 L182.25,32.6296 Z M449.82,151.8096 L366.168,151.8096 C371.6875,177.8486 374.9532,206.1766 375.6172,235.8096 L470.6402,235.8096 C469.1714,205.8446 461.898,177.5286 449.8162,151.8096 L449.82,151.8096 Z M343.25,151.8096 L258.199,151.8096 L258.199,235.8096 L353.222,235.8096 C352.51106,205.8956 349.0032,177.4856 343.2454,151.8096 L343.25,151.8096 Z M235.8,151.8096 L150.749,151.8096 C144.9912,177.4856 141.4834,205.8956 140.7724,235.8096 L235.7954,235.8096 L235.7954,151.8096 L235.8,151.8096 Z M127.82,151.8096 L44.168,151.8096 C32.086,177.5286 24.813,205.8446 23.344,235.8096 L118.367,235.8096 C119.03497,206.1766 122.2967,177.8446 127.8162,151.8096 L127.82,151.8096 Z M470.64,258.2096 L375.617,258.2096 C374.95684,287.8896 371.6951,316.1666 366.1678,342.2096 L449.8198,342.2096 C461.8628,316.5256 469.1788,288.1156 470.6438,258.2096 L470.64,258.2096 Z M353.21,258.2096 L258.187,258.2096 L258.187,342.2096 L343.238,342.2096 C348.9958,316.5066 352.5114,288.1546 353.2146,258.2096 L353.21,258.2096 Z M235.78,258.2096 L140.757,258.2096 C141.46012,288.1546 144.9718,316.5066 150.7336,342.2096 L235.7846,342.2096 L235.7846,258.2096 L235.78,258.2096 Z M118.35,258.2096 L23.327,258.2096 C24.7918,288.1156 32.1082,316.5256 44.151,342.2096 L127.803,342.2096 C122.2718,316.1666 119.01,287.8896 118.3538,258.2096 L118.35,258.2096 Z M437.73,364.6096 L360.73,364.6096 C355.312,384.1876 348.546,402.1446 340.605,418.1606 C332.3472,434.8126 322.664,449.6726 311.73,461.5586 C364.652,445.6366 409.308,410.6486 437.73,364.6096 Z M337.46,364.6096 L258.187,364.6096 L258.187,469.7896 C281.363,464.5787 303.351,443.2696 320.664,408.3636 C327.1054,395.3796 332.726,380.7116 337.465,364.6136 L337.46,364.6096 Z M235.78,364.6096 L156.507,364.6096 C161.2453,380.7076 166.866,395.3756 173.308,408.3596 C190.62,443.2656 212.609,464.5746 235.785,469.7856 L235.785,364.6056 L235.78,364.6096 Z M133.23,364.6096 L56.23,364.6096 C84.652,410.6486 129.308,445.6406 182.23,461.5586 C171.296,449.6676 161.613,434.8086 153.355,418.1606 C145.4136,402.1446 138.648,384.1876 133.23,364.6096 Z" id="Shape" fill="var(--font-color)" fill-rule="nonzero"></path>
    </g>
</svg>