<?xml version="1.0" encoding="UTF-8"?>
<svg xmlns="http://www.w3.org/2000/svg" id="Layer_1" data-name="Layer 1" viewBox="0 0 24 24">
  <path d="M10,10.685v-.685c0-1.105-.895-2-2-2v-1c0-.552-.448-1-1-1s-1,.448-1,1v1c-1.105,0-2,.895-2,2v.685C1.639,11.812,0,14.215,0,17c0,3.859,3.14,7,7,7s7-3.141,7-7c0-2.785-1.639-5.188-4-6.315Zm-3,11.315c-2.757,0-5-2.243-5-5s2.243-5,5-5,5,2.243,5,5-2.243,5-5,5Zm16.942-4.088c-.409,3.208-3.104,5.781-6.326,6.061-.957,.083-1.878-.03-2.729-.302-.652-.208-.89-.984-.499-1.545,.004-.006,.008-.011,.012-.017,.248-.358,.709-.481,1.123-.347,.466,.151,.961,.237,1.477,.237,3.038,0,5.453-2.725,4.928-5.859-.3-1.793-1.628-3.29-3.35-3.874-1.039-.353-2.019-.333-2.903-.077-.51,.148-1.059,.002-1.375-.424-.015-.02-.3-.533-.3-.802v-.964c0-1.105,.895-2,2-2v-1c0-.552,.447-1,1-1s1,.448,1,1v1c1.105,0,2,.895,2,2v.685c2.615,1.248,4.345,4.063,3.942,7.227ZM15.035,3.395c-.359-.419-.312-1.05,.107-1.41,.418-.358,1.049-.312,1.41,.106,.391,.455,.709,.962,.948,1.509,.221,.506-.011,1.096-.518,1.316-.13,.057-.266,.084-.398,.084-.386,0-.754-.225-.918-.601-.158-.364-.371-.702-.632-1.005ZM10.02,1.298c-.11-.541,.24-1.069,.782-1.178,.786-.159,1.61-.159,2.396,0,.541,.109,.892,.637,.782,1.178-.097,.475-.514,.802-.979,.802-.066,0-.132-.006-.199-.02-.526-.106-1.077-.106-1.604,0-.539,.111-1.069-.24-1.178-.782Zm-3.521,2.301c.265-.605,.626-1.161,1.075-1.652,.372-.408,1.005-.436,1.413-.062,.407,.373,.435,1.005,.062,1.413-.3,.328-.542,.699-.718,1.102-.164,.375-.532,.6-.917,.6-.134,0-.27-.027-.4-.084-.506-.221-.737-.811-.516-1.317Z"/>
</svg>
