<?xml version="1.0" encoding="UTF-8"?>
<svg xmlns="http://www.w3.org/2000/svg" id="Layer_1" data-name="Layer 1" viewBox="0 0 24 24">
  <path d="m19.777,3.222c-2.077-2.078-4.84-3.222-7.777-3.222s-5.7,1.145-7.778,3.222c-2.078,2.077-3.222,4.839-3.222,7.778s1.144,5.7,3.25,7.805l3.942,3.643c1.024,1,2.376,1.552,3.808,1.552s2.784-.551,3.786-1.533l3.991-3.689c2.078-2.078,3.222-4.84,3.222-7.778s-1.144-5.701-3.222-7.778Zm-1.386,14.114l-3.983,3.682c-1.294,1.266-3.501,1.287-4.838-.02l-3.935-3.635c-1.7-1.7-2.636-3.96-2.636-6.364s.936-4.664,2.636-6.364c1.7-1.7,3.96-2.636,6.364-2.636s4.663.936,6.363,2.636c1.7,1.7,2.636,3.959,2.636,6.364s-.936,4.664-2.607,6.336ZM10,7.8v6.4c0,.442-.358.8-.8.8h0c-.442,0-.8-.358-.8-.8v-6.4c0-.442.358-.8.8-.8h0c.442,0,.8.358.8.8Zm4-.8h-1.7c-.442,0-.8.358-.8.8v6.4c0,.442.358.8.8.8s.8-.358.8-.8v-2.2h.9c1.381,0,2.5-1.119,2.5-2.5s-1.119-2.5-2.5-2.5Zm0,3.4h-.9v-1.801h.9c.497,0,.9.403.9.9s-.403.9-.9.9Z"/>
</svg>
