<?xml version="1.0" encoding="UTF-8"?>
<svg xmlns="http://www.w3.org/2000/svg" id="Layer_1" data-name="Layer 1" viewBox="0 0 24 24" width="512" height="512"><path d="M8,7v-3C8,1.79,6.21,0,4,0S0,1.79,0,4v3c0,2.21,1.79,4,4,4s4-1.79,4-4Zm-4,3c-1.65,0-3-1.35-3-3v-3c0-1.65,1.35-3,3-3s3,1.35,3,3v3c0,1.65-1.35,3-3,3Zm8.85,4.91c-.2,.19-.51,.19-.71,0-.57-.58-1.33-.9-2.14-.9-1.65,0-3,1.35-3,3v3c0,1.65,1.35,3,3,3,.29,0,.58-.04,.86-.12,.27-.08,.54,.07,.62,.34,.08,.26-.07,.54-.34,.62-.37,.11-.75,.17-1.14,.17-2.21,0-4-1.79-4-4v-3c0-2.21,1.79-4,4-4,1.08,0,2.1,.43,2.86,1.2,.19,.2,.19,.51,0,.71ZM10.2,3.8c-.2-.2-.2-.51,0-.71L13.15,.15c.14-.14,.36-.19,.54-.11,.19,.08,.31,.26,.31,.46V9.5c0,.28-.22,.5-.5,.5s-.5-.22-.5-.5V1.71l-2.09,2.09c-.2,.2-.51,.2-.71,0ZM4,13.5v10c0,.28-.22,.5-.5,.5s-.5-.22-.5-.5V14.71l-2.09,2.09c-.2,.2-.51,.2-.71,0s-.2-.51,0-.71l2.94-2.94c.14-.14,.36-.19,.54-.11,.19,.08,.31,.26,.31,.46Zm18,1.85v-1.85c0-1.93-1.57-3.5-3.5-3.5s-3.5,1.57-3.5,3.5v1.85c-1.18,.56-2,1.76-2,3.15v2c0,1.93,1.57,3.5,3.5,3.5h4c1.93,0,3.5-1.57,3.5-3.5v-2c0-1.39-.82-2.58-2-3.15Zm-6-1.85c0-1.38,1.12-2.5,2.5-2.5s2.5,1.12,2.5,2.5v1.55c-.16-.02-.33-.05-.5-.05h-4c-.17,0-.34,.03-.5,.05v-1.55Zm7,7c0,1.38-1.12,2.5-2.5,2.5h-4c-1.38,0-2.5-1.12-2.5-2.5v-2c0-1.38,1.12-2.5,2.5-2.5h4c1.38,0,2.5,1.12,2.5,2.5v2Zm-3.5-1c0,.55-.45,1-1,1s-1-.45-1-1,.45-1,1-1,1,.45,1,1Z"/></svg>
