<?xml version="1.0" encoding="utf-8" ?><svg xmlns="http://www.w3.org/2000/svg" xmlns:xlink="http://www.w3.org/1999/xlink" width="512" height="512" viewBox="0 0 512 512"><path d="M253.419 210.372C261.483 209.028 269.113 214.463 270.478 222.523C271.842 230.583 266.427 238.227 258.37 239.613C250.285 241.003 242.607 235.564 241.237 227.474C239.867 219.385 245.327 211.721 253.419 210.372Z"/><path d="M396.795 213.525C387.535 207.731 376.831 201.929 367.28 196.426L328.249 173.489C324.263 171.113 320.256 168.774 316.226 166.473C310.018 162.973 302.405 159.796 300.606 152.096C299.61 147.833 300.687 143.247 303.062 139.619C305.151 136.422 308.471 134.233 312.233 133.571C316.763 132.743 320.003 133.95 323.88 136.206C328.273 138.763 332.595 141.442 336.959 144.045L368.273 162.57L410.29 187.142C418.321 191.758 426.601 196.015 434.321 201.125C441.593 205.937 441.11 212.052 441.052 219.682C441.02 223.714 441.009 227.746 441.017 231.777L441.025 278.731L440.946 357.948L441.039 384.614C441.044 388.997 441.09 393.386 440.972 397.767C440.651 409.736 428.612 414.303 419.719 419.553L387.499 438.253L283.583 498.473C277.948 501.748 272.022 504.854 266.444 508.296C265.048 509.158 261.306 511.147 260.138 512L252.775 512C249.364 509.894 245.208 507.84 241.616 505.753L203.718 483.994C167.443 463.222 131.224 442.186 95.1188 421.112C88.6597 417.342 81.8748 413.959 75.7673 409.638C74.147 408.469 71.6452 404.803 71.4373 403.016C70.4579 394.6 70.9383 384.003 70.9971 375.504L70.9768 334.723L70.9274 252.828L70.9256 227.132C70.9126 222.157 70.8318 217.21 70.9745 212.235C71.2612 202.24 81.3767 198.533 88.9027 194.183C97.2161 189.483 105.479 184.694 113.69 179.817C132.352 168.641 151.114 157.634 169.975 146.796C175.206 143.773 188.291 134.916 193.418 133.948C197.57 133.131 201.875 134.047 205.333 136.484C215.165 143.427 213.235 156.281 203.435 161.927C199.19 164.372 194.873 166.77 190.644 169.234L158.521 187.896L129.908 204.471C124.645 207.529 119.362 210.895 113.97 213.648C118.037 216.383 122.315 218.599 126.577 221.02L142.516 230.268L198.377 262.412C212.527 270.607 226.738 278.696 241.009 286.678C244.513 288.619 252.998 293.75 256.006 294.872C260.72 292.374 265.756 289.315 270.404 286.642L297.334 271.068L343.425 244.613C354.426 238.3 365.401 232.075 376.223 225.441C380.967 222.533 386.182 220.082 390.89 217.065C392.644 216.003 395.25 214.694 396.795 213.525ZM241.026 470.641C241.245 449.856 241.019 428.743 240.961 407.945L241.052 359.86L241.062 336.674C241.067 334.179 241.289 322.82 240.733 321.046C239.336 319.862 237.356 318.828 235.731 317.938C230.239 314.93 224.848 311.76 219.392 308.688L178.023 284.998L123.795 253.728C118.55 250.643 113.283 247.595 107.996 244.582C106.648 243.815 102.586 241.412 101.42 241.001C101.682 245.112 101.523 250.264 101.515 254.451L101.529 277.031C101.692 302.522 101.723 328.013 101.623 353.503L101.695 375.976C101.704 379.984 101.567 384.105 102 388.073C102.127 389.232 103.673 391.484 104.588 392.145C115.212 399.821 127.681 405.861 138.984 412.4C172.897 431.99 206.912 451.404 241.026 470.641ZM271.175 470.634C280.71 464.78 291.223 459.024 300.978 453.415L366.694 415.687C381.089 407.421 396.439 398.827 410.529 390.042L410.631 276L410.68 251.653C410.685 249.954 410.866 242.633 410.559 241.284C410.097 240.981 410.317 241.05 409.935 240.984C374.2 262.139 337.634 282.777 301.652 303.595L282.033 314.923C279.766 316.223 272.691 319.902 271.301 321.333C271.013 322.769 270.97 324.394 270.963 325.86C270.901 338.383 270.892 350.919 270.869 363.443L270.888 439.709C270.897 443.54 270.514 468.491 271.175 470.634Z"/><path d="M169.895 320.332C177.462 319.944 185.091 323.836 186.64 331.751C187.423 335.755 187.106 341.077 187.099 345.209C187.055 352.702 187.052 360.195 187.092 367.688C193.506 372.069 201.181 375.566 207.443 380.178C218.576 388.377 213.501 405.121 199.652 406.649C193.079 406.681 186.911 401.341 181.335 398.248C175.46 394.989 169.662 391.621 163.884 388.133C160.689 386.204 157.87 382.491 157.131 378.73C156.269 372.137 156.693 365.218 156.644 358.55L156.524 343.855C156.484 336.679 155.572 329.065 161.73 324.008C164.454 321.771 166.397 320.869 169.895 320.332Z"/><path d="M251.646 0L260.119 0C261.329 1.21467 270.149 5.92095 272.284 7.14115L305.911 26.6273C312.178 30.2441 321.764 34.421 326.467 39.7333C329.899 43.6109 329.522 51.6399 329.533 56.7654L329.541 71.7617L329.545 87.0792C329.542 91.1398 329.624 94.8571 329.102 98.8872C328.173 106.068 323.47 109.046 317.649 112.224C314.756 113.803 311.759 115.463 308.864 117.088C300.738 121.75 292.635 126.455 284.558 131.202C280.814 133.425 274.322 137.132 271.054 139.569L270.71 139.829C270.68 148.291 270.694 156.754 270.751 165.216C270.785 174.221 272.526 182.678 264.878 189.016C256.51 195.95 242.353 190.652 241.186 180.033C240.187 170.933 240.674 160.666 240.679 151.442C240.671 146.32 240.693 141.197 240.744 136.075C240.845 127.984 240.602 121.831 248.327 117.233C251.843 115.14 255.461 113.129 258.992 111.072L283.052 96.9932C287.343 94.4904 294.423 90.5726 298.371 87.7849C298.419 77.2472 298.266 66.9969 298.447 56.3888C288.638 51.388 278.982 44.7914 269.103 39.7549C265.109 37.7191 259.622 33.942 255.446 32.6209C241.82 40.7509 226.26 48.6958 213.041 57.176C212.306 66.5198 213.056 77.9206 212.773 87.4513C212.55 91.3751 213.174 95.8122 212.477 99.6724C209.339 117.041 184.134 115.794 182.492 98.4278C181.754 90.6246 182.175 82.0621 182.211 74.1549L182.347 58.1998C182.565 37.1279 184.564 38.4173 201.69 28.6497C211.743 22.8108 221.847 17.0596 232 11.397L243.667 4.74193C246.1 3.36216 249.466 1.6502 251.646 0Z"/></svg>