<?xml version="1.0" encoding="UTF-8"?>
<svg xmlns="http://www.w3.org/2000/svg" id="Layer_1" data-name="Layer 1" viewBox="0 0 24 24">
  <path d="M18.024,10c-2.125,0-3.923,.502-4.977,1.294V5c0-1.71-2.805-3-6.523-3S0,3.29,0,5V21c0,1.71,2.805,3,6.524,3,2.767,0,5.025-.715,6.002-1.785,.894,1.07,2.963,1.785,5.498,1.785,3.406,0,5.976-1.29,5.976-3V13c0-1.71-2.569-3-5.976-3Zm4.976,7c0,.946-2.043,2-4.976,2-2.849,0-4.977-1.056-4.977-2v-2.294c1.053,.792,2.852,1.294,4.977,1.294s3.922-.502,4.976-1.294v2.294ZM12.048,9c0,.944-2.362,2-5.523,2s-5.524-1.056-5.524-2v-2.364c1.134,.832,3.139,1.364,5.524,1.364s4.389-.532,5.523-1.364v2.364Zm-5.523,3c2.385,0,4.389-.532,5.523-1.364v2.364c0,.944-2.362,2-5.523,2s-5.524-1.056-5.524-2v-2.364c1.134,.832,3.139,1.364,5.524,1.364ZM1,14.636c1.134,.832,3.139,1.364,5.524,1.364s4.389-.532,5.523-1.364v2.364c0,.944-2.362,2-5.523,2s-5.524-1.056-5.524-2v-2.364Zm17.024-3.636c2.933,0,4.976,1.054,4.976,2s-2.043,2-4.976,2c-2.849,0-4.977-1.056-4.977-2s2.128-2,4.977-2ZM6.524,3c3.161,0,5.523,1.056,5.523,2s-2.362,2-5.523,2S1,5.944,1,5,3.362,3,6.524,3Zm0,20c-3.162,0-5.524-1.056-5.524-2v-2.364c1.134,.832,3.139,1.364,5.524,1.364s4.389-.532,5.523-1.364v2.364c0,.944-2.362,2-5.523,2Zm11.5,0c-2.849,0-4.977-1.056-4.977-2v-2.294c1.053,.792,2.852,1.294,4.977,1.294s3.922-.502,4.976-1.294v2.294c0,.946-2.043,2-4.976,2ZM15.142,3.421c-.192-.198-.188-.514,.01-.707L17.529,.398c.527-.494,1.386-.488,1.914,.004l2.403,2.309c.199,.191,.205,.508,.014,.707-.098,.103-.229,.154-.36,.154-.125,0-.249-.046-.347-.14l-2.153-2.069V7.5c0,.276-.224,.5-.5,.5s-.5-.224-.5-.5V1.336l-2.151,2.095c-.195,.192-.513,.189-.707-.01Z"/>
</svg>
