<svg width="36" height="36" viewBox="0 0 36 36" fill="none" xmlns="http://www.w3.org/2000/svg">
<rect width="36" height="36" rx="6" fill="#70FFBE" fill-opacity="0.2"/>
<path d="M18 25.5C22.1421 25.5 25.5 22.1421 25.5 18C25.5 13.8579 22.1421 10.5 18 10.5C13.8579 10.5 10.5 13.8579 10.5 18C10.5 22.1421 13.8579 25.5 18 25.5Z" stroke="#70FFBE" stroke-width="1.5" stroke-miterlimit="10"/>
<path d="M10.9277 15.5H25.0734" stroke="#70FFBE" stroke-width="1.5" stroke-linecap="round" stroke-linejoin="round"/>
<path d="M10.9277 20.5H25.0734" stroke="#70FFBE" stroke-width="1.5" stroke-linecap="round" stroke-linejoin="round"/>
<path d="M18 25.2966C19.7259 25.2966 21.125 22.0288 21.125 17.9979C21.125 13.9669 19.7259 10.6992 18 10.6992C16.2741 10.6992 14.875 13.9669 14.875 17.9979C14.875 22.0288 16.2741 25.2966 18 25.2966Z" stroke="#70FFBE" stroke-width="1.5" stroke-miterlimit="10"/>
</svg>
