<svg width="36" height="36" viewBox="0 0 36 36" fill="none" xmlns="http://www.w3.org/2000/svg">
<rect width="36" height="36" rx="6" fill="#44AEF4" fill-opacity="0.2"/>
<path d="M14.2373 15.791H10.4873V12.041" stroke="#45AFF4" stroke-width="1.5" stroke-linecap="round" stroke-linejoin="round"/>
<path d="M22.8617 13.1386C22.2233 12.5002 21.4654 11.9938 20.6313 11.6483C19.7971 11.3028 18.9032 11.125 18.0003 11.125C17.0975 11.125 16.2035 11.3028 15.3694 11.6483C14.5353 11.9938 13.7774 12.5002 13.139 13.1386L10.4873 15.7903" stroke="#45AFF4" stroke-width="2" stroke-linecap="round" stroke-linejoin="round"/>
<path d="M21.7627 20.209H25.5127V23.959" stroke="#45AFF4" stroke-width="2" stroke-linecap="round" stroke-linejoin="round"/>
<path d="M13.1387 22.8606C13.7771 23.499 14.535 24.0054 15.3691 24.3509C16.2032 24.6964 17.0972 24.8743 18 24.8743C18.9029 24.8743 19.7969 24.6964 20.631 24.3509C21.4651 24.0054 22.223 23.499 22.8614 22.8606L25.513 20.209" stroke="#45AFF4" stroke-width="2" stroke-linecap="round" stroke-linejoin="round"/>
</svg>
