<svg clip-rule="evenodd" fill-rule="evenodd" stroke-linejoin="round" stroke-miterlimit="2" viewBox="0 0 560 400" xmlns="http://www.w3.org/2000/svg"><g fill-rule="nonzero" transform="matrix(.401788 0 0 .401788 63.0249 -16.9651)"><path d="m385.67 428h-214.039c-1.32 0-2.586.524-3.519 1.458-.934.933-1.458 2.199-1.458 3.52v214.039c0 1.32.524 2.586 1.458 3.519.933.934 2.199 1.458 3.519 1.458h214.039c1.321 0 2.587-.524 3.52-1.458.934-.933 1.458-2.199 1.458-3.519v-214.039c0-1.321-.524-2.587-1.458-3.52-.933-.934-2.199-1.458-3.52-1.458zm-69.687 144.352c0 1.32-.524 2.586-1.458 3.52-.933.933-2.199 1.458-3.519 1.458h-64.71c-1.32 0-2.586-.525-3.52-1.458-.933-.934-1.457-2.2-1.457-3.52v-64.71c0-1.32.524-2.586 1.457-3.519.934-.934 2.2-1.458 3.52-1.458h64.71c1.32 0 2.586.524 3.519 1.458.934.933 1.458 2.199 1.458 3.519z"/><path d="m833.783 502.673h-64.709c-2.749 0-4.978 2.228-4.978 4.977v64.71c0 2.749 2.229 4.978 4.978 4.978h64.709c2.749 0 4.978-2.229 4.978-4.978v-64.71c0-2.749-2.229-4.977-4.978-4.977z"/><path d="m759.088 428.006h-64.709c-2.749 0-4.978 2.228-4.978 4.978v64.709c0 2.749 2.229 4.978 4.978 4.978h64.709c2.75 0 4.978-2.229 4.978-4.978v-64.709c0-2.75-2.228-4.978-4.978-4.978z"/><path d="m908.418 428.006h-64.71c-2.749 0-4.978 2.228-4.978 4.978v64.709c0 2.749 2.229 4.978 4.978 4.978h64.71c2.749 0 4.977-2.229 4.977-4.978v-64.709c0-2.75-2.228-4.978-4.977-4.978z"/><path d="m759.088 577.334h-64.709c-2.749 0-4.978 2.228-4.978 4.977v64.71c0 2.749 2.229 4.978 4.978 4.978h64.709c2.75 0 4.978-2.229 4.978-4.978v-64.71c0-2.749-2.228-4.977-4.978-4.977z"/><path d="m908.418 577.334h-64.71c-2.749 0-4.978 2.228-4.978 4.977v64.71c0 2.749 2.229 4.978 4.978 4.978h64.71c2.749 0 4.977-2.229 4.977-4.978v-64.71c0-2.749-2.228-4.977-4.977-4.977z"/><path d="m646.997 428.006h-64.709c-2.749 0-4.978 2.228-4.978 4.978v64.709c0 2.749 2.229 4.978 4.978 4.978h64.709c2.749 0 4.978-2.229 4.978-4.978v-64.709c0-2.75-2.229-4.978-4.978-4.978z"/><path d="m646.997 577.334h-64.709c-2.749 0-4.978 2.228-4.978 4.977v64.71c0 2.749 2.229 4.978 4.978 4.978h64.709c2.749 0 4.978-2.229 4.978-4.978v-64.71c0-2.749-2.229-4.977-4.978-4.977z"/><path d="m577.31 507.586c0-1.32-.525-2.586-1.458-3.519-.934-.934-2.2-1.458-3.52-1.458h-69.687v-69.631c0-1.321-.525-2.587-1.458-3.52-.934-.934-2.2-1.458-3.52-1.458h-64.709c-1.321 0-2.587.524-3.52 1.458-.934.933-1.458 2.199-1.458 3.52v213.927c0 1.32.524 2.586 1.458 3.519.933.934 2.199 1.458 3.52 1.458h64.709c1.32 0 2.586-.524 3.52-1.458.933-.933 1.458-2.199 1.458-3.519v-69.631h69.687c1.32 0 2.586-.525 3.52-1.458.933-.934 1.458-2.2 1.458-3.52z"/></g></svg>