<?xml version="1.0" encoding="UTF-8"?>
<svg xmlns="http://www.w3.org/2000/svg" id="Layer_1" data-name="Layer 1" viewBox="0 0 24 24">
  <path d="M10,2.5c0-1.381,1.119-2.5,2.5-2.5s2.5,1.119,2.5,2.5-1.119,2.5-2.5,2.5-2.5-1.119-2.5-2.5Zm10,11.5v9c0,.552-.448,1-1,1s-1-.448-1-1V14.599c-1.368-.779-2.816-1.941-4.017-3.196-.063,1.363-.041,3.026-.015,4.879l.021,1.681c.008,.809-.301,1.571-.87,2.146-.32,.323-.704,.555-1.118,.704v2.187c0,.552-.448,1-1,1s-1-.448-1-1v-2h-2v2c0,.552-.448,1-1,1s-1-.448-1-1v-2.188c-.427-.154-.819-.394-1.144-.732-.573-.597-.871-1.382-.837-2.212,.307-7.653,2.608-11.868,6.481-11.868,1.73-.109,2.959,1.409,3.808,2.709,1.264,1.707,3.377,3.515,5.14,4.396,.339,.169,.553,.516,.553,.895Zm-8.311-5.465c-.304-.346-.728-.535-1.189-.535-3.789,0-4.389,7.615-4.483,9.948-.034,.557,.44,1.064,1,1.052h3.971c.541,.012,1.019-.476,1-1.016l-.021-1.675c-.036-2.675-.065-4.789,.129-6.452,.056-.485-.092-.966-.407-1.322Z"/>
</svg>
