<?xml version="1.0" encoding="UTF-8"?>
<svg xmlns="http://www.w3.org/2000/svg" id="Layer_1" data-name="Layer 1" viewBox="0 0 24 24" width="512" height="512"><path d="m21.697,8.382L4.566.324C3.396-.243,2.021-.049,1.056.82.087,1.692-.25,3.048.197,4.272c.024.064,4.106,7.734,4.106,7.734,0,0-4.005,7.664-4.028,7.727-.445,1.226-.105,2.58.865,3.45.601.538,1.358.816,2.121.816.47,0,.941-.105,1.379-.321l17.058-8.053c1.421-.667,2.303-2.056,2.302-3.625-.002-1.569-.885-2.956-2.303-3.619ZM3.001,3.184c-.004-.038.007-.084.062-.133.088-.079.157-.047.195-.027.007.004.015.007.021.011l15.874,7.466H6.9L3.001,3.184Zm.336,17.793c-.036.019-.106.053-.193-.026-.056-.05-.066-.098-.062-.136l3.827-7.314h12.266l-15.837,7.477Z"/></svg>
