<?xml version="1.0" encoding="UTF-8"?>
<svg xmlns="http://www.w3.org/2000/svg" id="Layer_1" data-name="Layer 1" viewBox="0 0 24 24" width="512" height="512"><path d="M19,12c0,.552-.448,1-1,1s-1-.448-1-1,.448-1,1-1,1,.448,1,1Zm5,.5v3c0,.827-.673,1.5-1.5,1.5h-.213c-.853,1.846-2.389,3.278-4.287,3.997v.503c0,1.379-1.122,2.5-2.5,2.5-1.208,0-2.217-.86-2.45-2h-3.101c-.232,1.14-1.242,2-2.45,2-1.378,0-2.5-1.121-2.5-2.5v-.502C1.688,19.748-.336,16.469,.046,12.897c.134-1.248,.589-2.408,1.279-3.408-.819-.551-1.325-1.479-1.325-2.489,0-1.654,1.346-3,3-3,.276,0,.5,.224,.5,.5s-.224,.5-.5,.5c-1.103,0-2,.897-2,2,0,.7,.364,1.341,.948,1.702,1.486-1.652,3.679-2.702,6.065-2.702h7.118c.343-1.285,1.326-2.303,2.811-2.893,.465-.184,.99-.127,1.402,.153,.411,.279,.657,.743,.657,1.241v3.124c1.121,.873,1.994,2.054,2.497,3.374h.003c.603,0,1.5,.399,1.5,1.5Zm-1,0c0-.401-.273-.494-.504-.5h-.353c-.216,0-.408-.14-.476-.345-.437-1.342-1.312-2.54-2.461-3.375-.13-.094-.207-.244-.207-.404v-3.374c0-.169-.08-.319-.219-.414-.141-.096-.314-.112-.471-.051-.923,.366-2.068,1.107-2.282,2.551-.038,.251-.248,.427-.51,.427l-7.505-.015c-3.549,0-6.612,2.637-6.973,6.003-.344,3.22,1.553,6.166,4.615,7.165,.206,.067,.345,.259,.345,.476v.856c0,.827,.673,1.5,1.5,1.5s1.5-.673,1.5-1.5c0-.276,.224-.5,.5-.5h4c.276,0,.5,.224,.5,.5,0,.827,.673,1.5,1.5,1.5s1.5-.673,1.5-1.5v-.856c0-.217,.139-.408,.345-.476,1.885-.614,3.398-2.021,4.152-3.857,.077-.188,.26-.311,.462-.311h.541c.276,0,.5-.225,.5-.5v-3ZM6.5,4.5c.276,0,.5-.224,.5-.5,0-1.654,1.346-3,3-3s3,1.346,3,3c0,.276,.224,.5,.5,.5s.5-.224,.5-.5c0-2.206-1.794-4-4-4S6,1.794,6,4c0,.276,.224,.5,.5,.5Z"/></svg>
