<?xml version="1.0" encoding="UTF-8"?>
<svg xmlns="http://www.w3.org/2000/svg" id="Layer_1" data-name="Layer 1" viewBox="0 0 24 24">
  <path d="m8.5,4h-2c-1.378,0-2.5,1.122-2.5,2.5v2c0,1.378,1.122,2.5,2.5,2.5h2c1.378,0,2.5-1.122,2.5-2.5v-2c0-1.378-1.122-2.5-2.5-2.5Zm.5,4.5c0,.276-.224.5-.5.5h-2c-.276,0-.5-.224-.5-.5v-2c0-.276.224-.5.5-.5h2c.276,0,.5.224.5.5v2Zm6.5,2.5h2c1.378,0,2.5-1.122,2.5-2.5v-2c0-1.378-1.122-2.5-2.5-2.5h-2c-1.378,0-2.5,1.122-2.5,2.5v2c0,1.378,1.122,2.5,2.5,2.5Zm-.5-4.5c0-.276.224-.5.5-.5h2c.276,0,.5.224.5.5v2c0,.276-.224.5-.5.5h-2c-.276,0-.5-.224-.5-.5v-2Zm-6.5,6.5h-2c-1.378,0-2.5,1.122-2.5,2.5v2c0,1.378,1.122,2.5,2.5,2.5h2c1.378,0,2.5-1.122,2.5-2.5v-2c0-1.378-1.122-2.5-2.5-2.5Zm.5,4.5c0,.276-.224.5-.5.5h-2c-.276,0-.5-.224-.5-.5v-2c0-.276.224-.5.5-.5h2c.276,0,.5.224.5.5v2Zm-1,5.5c0,.552-.448,1-1,1h-2c-2.757,0-5-2.243-5-5v-2c0-.552.448-1,1-1s1,.448,1,1v2c0,1.654,1.346,3,3,3h2c.552,0,1,.448,1,1Zm16-6v2c0,2.757-2.243,5-5,5h-2c-.552,0-1-.448-1-1s.448-1,1-1h2c1.654,0,3-1.346,3-3v-2c0-.552.448-1,1-1s1,.448,1,1Zm0-12v2c0,.552-.448,1-1,1s-1-.448-1-1v-2c0-1.654-1.346-3-3-3h-2c-.552,0-1-.448-1-1s.448-1,1-1h2c2.757,0,5,2.243,5,5ZM0,7v-2C0,2.243,2.243,0,5,0h2c.552,0,1,.448,1,1s-.448,1-1,1h-2c-1.654,0-3,1.346-3,3v2c0,.552-.448,1-1,1s-1-.448-1-1Zm16,11.5c0,.828-.672,1.5-1.5,1.5s-1.5-.672-1.5-1.5.672-1.5,1.5-1.5,1.5.672,1.5,1.5Zm2.5-5.5c.828,0,1.5.672,1.5,1.5s-.672,1.5-1.5,1.5-1.5-.672-1.5-1.5.672-1.5,1.5-1.5Zm-5.5,1.5c0-.828.672-1.5,1.5-1.5s1.5.672,1.5,1.5-.672,1.5-1.5,1.5-1.5-.672-1.5-1.5Z"/>
</svg>
