<?xml version="1.0" encoding="UTF-8"?>
<svg xmlns="http://www.w3.org/2000/svg" id="Layer_1" data-name="Layer 1" viewBox="0 0 24 24">
  <path d="m24,8.5C24,3.813,20.187,0,15.5,0S7,3.813,7,8.5s3.813,8.5,8.5,8.5,8.5-3.813,8.5-8.5Zm-8.5,6.5c-3.584,0-6.5-2.916-6.5-6.5s2.916-6.5,6.5-6.5,6.5,2.916,6.5,6.5-2.916,6.5-6.5,6.5Zm-.789,4.191c.447.324.547.949.223,1.396-1.549,2.137-4.048,3.413-6.684,3.413C3.701,24,0,20.299,0,15.75c0-2.636,1.276-5.134,3.413-6.684.448-.324,1.073-.225,1.396.223.324.447.225,1.072-.223,1.396-1.62,1.174-2.587,3.067-2.587,5.064,0,3.446,2.804,6.25,6.25,6.25,1.998,0,3.891-.967,5.065-2.586.323-.448.949-.548,1.396-.223Zm4.094-12.441c0-1.391-1.12-2.521-2.506-2.545v-.474c0-.442-.358-.8-.8-.8s-.8.358-.8.8v.469h-.652c-.717,0-1.3.583-1.3,1.3v6c0,.717.583,1.3,1.3,1.3h.652v.45c0,.442.358.8.8.8s.8-.358.8-.8v-.45h.143c1.406,0,2.55-1.144,2.55-2.55,0-.727-.305-1.383-.795-1.849.379-.445.608-1.022.608-1.651Zm-4.458-.95h1.908c.524,0,.95.426.95.95s-.426.95-.95.95h-1.908v-1.9Zm2.094,5.4h-2.094v-1.9h2.094c.524,0,.95.426.95.95s-.426.95-.95.95Zm7.009,10.125l-2.224,2.361c-.196.208-.462.314-.728.314-.246,0-.493-.09-.686-.272-.402-.378-.42-1.011-.042-1.414l1.238-1.314h-3.011c-.552,0-1-.448-1-1s.448-1,1-1h3.011l-1.239-1.314c-.378-.402-.36-1.035.042-1.414.401-.378,1.034-.36,1.414.042l2.244,2.382c.709.709.709,1.898-.021,2.629ZM.528,5.304c-.709-.71-.709-1.899.021-2.629L2.772.314c.379-.403,1.012-.421,1.414-.042.402.379.421,1.012.042,1.414l-1.238,1.314h3.01c.552,0,1,.448,1,1s-.448,1-1,1h-3.011l1.239,1.314c.378.402.36,1.035-.042,1.414-.193.182-.439.272-.686.272-.266,0-.531-.105-.728-.314L.528,5.304Z"/>
</svg>
