<?xml version="1.0" encoding="UTF-8"?>
<svg xmlns="http://www.w3.org/2000/svg" id="Layer_1" data-name="Layer 1" viewBox="0 0 24 24">
  <path d="m24,12c0,6.617-5.383,12-12,12S0,18.617,0,12,5.383,0,12,0c4.028,0,7.787,2.036,10,5.365V1h1v4.5c0,.827-.673,1.5-1.5,1.5h-4.5v-1h4.221c-2.021-3.1-5.496-5-9.221-5C5.935,1,1,5.935,1,12s4.935,11,11,11,11-4.935,11-11h1Zm-8-2v-.505c0-1.376-1.119-2.495-2.495-2.495h-1.005v-2h-1v2h-1.005c-1.376,0-2.495,1.119-2.495,2.495,0,1.108.744,2.095,1.81,2.398l4.106,1.174c.638.183,1.084.773,1.084,1.438,0,.824-.671,1.495-1.495,1.495h-3.01c-.824,0-1.495-.671-1.495-1.495v-.505h-1v.505c0,1.376,1.119,2.495,2.495,2.495h1.005v2h1v-2h1.005c1.376,0,2.495-1.119,2.495-2.495,0-1.108-.744-2.095-1.81-2.398l-4.106-1.174c-.638-.183-1.084-.773-1.084-1.438,0-.824.671-1.495,1.495-1.495h3.01c.824,0,1.495.671,1.495,1.495v.505h1Z"/>
</svg>
