<?xml version="1.0" encoding="UTF-8"?>
<svg id="Layer_1" data-name="Layer 1" xmlns="http://www.w3.org/2000/svg" viewBox="0 0 36 36">
  <rect width="36" height="36" rx="6" ry="6" style="fill: rgba(222, 155, 234, .2); stroke-width: 0px;"/>
  <path d="m17.143,6.296l-3.085,4.271c-.351.487-.004,1.167.597,1.167h2.241v4.049h-3.313c-2.44,0-4.417,1.977-4.417,4.417v1.472c-1.051.426-1.801,1.389-1.839,2.576-.046,1.454,1.011,2.669,2.446,2.904,1.846.302,3.441-1.115,3.441-2.904,0-1.236-.762-2.14-1.84-2.576v-1.472c0-1.22.989-2.208,2.208-2.208h3.313v3.681c-1.051.426-1.801,1.389-1.839,2.576-.046,1.454,1.011,2.669,2.446,2.904,1.846.302,3.441-1.115,3.441-2.904,0-1.236-.762-2.14-1.84-2.576v-3.681h3.313c1.22,0,2.208.989,2.208,2.208v1.472c-1.051.426-1.801,1.389-1.839,2.576-.046,1.454,1.011,2.669,2.446,2.904,1.846.302,3.441-1.115,3.441-2.904,0-1.236-.762-2.14-1.84-2.576v-1.472c0-2.44-1.978-4.417-4.417-4.417h-2.944v-4.049h1.873c.601,0,.949-.681.597-1.167l-3.085-4.271c-.422-.585-1.292-.585-1.714,0" style="fill: #b323ef; stroke-width: 0px;"/>
</svg>