<svg id="Capa_1" data-name="Capa 1" xmlns="http://www.w3.org/2000/svg" xmlns:xlink="http://www.w3.org/1999/xlink" viewBox="0 0 76.45 67.36"><defs><style>.cls-1{fill:url(#Degradado_sin_nombre_2);}.cls-2{fill:url(#Degradado_sin_nombre_2-2);}.cls-3{fill:url(#Degradado_sin_nombre_2-3);}</style><linearGradient id="Degradado_sin_nombre_2" x1="259.88" y1="420.79" x2="336.34" y2="420.79" gradientUnits="userSpaceOnUse"><stop offset="0" stop-color="#0cf"/><stop offset="1" stop-color="#3f9"/></linearGradient><linearGradient id="Degradado_sin_nombre_2-2" x1="282.52" y1="425.61" x2="325.37" y2="425.61" xlink:href="#Degradado_sin_nombre_2"/><linearGradient id="Degradado_sin_nombre_2-3" x1="270.84" y1="416.26" x2="313.77" y2="416.26" xlink:href="#Degradado_sin_nombre_2"/></defs><path class="cls-1" d="M332.05,416.51a4,4,0,0,0-1.05.13l-8.56-14.82-1.54-2.66-2.79-4.86a4.29,4.29,0,1,0-7.28-4.07H285.22a4.29,4.29,0,1,0-7.17,4.19l-12.83,22.22a4,4,0,0,0-1-.13,4.29,4.29,0,1,0,0,8.57,4,4,0,0,0,1-.14L274,440.08l1.36,2.35,2.73,4.73a4.29,4.29,0,1,0,7.17,4.19h25.61a4.29,4.29,0,1,0,7.28-4.07L331,424.94a4,4,0,0,0,1.05.14,4.29,4.29,0,1,0,0-8.57ZM329,423.77l-12.87,22.29a4,4,0,0,0-1.15-.17,4.31,4.31,0,0,0-4.13,3.12H285.22a4.3,4.3,0,0,0-4.12-3.12,4.17,4.17,0,0,0-1,.13l-2.38-4.11-1.86-3.24-8.6-14.9a4.27,4.27,0,0,0,0-6l12.84-22.24a4.17,4.17,0,0,0,1,.12,4.29,4.29,0,0,0,4.12-3.12h25.61a4.3,4.3,0,0,0,4.13,3.12,4,4,0,0,0,1.15-.16l2.39,4.14,2.13,3.68L329,417.81a4.25,4.25,0,0,0,0,6Z" transform="translate(-259.88 -387.11)"/><path class="cls-2" d="M309.89,412.38c-1.3,1.1-2.6,2.2-3.91,3.28-.26.21-.5.44-.76.64a0,0,0,0,0,0,0l-2,1.71-1.47,1.23-.21.16c-.22.23-.48.41-.71.62l-.11.09c-.11.08-.11.15,0,.26a8.28,8.28,0,0,1,.52.79c.58.84,1.15,1.68,1.72,2.53.69,1,1.38,2,2.05,3.05.14.2.25.41.39.61,1.29,1.83,2.51,3.7,3.77,5.54.4.58.79,1.17,1.18,1.76l.08.12a.29.29,0,0,1-.22.09l-6.21,1.35-5,1.09-.71.14c-.34.11-.7.16-1,.24l-3.19.69-4.81,1-6.2,1.34-.41.92,1,1.8a2.51,2.51,0,0,0,2.17,1.25h24.76a2.52,2.52,0,0,0,2.17-1.25L325,422a2.53,2.53,0,0,0,0-2.5l-7.37-12.75a.62.62,0,0,0-.94-.17l-4.32,3.64Z" transform="translate(-259.88 -387.11)"/><path class="cls-3" d="M310.49,396.84H285.73a2.51,2.51,0,0,0-2.17,1.25l-12.38,21.45a2.48,2.48,0,0,0,0,2.5l7.76,13.45.92.19.95-.71c1.43-1.07,2.85-2.15,4.29-3.21l2.38-1.78,3.67-2.75,2-1.51,4.24-3.17,2.91-2.17a.68.68,0,0,0,.2-.18l-9.78-14.5c.07-.09.15-.08.21-.1l8.51-1.83,4.85-1,.15,0c.6-.16,1.2-.27,1.8-.4l6.17-1.33.84-.18a.62.62,0,0,0,.41-.92l-1-1.79A2.52,2.52,0,0,0,310.49,396.84Z" transform="translate(-259.88 -387.11)"/></svg>