<?xml version="1.0" encoding="UTF-8"?>
<svg xmlns="http://www.w3.org/2000/svg" id="Layer_1" data-name="Layer 1" viewBox="0 0 24 24" width="512" height="512"><path d="M16,12.5v.5h-1v-.5c0-.827-.673-1.5-1.5-1.5h-3c-.827,0-1.5,.673-1.5,1.5,0,.876,.627,1.612,1.493,1.751l3.173,.51c1.353,.217,2.334,1.369,2.334,2.739,0,1.378-1.122,2.5-2.5,2.5h-1v2h-1v-2h-1c-1.378,0-2.5-1.122-2.5-2.5v-.5h1v.5c0,.827,.673,1.5,1.5,1.5h3c.827,0,1.5-.673,1.5-1.5,0-.876-.627-1.612-1.493-1.751l-3.173-.51c-1.353-.217-2.334-1.369-2.334-2.739,0-1.378,1.122-2.5,2.5-2.5h1v-2h1v2h1c1.378,0,2.5,1.122,2.5,2.5Zm6.974,5.75c0,3.17-2.58,5.75-5.75,5.75H6.724c-3.17,0-5.75-2.58-5.75-5.75C.974,13.043,5.297,6.494,10.292,5.233c-1.41-.831-3.292-2.378-3.292-4.733V0h10V.5c0,2.358-1.906,3.906-3.332,4.736,4.989,1.268,9.306,7.811,9.306,13.014ZM11.975,4.962c.736-.305,3.613-1.64,3.985-3.962h-7.921c.367,2.321,3.207,3.655,3.936,3.962Zm9.999,13.288c0-5.324-4.85-12.187-9.974-12.25-5.124,.064-10.026,6.926-10.026,12.25,0,2.619,2.131,4.75,4.75,4.75h10.5c2.619,0,4.75-2.131,4.75-4.75Z"/></svg>
