<?xml version="1.0" encoding="UTF-8"?>
<!DOCTYPE svg PUBLIC "-//W3C//DTD SVG 1.1//EN" "http://www.w3.org/Graphics/SVG/1.1/DTD/svg11.dtd">
<svg xmlns="http://www.w3.org/2000/svg" version="1.1" width="15" height="15" viewBox="0 0 500 500" style="shape-rendering:geometricPrecision; text-rendering:geometricPrecision; image-rendering:optimizeQuality; fill-rule:evenodd; clip-rule:evenodd" xmlns:xlink="http://www.w3.org/1999/xlink">
<g><path style="opacity:0.975" fill="var(--sec-font-color)" d="M 94.5,-0.5 C 201.833,-0.5 309.167,-0.5 416.5,-0.5C 422.907,2.07812 427.074,6.74479 429,13.5C 429.667,21.8333 429.667,30.1667 429,38.5C 427.489,44.3649 423.989,48.5316 418.5,51C 412.593,52.3608 406.593,52.8608 400.5,52.5C 400.877,76.1919 400.377,99.8586 399,123.5C 388.6,182.224 355.434,221.724 299.5,242C 298.167,251 298.167,260 299.5,269C 355.434,289.276 388.6,328.776 399,387.5C 400.377,411.141 400.877,434.808 400.5,458.5C 406.593,458.139 412.593,458.639 418.5,460C 423.989,462.468 427.489,466.635 429,472.5C 429.667,480.833 429.667,489.167 429,497.5C 427.074,504.255 422.907,508.922 416.5,511.5C 309.167,511.5 201.833,511.5 94.5,511.5C 88.0932,508.922 83.9265,504.255 82,497.5C 81.3333,489.167 81.3333,480.833 82,472.5C 83.7361,465.763 87.9028,461.263 94.5,459C 99.8229,458.501 105.156,458.334 110.5,458.5C 110.123,434.808 110.623,411.141 112,387.5C 122.4,328.776 155.566,289.276 211.5,269C 212.833,260 212.833,251 211.5,242C 155.566,221.724 122.4,182.224 112,123.5C 110.623,99.8586 110.123,76.1919 110.5,52.5C 104.407,52.8608 98.4067,52.3608 92.5,51C 87.0109,48.5316 83.5109,44.3649 82,38.5C 81.3333,30.1667 81.3333,21.8333 82,13.5C 83.9265,6.74479 88.0932,2.07812 94.5,-0.5 Z M 97.5,12.5 C 202.834,12.3333 308.167,12.5 413.5,13C 414.701,13.9025 415.535,15.0692 416,16.5C 416.667,22.8333 416.667,29.1667 416,35.5C 415.535,36.9308 414.701,38.0975 413.5,39C 308.5,39.6667 203.5,39.6667 98.5,39C 96.6667,38.5 95.5,37.3333 95,35.5C 94.3333,29.1667 94.3333,22.8333 95,16.5C 95.6622,15.0161 96.4955,13.6828 97.5,12.5 Z M 381.5,143.5 C 371.197,144.736 360.864,145.736 350.5,146.5C 340.437,145.867 330.437,144.7 320.5,143C 295.407,135.287 270.407,127.287 245.5,119C 205.161,110.798 165.161,112.298 125.5,123.5C 124.804,119.548 124.304,115.548 124,111.5C 123.5,91.8362 123.333,72.1695 123.5,52.5C 211.5,52.5 299.5,52.5 387.5,52.5C 387.667,72.1695 387.5,91.8362 387,111.5C 386.13,122.346 384.297,133.012 381.5,143.5 Z M 375.5,157.5 C 364.063,183.442 346.063,203.608 321.5,218C 310.272,223.957 298.772,229.124 287,233.5C 285.37,247.072 285.037,260.739 286,274.5C 286.707,276.081 287.54,277.581 288.5,279C 343.332,296.184 375.832,333.017 386,389.5C 387.387,412.473 387.887,435.473 387.5,458.5C 377.833,458.5 368.167,458.5 358.5,458.5C 325.575,426.349 292.575,394.182 259.5,362C 256.833,360 254.167,360 251.5,362C 218.425,394.182 185.425,426.349 152.5,458.5C 142.833,458.5 133.167,458.5 123.5,458.5C 123.113,435.473 123.613,412.473 125,389.5C 135.168,333.017 167.668,296.184 222.5,279C 223.717,277.352 224.55,275.519 225,273.5C 225.221,268.78 225.721,264.113 226.5,259.5C 225.97,250.78 225.137,242.113 224,233.5C 198.138,225.072 175.805,211.072 157,191.5C 142.939,175.585 133.439,157.252 128.5,136.5C 168.948,124.428 209.615,123.594 250.5,134C 267.833,140 285.167,146 302.5,152C 326.468,158.392 350.802,160.225 375.5,157.5 Z M 339.5,458.5 C 283.5,458.5 227.5,458.5 171.5,458.5C 198.845,430.821 226.845,403.821 255.5,377.5C 284.155,403.821 312.155,430.821 339.5,458.5 Z M 97.5,471.5 C 202.501,471.333 307.501,471.5 412.5,472C 414.333,472.5 415.5,473.667 416,475.5C 416.667,481.833 416.667,488.167 416,494.5C 415.535,495.931 414.701,497.097 413.5,498C 308.167,498.667 202.833,498.667 97.5,498C 96.6667,497.167 95.8333,496.333 95,495.5C 94.3333,488.833 94.3333,482.167 95,475.5C 95.6622,474.016 96.4955,472.683 97.5,471.5 Z"/></g>
<g><path style="opacity:0.946" fill="#e2715a" d="M 381.5,143.5 C 380.057,148.524 378.057,153.191 375.5,157.5C 350.802,160.225 326.468,158.392 302.5,152C 285.167,146 267.833,140 250.5,134C 209.615,123.594 168.948,124.428 128.5,136.5C 126.374,132.555 125.374,128.222 125.5,123.5C 165.161,112.298 205.161,110.798 245.5,119C 270.407,127.287 295.407,135.287 320.5,143C 330.437,144.7 340.437,145.867 350.5,146.5C 360.864,145.736 371.197,144.736 381.5,143.5 Z"/></g>
<g><path style="opacity:0.937" fill="#e27259" d="M 252.5,244.5 C 257.033,244.177 259.866,246.177 261,250.5C 261.818,256.902 261.484,263.235 260,269.5C 256.891,272.74 253.558,273.074 250,270.5C 247.015,262.984 246.682,255.317 249,247.5C 250.145,246.364 251.312,245.364 252.5,244.5 Z"/></g>
<g><path style="opacity:0.926" fill="#e27159" d="M 251.5,286.5 C 256.27,285.465 259.436,287.131 261,291.5C 261.667,296.833 261.667,302.167 261,307.5C 259.905,312.8 256.738,314.633 251.5,313C 249.232,311.442 248.066,309.276 248,306.5C 247.337,300.452 247.67,294.452 249,288.5C 249.995,287.934 250.828,287.267 251.5,286.5 Z"/></g>
<g><path style="opacity:0.937" fill="#e27159" d="M 252.5,327.5 C 257.033,327.177 259.866,329.177 261,333.5C 261.818,339.902 261.484,346.235 260,352.5C 256.333,356.5 252.667,356.5 249,352.5C 247.059,345.174 247.059,337.84 249,330.5C 250.145,329.364 251.312,328.364 252.5,327.5 Z"/></g>
<g><path style="opacity:0.947" fill="#e27159" d="M 358.5,458.5 C 352.167,458.5 345.833,458.5 339.5,458.5C 312.155,430.821 284.155,403.821 255.5,377.5C 226.845,403.821 198.845,430.821 171.5,458.5C 165.167,458.5 158.833,458.5 152.5,458.5C 185.425,426.349 218.425,394.182 251.5,362C 254.167,360 256.833,360 259.5,362C 292.575,394.182 325.575,426.349 358.5,458.5 Z M 339.5,458.5 C 283.5,458.5 227.5,458.5 171.5,458.5C 198.845,430.821 226.845,403.821 255.5,377.5C 284.155,403.821 312.155,430.821 339.5,458.5 Z"/></g>
</svg>
