<svg xmlns="http://www.w3.org/2000/svg" id="Layer_1" data-name="Layer 1" viewBox="0 0 24 24">
  <path d="m24,12c0,.552-.448,1-1,1H1c-.552,0-1-.448-1-1s.448-1,1-1h22c.552,0,1,.448,1,1ZM7,22h-2c-1.654,0-3-1.346-3-3v-2c0-.552-.448-1-1-1s-1,.448-1,1v2c0,2.757,2.243,5,5,5h2c.552,0,1-.448,1-1s-.448-1-1-1Zm16-6c-.552,0-1,.448-1,1v2c0,1.654-1.346,3-3,3h-2c-.552,0-1,.448-1,1s.448,1,1,1h2c2.757,0,5-2.243,5-5v-2c0-.552-.448-1-1-1ZM19,0h-2c-.552,0-1,.448-1,1s.448,1,1,1h2c1.654,0,3,1.346,3,3v2c0,.552.448,1,1,1s1-.448,1-1v-2c0-2.757-2.243-5-5-5ZM1,8c.552,0,1-.448,1-1v-2c0-1.654,1.346-3,3-3h2c.552,0,1-.448,1-1s-.448-1-1-1h-2C2.243,0,0,2.243,0,5v2c0,.552.448,1,1,1Z"/>
</svg>
