<?xml version="1.0" standalone="no"?>
<!DOCTYPE svg PUBLIC "-//W3C//DTD SVG 20010904//EN"
 "http://www.w3.org/TR/2001/REC-SVG-20010904/DTD/svg10.dtd">
<svg version="1.0" xmlns="http://www.w3.org/2000/svg"
 width="512.000000pt" height="512.000000pt" viewBox="0 0 512.000000 512.000000"
 preserveAspectRatio="xMidYMid meet">

<g transform="translate(0.000000,512.000000) scale(0.100000,-0.100000)"
fill="currentColor" stroke="none">
<path d="M1746 4449 c-133 -22 -277 -135 -338 -265 -39 -84 -50 -217 -24 -306
9 -30 131 -331 271 -668 181 -434 255 -623 255 -650 0 -27 -74 -216 -255 -650
-140 -337 -262 -637 -271 -668 -12 -39 -15 -82 -12 -147 3 -82 8 -101 41 -167
68 -138 203 -237 355 -260 54 -9 83 -8 146 5 73 15 178 70 1450 757 754 408
1391 758 1416 779 210 176 215 511 10 694 -33 29 -467 269 -1422 785 -1187
641 -1384 744 -1444 757 -76 16 -104 17 -178 4z m194 -318 c34 -18 641 -345
1348 -727 882 -476 1297 -706 1319 -729 42 -44 57 -101 43 -156 -6 -22 -26
-56 -43 -74 -37 -39 -2674 -1469 -2744 -1487 -114 -31 -234 86 -204 200 6 20
125 312 264 647 l254 610 471 5 470 5 27 25 c73 68 73 152 0 220 l-27 25 -470
5 -471 5 -260 625 c-287 689 -285 682 -235 758 35 52 99 85 155 79 23 -3 70
-19 103 -36z"/>
<path d="M276 2970 c-58 -18 -96 -73 -96 -140 0 -53 23 -93 70 -119 37 -21 48
-21 601 -21 644 0 615 -4 658 83 17 35 22 56 17 82 -9 47 -59 102 -104 115
-45 12 -1104 12 -1146 0z"/>
<path d="M703 2410 c-68 -41 -88 -112 -54 -184 17 -33 33 -50 65 -65 40 -20
60 -21 357 -21 182 0 329 4 351 10 45 13 95 68 104 115 9 50 -29 124 -76 147
-31 16 -71 18 -375 18 -319 0 -342 -1 -372 -20z"/>
</g>
</svg>
