<?xml version="1.0" encoding="UTF-8"?>
<svg version="1.1" xmlns="http://www.w3.org/2000/svg" width="512" height="512">
<path stroke="#FBC538" d="M0 0 C4.22367701 0.00913286 8.44729031 -0.00495962 12.67095423 -0.01591969 C20.92346615 -0.03362248 29.17583181 -0.0299019 37.42834926 -0.01826912 C44.14071977 -0.00920243 50.85304955 -0.00802473 57.56542444 -0.01236439 C58.52403854 -0.01297732 59.48265263 -0.01359025 60.47031564 -0.01422176 C62.41826814 -0.01550077 64.36622063 -0.01679763 66.3141731 -0.01811212 C84.54164526 -0.02949378 102.76903669 -0.01644221 120.9964956 0.00508934 C136.60598892 0.02295812 152.21536321 0.01985333 167.82485437 0.0014143 C185.99110638 -0.02003519 204.1572878 -0.02839537 222.3235507 -0.01613665 C224.26397752 -0.01486257 226.20440434 -0.01360508 228.14483118 -0.01236439 C229.57658639 -0.01143873 229.57658639 -0.01143873 231.03726596 -0.01049438 C237.73457639 -0.0070537 244.4318417 -0.01284206 251.12914515 -0.0222826 C259.30095909 -0.03354941 267.47261953 -0.03036477 275.64441609 -0.00915962 C279.80662378 0.0012882 283.96857637 0.00558096 288.13078165 -0.00775623 C320.24228366 -0.10219022 320.24228366 -0.10219022 333.85512781 4.52289867 C334.70660898 4.80838825 335.55809015 5.09387783 336.43537378 5.38801861 C360.44725588 14.26344225 379.06992061 32.20049644 390.55044031 54.87055492 C399.32852354 74.08088279 399.4443546 92.96842907 399.37802649 113.66777086 C399.36889363 117.89144788 399.38298611 122.11506117 399.39394617 126.33872509 C399.41164897 134.59123701 399.40792839 142.84360268 399.39629561 151.09612012 C399.38722892 157.80849063 399.38605121 164.52082041 399.39039087 171.2331953 C399.39100381 172.1918094 399.39161674 173.15042349 399.39224824 174.1380865 C399.39352726 176.086039 399.39482412 178.03399149 399.39613861 179.98194396 C399.40752027 198.20941612 399.3944687 216.43680755 399.37293714 234.66426647 C399.35506837 250.27375978 399.35817316 265.88313407 399.37661219 281.49262524 C399.39806167 299.65887724 399.40642186 317.82505866 399.39416313 335.99132156 C399.39288906 337.93174838 399.39163157 339.87217521 399.39039087 341.81260204 C399.38977377 342.76710552 399.38915667 343.721609 399.38852087 344.70503682 C399.38508018 351.40234725 399.39086854 358.09961257 399.40030909 364.79691601 C399.41157589 372.96872996 399.40839126 381.14039039 399.38718611 389.31218696 C399.37673828 393.47439465 399.37244552 397.63634723 399.38578272 401.79855251 C399.48013544 433.87995366 399.48013544 433.87995366 394.85512781 447.52289867 C394.43481665 448.79219723 394.43481665 448.79219723 394.00601435 450.08713818 C385.29948907 474.00131829 366.99284711 492.84225328 344.51137781 504.21430492 C325.30503616 513.00252777 306.40852128 513.11212201 285.71025562 513.04579735 C281.48657861 513.03666449 277.26296531 513.05075697 273.0393014 513.06171703 C264.78678947 513.07941983 256.53442381 513.07569925 248.28190637 513.06406647 C241.56953585 513.05499978 234.85720607 513.05382208 228.14483118 513.05816174 C227.18621709 513.05877467 226.22760299 513.0593876 225.23993999 513.06001911 C223.29198749 513.06129812 221.344035 513.06259498 219.39608252 513.06390947 C201.16861036 513.07529113 182.94121893 513.06223956 164.71376002 513.04070801 C149.1042667 513.02283923 133.49489242 513.02594402 117.88540125 513.04438305 C99.71914924 513.06583253 81.55296783 513.07419272 63.38670492 513.06193399 C61.44627811 513.06065992 59.50585128 513.05940243 57.56542444 513.05816174 C56.61092097 513.05754463 55.65641749 513.05692753 54.67298967 513.05629173 C47.97567924 513.05285104 41.27841392 513.0586394 34.58111048 513.06807995 C26.40929653 513.07934676 18.23763609 513.07616212 10.06583953 513.05495697 C5.90363184 513.04450915 1.74167926 513.04021638 -2.42052603 513.05355358 C-34.50192718 513.1479063 -34.50192718 513.1479063 -48.14487219 508.52289867 C-49.41417074 508.10258751 -49.41417074 508.10258751 -50.70911169 507.67378521 C-74.62329181 498.96725993 -93.46422679 480.66061798 -104.83627844 458.17914867 C-113.62450128 438.97280702 -113.73409553 420.07629215 -113.66777086 399.37802649 C-113.658638 395.15434947 -113.67273048 390.93073617 -113.68369055 386.70707226 C-113.70139335 378.45456034 -113.69767276 370.20219467 -113.68603998 361.94967723 C-113.67697329 355.23730672 -113.67579559 348.52497693 -113.68013525 341.81260204 C-113.68074818 340.85398795 -113.68136111 339.89537386 -113.68199262 338.90771085 C-113.68327164 336.95975835 -113.68456849 335.01180586 -113.68588299 333.06385338 C-113.69726465 314.83638123 -113.68421308 296.60898979 -113.66268152 278.38153088 C-113.64481275 262.77203757 -113.64791753 247.16266328 -113.66635656 231.55317211 C-113.68780605 213.38692011 -113.69616623 195.22073869 -113.68390751 177.05447578 C-113.68263343 175.11404897 -113.68137595 173.17362214 -113.68013525 171.2331953 C-113.67951815 170.27869183 -113.67890105 169.32418835 -113.67826524 168.34076053 C-113.67482456 161.6434501 -113.68061292 154.94618478 -113.69005346 148.24888134 C-113.70132027 140.07706739 -113.69813563 131.90540696 -113.67693049 123.73361039 C-113.66648266 119.5714027 -113.6621899 115.40945012 -113.6755271 111.24724483 C-113.76987981 79.16584368 -113.76987981 79.16584368 -109.14487219 65.52289867 C-108.86466475 64.67669964 -108.5844573 63.8305006 -108.29575872 62.95865917 C-99.58923345 39.04447906 -81.28259149 20.20354407 -58.80112219 8.83149242 C-39.59478054 0.04326958 -20.69826566 -0.06632466 0 0 Z " fill="#FBC538" fill-opacity="0.2" transform="translate(113.14487218856812,-0.5228986740112305)"/>
<path stroke="#FBC538" d="M0 0 C0.88126556 -0.0127597 1.76253113 -0.02551941 2.67050171 -0.03866577 C3.61535431 -0.04089142 4.56020691 -0.04311707 5.53369141 -0.04541016 C6.5126236 -0.05206696 7.49155579 -0.05872375 8.50015259 -0.06558228 C10.56958133 -0.07569997 12.63904264 -0.08039957 14.70849609 -0.08007812 C17.86692359 -0.0844473 21.02394894 -0.12076566 24.18212891 -0.15869141 C26.19514497 -0.16456061 28.20816766 -0.16852931 30.22119141 -0.17041016 C31.63239761 -0.19196671 31.63239761 -0.19196671 33.07211304 -0.21395874 C38.71041573 -0.17487006 42.14890343 0.36539361 46.51025391 4.29052734 C49.83092158 8.56520271 51.00937363 11.30328943 50.99127197 16.70663452 C50.99677063 17.97700562 51.00226929 19.24737671 51.00793457 20.5562439 C50.99378075 21.95123674 50.97924155 23.34622572 50.96435547 24.74121094 C50.96322637 26.21990935 50.96386207 27.69861001 50.96612549 29.17730713 C50.96727115 33.181154 50.94378612 37.18451961 50.91582966 41.18825483 C50.89079123 45.37626156 50.88847209 49.56427983 50.88372803 53.75234985 C50.8713054 61.67834969 50.83849352 69.60412833 50.79833007 77.53003085 C50.7535901 86.55535998 50.73161973 95.58069979 50.71154833 104.60611224 C50.66976015 123.16773476 50.59641679 141.72905411 50.51025391 160.29052734 C29.39025391 160.29052734 8.27025391 160.29052734 -13.48974609 160.29052734 C-13.60262592 140.57580578 -13.69472588 120.86134596 -13.74880695 101.14638329 C-13.77458547 91.99232792 -13.8097292 82.83848763 -13.86694336 73.68457031 C-13.9167892 65.70573458 -13.94903967 57.72705461 -13.96018857 49.7480675 C-13.96670538 45.52341149 -13.98201398 41.2992011 -14.01839638 37.07468796 C-14.0523748 33.09702388 -14.06279553 29.11998827 -14.0552845 25.14219284 C-14.05665825 23.6837014 -14.06658044 22.22518861 -14.08577347 20.76682281 C-14.24081344 8.37682638 -14.24081344 8.37682638 -11.20426941 4.50088501 C-7.34617196 1.35934807 -4.98207203 0.04917053 0 0 Z " fill="#FFD201" transform="translate(152.48974609375,159.70947265625)"/>
<path stroke="#FBC538" d="M0 0 C0.92130707 -0.01268417 1.84261414 -0.02536835 2.7918396 -0.03843689 C3.78043976 -0.03550125 4.76903992 -0.03256561 5.78759766 -0.02954102 C6.81092194 -0.03478287 7.83424622 -0.04002472 8.88858032 -0.04542542 C11.05217584 -0.05184537 13.21580626 -0.05050899 15.37939453 -0.04199219 C18.68276507 -0.03349586 21.98439854 -0.06222314 25.28759766 -0.09399414 C27.39176381 -0.09560664 29.49593301 -0.09502768 31.60009766 -0.09204102 C33.0769252 -0.10889198 33.0769252 -0.10889198 34.58358765 -0.12608337 C40.30899407 -0.06818223 43.90262982 0.39410477 48.32666016 4.40405273 C52.23639707 9.15368715 51.73086618 14.03411322 51.66723633 19.88574219 C51.66789345 21.46691582 51.66789345 21.46691582 51.66856384 23.08003235 C51.66647619 26.55932222 51.64314557 30.03812843 51.61962891 33.51733398 C51.61403289 35.93157183 51.60976282 38.34581308 51.60676575 40.76005554 C51.59531754 47.11082381 51.56585024 53.46138589 51.53265381 59.81207275 C51.49655369 67.43372588 51.48279169 75.05544799 51.46529388 82.67716217 C51.43621323 94.25293572 51.3787252 105.82825693 51.32666016 117.40405273 C30.20666016 117.40405273 9.08666016 117.40405273 -12.67333984 117.40405273 C-12.83377508 90.69158572 -12.83377508 90.69158572 -12.86865234 79.30639648 C-12.89256502 71.53724239 -12.92085606 63.76827684 -12.97509766 55.99926758 C-13.01855418 49.73581501 -13.04247693 43.47256462 -13.05284882 37.20897293 C-13.06024044 34.81914716 -13.07467445 32.42933246 -13.09626007 30.03959274 C-13.12529048 26.69257429 -13.12929586 23.34639165 -13.12744141 19.99926758 C-13.14182251 19.01095947 -13.15620361 18.02265137 -13.17102051 17.00439453 C-13.13679027 11.29603293 -12.59787522 7.86504586 -8.67333984 3.40405273 C-5.79856007 0.68809673 -3.92574221 0.02625186 0 0 Z " fill="#FFD200" transform="translate(236.67333984375,202.595947265625)"/>
<path stroke="#FBC538" d="M0 0 C0.95153458 -0.0038269 1.90306915 -0.00765381 2.88343811 -0.01159668 C4.88966941 -0.0143106 6.89593641 -0.00698596 8.90209961 0.00976562 C11.95963134 0.03115887 15.01480711 0.00995837 18.07226562 -0.015625 C20.0273489 -0.01298117 21.98243072 -0.00785505 23.9375 0 C25.29874245 -0.01214539 25.29874245 -0.01214539 26.68748474 -0.02453613 C32.63351673 0.06253681 36.22679129 0.94542883 41.03515625 4.53125 C43.97921147 8.46018139 44.40360969 11.29753283 44.37573242 16.1574707 C44.37638954 17.12416939 44.37638954 17.12416939 44.37705994 18.11039734 C44.37498115 20.22625746 44.35169494 22.34131072 44.328125 24.45703125 C44.32252577 25.92961698 44.31825721 27.40220831 44.31526184 28.87480164 C44.30383873 32.73991479 44.27439381 36.60468668 44.2411499 40.46966553 C44.20498123 45.11274413 44.19127576 49.75593719 44.17378998 54.39911652 C44.14475447 61.44339794 44.08725064 68.48693142 44.03515625 75.53125 C22.91515625 75.53125 1.79515625 75.53125 -19.96484375 75.53125 C-20.12527899 59.55011775 -20.12527899 59.55011775 -20.16015625 52.71875 C-20.1840341 48.06394123 -20.21222952 43.40944829 -20.26660156 38.75488281 C-20.31017994 35.00066805 -20.33400594 31.24679214 -20.34435272 27.4923439 C-20.35172273 26.06263014 -20.36611489 24.63293417 -20.38776398 23.20336533 C-20.41695135 21.19549519 -20.41847895 19.18728143 -20.41894531 17.17919922 C-20.42782776 16.03780487 -20.43671021 14.89641052 -20.44586182 13.72042847 C-19.67833432 8.63167541 -17.10923249 5.55132033 -13.33764648 2.18945312 C-8.78725712 -0.04769813 -5.00617133 -0.04456705 0 0 Z " fill="#FFD201" transform="translate(328.96484375,244.46875)"/>
<path stroke="#FBC538" d="M0 0 C1.00121462 -0.00638882 2.00242925 -0.01277764 3.03398371 -0.01936007 C6.39297471 -0.03463534 9.75079105 -0.01413097 13.10974121 0.00622559 C15.51613252 0.00272517 17.92252152 -0.00293249 20.3289032 -0.0105896 C26.18880369 -0.02337612 32.04838899 -0.01288464 37.90823877 0.00852364 C44.73239629 0.03253941 51.55647449 0.03081892 58.38066489 0.02821773 C70.55686776 0.02452769 82.7329074 0.04535179 94.90905762 0.07946777 C106.72387823 0.11255907 118.53852753 0.12672606 130.35339355 0.1204834 C143.21931008 0.11371883 156.08515484 0.1161815 168.95106077 0.1358428 C169.97165748 0.13740203 169.97165748 0.13740203 171.01287231 0.13899276 C172.37940866 0.14108365 173.74594498 0.14319462 175.11248127 0.14532593 C179.86912707 0.15222056 184.62575076 0.152891 189.38240051 0.15144348 C195.78460503 0.14985316 202.18664739 0.16475279 208.58880043 0.19067001 C210.94102801 0.19784309 213.29327741 0.19990998 215.64551353 0.19655228 C218.85138343 0.19284841 222.0566507 0.20754761 225.26245117 0.22705078 C226.1977587 0.22172286 227.13306623 0.21639493 228.0967164 0.21090555 C232.90730671 0.26154788 236.25424829 0.43262648 240.13122559 3.62145996 C241.53580296 6.4306147 241.38017716 8.5095653 241.13122559 11.62145996 C239.35138154 14.75737566 238.60814352 15.46248732 235.13122559 16.62145996 C233.73881001 16.71312992 232.34242745 16.75054018 230.94699955 16.75288773 C230.09006128 16.75672887 229.23312302 16.76057002 228.35021693 16.76452756 C227.4084016 16.76366108 226.46658627 16.76279459 225.49623108 16.76190186 C224.49601974 16.76487298 223.4958084 16.7678441 222.46528763 16.77090526 C219.09814725 16.77960918 215.73104235 16.78110192 212.3638916 16.78259277 C209.95617598 16.78721967 207.5484611 16.79224415 205.14074707 16.79763794 C198.58921303 16.81077444 192.03768639 16.81724558 185.4861424 16.8216486 C181.39667903 16.82441058 177.30721804 16.82864779 173.21775627 16.83315277 C161.89849909 16.84534427 150.57924381 16.85564452 139.2599802 16.85902786 C138.17330048 16.85935721 138.17330048 16.85935721 137.06466764 16.85969321 C136.33847152 16.85991149 135.6122754 16.86012977 134.86407334 16.86035466 C133.39249583 16.86079813 131.92091832 16.86124469 130.44934082 16.86169434 C129.71938595 16.86191577 128.98943107 16.8621372 128.23735636 16.86236534 C116.40324424 16.86631535 104.56919363 16.88377609 92.73510528 16.90705386 C80.58961525 16.9307517 68.44415611 16.94322896 56.29864258 16.94439578 C49.47754468 16.94531331 42.65652697 16.95108537 35.83545113 16.96921539 C29.42264595 16.98620012 23.00995253 16.98788078 16.59712982 16.97907639 C14.23963196 16.97830285 11.8821261 16.98269011 9.52464867 16.99253464 C6.31398277 17.00515892 3.10386503 16.99942922 -0.10679626 16.98895264 C-1.04638087 16.99700904 -1.98596548 17.00506545 -2.95402235 17.01336598 C-9.24285429 16.96515167 -9.24285429 16.96515167 -12.42982578 15.21519089 C-14.11072461 13.35348409 -14.58931858 12.22202757 -14.93127441 9.74645996 C-15.04600098 9.08903809 -15.16072754 8.43161621 -15.27893066 7.75427246 C-13.74236453 -0.23587143 -6.48494182 -0.08679233 0 0 Z " fill="#FFE777" transform="translate(142.8687744140625,335.3785400390625)"/>
</svg>
