<svg width="1600" height="959" viewBox="0 0 1600 959" fill="none" xmlns="http://www.w3.org/2000/svg">
<ellipse cx="9.11251" cy="0.560165" rx="0.528286" ry="0.560165" fill="white"/>
<ellipse cx="88.3559" cy="0.560165" rx="0.528289" ry="0.560165" fill="white"/>
<ellipse cx="167.599" cy="0.560165" rx="0.528289" ry="0.560165" fill="white"/>
<ellipse cx="246.843" cy="0.560165" rx="0.528281" ry="0.560165" fill="white"/>
<ellipse cx="326.086" cy="0.560165" rx="0.528289" ry="0.560165" fill="white"/>
<ellipse cx="405.329" cy="0.560165" rx="0.528289" ry="0.560165" fill="white"/>
<ellipse cx="484.573" cy="0.560165" rx="0.52823" ry="0.560165" fill="white"/>
<ellipse cx="563.816" cy="0.560165" rx="0.528274" ry="0.560165" fill="white"/>
<ellipse cx="643.06" cy="0.560165" rx="0.528303" ry="0.560165" fill="white"/>
<ellipse cx="722.303" cy="0.560165" rx="0.528303" ry="0.560165" fill="white"/>
<ellipse cx="46.0927" cy="56.5764" rx="0.528289" ry="0.560165" fill="white"/>
<ellipse cx="125.336" cy="56.5764" rx="0.528299" ry="0.560165" fill="white"/>
<ellipse cx="204.58" cy="56.5764" rx="0.528289" ry="0.560165" fill="white"/>
<ellipse cx="283.823" cy="56.5764" rx="0.528274" ry="0.560165" fill="white"/>
<ellipse cx="363.066" cy="56.5764" rx="0.528303" ry="0.560165" fill="white"/>
<ellipse cx="442.31" cy="56.5764" rx="0.528289" ry="0.560165" fill="white"/>
<ellipse cx="521.553" cy="56.5764" rx="0.528303" ry="0.560165" fill="white"/>
<ellipse cx="600.796" cy="56.5764" rx="0.528274" ry="0.560165" fill="white"/>
<ellipse cx="680.04" cy="56.5764" rx="0.528303" ry="0.560165" fill="white"/>
<ellipse cx="759.283" cy="56.5764" rx="0.528303" ry="0.560165" fill="white"/>
<ellipse cx="30.244" cy="112.593" rx="0.528289" ry="0.560165" fill="white"/>
<ellipse cx="109.487" cy="112.593" rx="0.528289" ry="0.560165" fill="white"/>
<ellipse cx="188.731" cy="112.593" rx="0.528289" ry="0.560165" fill="white"/>
<ellipse cx="267.974" cy="112.593" rx="0.528303" ry="0.560165" fill="white"/>
<ellipse cx="347.218" cy="112.593" rx="0.528289" ry="0.560165" fill="white"/>
<ellipse cx="426.461" cy="112.593" rx="0.528289" ry="0.560165" fill="white"/>
<ellipse cx="505.704" cy="112.593" rx="0.528274" ry="0.560165" fill="white"/>
<ellipse cx="584.948" cy="112.593" rx="0.528303" ry="0.560165" fill="white"/>
<ellipse cx="664.191" cy="112.593" rx="0.528303" ry="0.560165" fill="white"/>
<ellipse cx="743.435" cy="112.593" rx="0.528274" ry="0.560165" fill="white"/>
<ellipse cx="46.0927" cy="168.609" rx="0.528289" ry="0.560165" fill="white"/>
<ellipse cx="125.336" cy="168.609" rx="0.528299" ry="0.560165" fill="white"/>
<ellipse cx="204.58" cy="168.609" rx="0.528289" ry="0.560165" fill="white"/>
<ellipse cx="283.823" cy="168.609" rx="0.528274" ry="0.560165" fill="white"/>
<ellipse cx="363.066" cy="168.609" rx="0.528303" ry="0.560165" fill="white"/>
<ellipse cx="442.31" cy="168.609" rx="0.528289" ry="0.560165" fill="white"/>
<ellipse cx="521.553" cy="168.609" rx="0.528303" ry="0.560165" fill="white"/>
<ellipse cx="600.796" cy="168.609" rx="0.528274" ry="0.560165" fill="white"/>
<ellipse cx="680.04" cy="168.609" rx="0.528303" ry="0.560165" fill="white"/>
<ellipse cx="759.283" cy="168.609" rx="0.528303" ry="0.560165" fill="white"/>
<ellipse cx="19.6782" cy="225.746" rx="0.528287" ry="0.560165" fill="white"/>
<ellipse cx="98.9216" cy="225.746" rx="0.528289" ry="0.560165" fill="white"/>
<ellipse cx="178.165" cy="225.746" rx="0.528281" ry="0.560165" fill="white"/>
<ellipse cx="257.408" cy="225.746" rx="0.52831" ry="0.560165" fill="white"/>
<ellipse cx="336.652" cy="225.746" rx="0.528289" ry="0.560165" fill="white"/>
<ellipse cx="415.895" cy="225.746" rx="0.528289" ry="0.560165" fill="white"/>
<ellipse cx="495.139" cy="225.746" rx="0.528332" ry="0.560165" fill="white"/>
<ellipse cx="574.382" cy="225.746" rx="0.528274" ry="0.560165" fill="white"/>
<ellipse cx="653.625" cy="225.746" rx="0.528303" ry="0.560165" fill="white"/>
<ellipse cx="732.869" cy="225.746" rx="0.528274" ry="0.560165" fill="white"/>
<ellipse cx="51.3756" cy="281.762" rx="0.528287" ry="0.560165" fill="white"/>
<ellipse cx="130.619" cy="281.762" rx="0.528289" ry="0.560165" fill="white"/>
<ellipse cx="209.862" cy="281.762" rx="0.52831" ry="0.560165" fill="white"/>
<ellipse cx="289.106" cy="281.762" rx="0.528289" ry="0.560165" fill="white"/>
<ellipse cx="368.349" cy="281.762" rx="0.528289" ry="0.560165" fill="white"/>
<ellipse cx="447.593" cy="281.762" rx="0.528332" ry="0.560165" fill="white"/>
<ellipse cx="526.836" cy="281.762" rx="0.528216" ry="0.560165" fill="white"/>
<ellipse cx="606.079" cy="281.762" rx="0.528303" ry="0.560165" fill="white"/>
<ellipse cx="685.323" cy="281.762" rx="0.528274" ry="0.560165" fill="white"/>
<ellipse cx="40.8098" cy="337.778" rx="0.528287" ry="0.560165" fill="white"/>
<ellipse cx="120.053" cy="337.778" rx="0.528274" ry="0.560165" fill="white"/>
<ellipse cx="199.297" cy="337.778" rx="0.528289" ry="0.560165" fill="white"/>
<ellipse cx="278.54" cy="337.778" rx="0.528318" ry="0.560165" fill="white"/>
<ellipse cx="357.783" cy="337.778" rx="0.528289" ry="0.560165" fill="white"/>
<ellipse cx="437.027" cy="337.778" rx="0.52823" ry="0.560165" fill="white"/>
<ellipse cx="516.27" cy="337.778" rx="0.528332" ry="0.560165" fill="white"/>
<ellipse cx="595.514" cy="337.778" rx="0.528303" ry="0.560165" fill="white"/>
<ellipse cx="674.757" cy="337.778" rx="0.528303" ry="0.560165" fill="white"/>
<ellipse cx="754" cy="337.778" rx="0.528274" ry="0.560165" fill="white"/>
<ellipse cx="72.5072" cy="393.795" rx="0.528292" ry="0.56015" fill="white"/>
<ellipse cx="151.751" cy="393.795" rx="0.528289" ry="0.56015" fill="white"/>
<ellipse cx="230.994" cy="393.795" rx="0.52831" ry="0.56015" fill="white"/>
<ellipse cx="310.237" cy="393.795" rx="0.528289" ry="0.56015" fill="white"/>
<ellipse cx="389.481" cy="393.795" rx="0.528274" ry="0.56015" fill="white"/>
<ellipse cx="468.724" cy="393.795" rx="0.528332" ry="0.56015" fill="white"/>
<ellipse cx="547.968" cy="393.795" rx="0.528303" ry="0.56015" fill="white"/>
<ellipse cx="627.211" cy="393.795" rx="0.528303" ry="0.56015" fill="white"/>
<ellipse cx="706.454" cy="393.795" rx="0.528274" ry="0.56015" fill="white"/>
<ellipse cx="785.698" cy="393.795" rx="0.528477" ry="0.56015" fill="white"/>
<ellipse cx="30.244" cy="449.811" rx="0.528289" ry="0.56015" fill="white"/>
<ellipse cx="109.487" cy="449.811" rx="0.528289" ry="0.56015" fill="white"/>
<ellipse cx="188.731" cy="449.811" rx="0.528289" ry="0.56015" fill="white"/>
<ellipse cx="267.974" cy="449.811" rx="0.528303" ry="0.56015" fill="white"/>
<ellipse cx="347.218" cy="449.811" rx="0.528289" ry="0.56015" fill="white"/>
<ellipse cx="426.461" cy="449.811" rx="0.528289" ry="0.56015" fill="white"/>
<ellipse cx="505.704" cy="449.811" rx="0.528274" ry="0.56015" fill="white"/>
<ellipse cx="584.948" cy="449.811" rx="0.528303" ry="0.56015" fill="white"/>
<ellipse cx="664.191" cy="449.811" rx="0.528303" ry="0.56015" fill="white"/>
<ellipse cx="743.435" cy="449.811" rx="0.528274" ry="0.56015" fill="white"/>
<ellipse cx="46.0927" cy="505.827" rx="0.528289" ry="0.56015" fill="white"/>
<ellipse cx="125.336" cy="505.827" rx="0.528299" ry="0.56015" fill="white"/>
<ellipse cx="204.58" cy="505.827" rx="0.528289" ry="0.56015" fill="white"/>
<ellipse cx="283.823" cy="505.827" rx="0.528274" ry="0.56015" fill="white"/>
<ellipse cx="363.066" cy="505.827" rx="0.528303" ry="0.56015" fill="white"/>
<ellipse cx="442.31" cy="505.827" rx="0.528289" ry="0.56015" fill="white"/>
<ellipse cx="521.553" cy="505.827" rx="0.528303" ry="0.56015" fill="white"/>
<ellipse cx="600.796" cy="505.827" rx="0.528274" ry="0.56015" fill="white"/>
<ellipse cx="680.04" cy="505.827" rx="0.528303" ry="0.56015" fill="white"/>
<ellipse cx="759.283" cy="505.827" rx="0.528303" ry="0.56015" fill="white"/>
<ellipse cx="83.073" cy="567.445" rx="0.528285" ry="0.56015" fill="white"/>
<ellipse cx="162.316" cy="567.445" rx="0.528289" ry="0.56015" fill="white"/>
<ellipse cx="241.56" cy="567.445" rx="0.528281" ry="0.56015" fill="white"/>
<ellipse cx="320.803" cy="567.445" rx="0.528289" ry="0.56015" fill="white"/>
<ellipse cx="400.047" cy="567.445" rx="0.528332" ry="0.56015" fill="white"/>
<ellipse cx="479.29" cy="567.445" rx="0.52823" ry="0.56015" fill="white"/>
<ellipse cx="558.533" cy="567.445" rx="0.528303" ry="0.56015" fill="white"/>
<ellipse cx="637.777" cy="567.445" rx="0.528274" ry="0.56015" fill="white"/>
<ellipse cx="717.02" cy="567.445" rx="0.528274" ry="0.56015" fill="white"/>
<ellipse cx="796.264" cy="567.445" rx="0.528303" ry="0.56015" fill="white"/>
<ellipse cx="51.3756" cy="629.063" rx="0.528287" ry="0.560181" fill="white"/>
<ellipse cx="130.619" cy="629.063" rx="0.528289" ry="0.560181" fill="white"/>
<ellipse cx="209.862" cy="629.063" rx="0.52831" ry="0.560181" fill="white"/>
<ellipse cx="289.106" cy="629.063" rx="0.528289" ry="0.560181" fill="white"/>
<ellipse cx="368.349" cy="629.063" rx="0.528289" ry="0.560181" fill="white"/>
<ellipse cx="447.593" cy="629.063" rx="0.528332" ry="0.560181" fill="white"/>
<ellipse cx="526.836" cy="629.063" rx="0.528216" ry="0.560181" fill="white"/>
<ellipse cx="606.079" cy="629.063" rx="0.528303" ry="0.560181" fill="white"/>
<ellipse cx="685.323" cy="629.063" rx="0.528274" ry="0.560181" fill="white"/>
<ellipse cx="764.566" cy="629.063" rx="0.528274" ry="0.560181" fill="white"/>
<ellipse cx="93.6387" cy="689.561" rx="0.528285" ry="0.560181" fill="white"/>
<ellipse cx="172.882" cy="689.561" rx="0.528281" ry="0.560181" fill="white"/>
<ellipse cx="252.125" cy="689.561" rx="0.52831" ry="0.560181" fill="white"/>
<ellipse cx="331.369" cy="689.561" rx="0.528274" ry="0.560181" fill="white"/>
<ellipse cx="410.612" cy="689.561" rx="0.528274" ry="0.560181" fill="white"/>
<ellipse cx="489.856" cy="689.561" rx="0.528289" ry="0.560181" fill="white"/>
<ellipse cx="569.099" cy="689.561" rx="0.528303" ry="0.560181" fill="white"/>
<ellipse cx="648.342" cy="689.561" rx="0.528274" ry="0.560181" fill="white"/>
<ellipse cx="727.586" cy="689.561" rx="0.528303" ry="0.560181" fill="white"/>
<ellipse cx="61.9414" cy="751.179" rx="0.528287" ry="0.560181" fill="white"/>
<ellipse cx="141.185" cy="751.179" rx="0.528289" ry="0.560181" fill="white"/>
<ellipse cx="220.428" cy="751.179" rx="0.528296" ry="0.560181" fill="white"/>
<ellipse cx="299.672" cy="751.179" rx="0.528289" ry="0.560181" fill="white"/>
<ellipse cx="378.915" cy="751.179" rx="0.528274" ry="0.560181" fill="white"/>
<ellipse cx="458.158" cy="751.179" rx="0.528274" ry="0.560181" fill="white"/>
<ellipse cx="537.402" cy="751.179" rx="0.528303" ry="0.560181" fill="white"/>
<ellipse cx="616.645" cy="751.179" rx="0.528303" ry="0.560181" fill="white"/>
<ellipse cx="695.888" cy="751.179" rx="0.528274" ry="0.560181" fill="white"/>
<ellipse cx="775.132" cy="751.179" rx="0.528303" ry="0.560181" fill="white"/>
<ellipse cx="30.244" cy="812.797" rx="0.528289" ry="0.56015" fill="white"/>
<ellipse cx="109.487" cy="812.797" rx="0.528289" ry="0.56015" fill="white"/>
<ellipse cx="188.731" cy="812.797" rx="0.528289" ry="0.56015" fill="white"/>
<ellipse cx="267.974" cy="812.797" rx="0.528303" ry="0.56015" fill="white"/>
<ellipse cx="347.218" cy="812.797" rx="0.528289" ry="0.56015" fill="white"/>
<ellipse cx="426.461" cy="812.797" rx="0.528289" ry="0.56015" fill="white"/>
<ellipse cx="505.704" cy="812.797" rx="0.528274" ry="0.56015" fill="white"/>
<ellipse cx="584.948" cy="812.797" rx="0.528303" ry="0.56015" fill="white"/>
<ellipse cx="664.191" cy="812.797" rx="0.528303" ry="0.56015" fill="white"/>
<ellipse cx="743.435" cy="812.797" rx="0.528274" ry="0.56015" fill="white"/>
<ellipse cx="61.9414" cy="874.415" rx="0.528287" ry="0.56015" fill="white"/>
<ellipse cx="141.185" cy="874.415" rx="0.528289" ry="0.56015" fill="white"/>
<ellipse cx="220.428" cy="874.415" rx="0.528296" ry="0.56015" fill="white"/>
<ellipse cx="299.672" cy="874.415" rx="0.528289" ry="0.56015" fill="white"/>
<ellipse cx="378.915" cy="874.415" rx="0.528274" ry="0.56015" fill="white"/>
<ellipse cx="458.158" cy="874.415" rx="0.528274" ry="0.56015" fill="white"/>
<ellipse cx="537.402" cy="874.415" rx="0.528303" ry="0.56015" fill="white"/>
<ellipse cx="616.645" cy="874.415" rx="0.528303" ry="0.56015" fill="white"/>
<ellipse cx="695.888" cy="874.415" rx="0.528274" ry="0.56015" fill="white"/>
<ellipse cx="40.8098" cy="930.431" rx="0.528287" ry="0.56015" fill="white"/>
<ellipse cx="120.053" cy="930.431" rx="0.528274" ry="0.56015" fill="white"/>
<ellipse cx="199.297" cy="930.431" rx="0.528289" ry="0.56015" fill="white"/>
<ellipse cx="278.54" cy="930.431" rx="0.528318" ry="0.56015" fill="white"/>
<ellipse cx="357.783" cy="930.431" rx="0.528289" ry="0.56015" fill="white"/>
<ellipse cx="437.027" cy="930.431" rx="0.52823" ry="0.56015" fill="white"/>
<ellipse cx="516.27" cy="930.431" rx="0.528332" ry="0.56015" fill="white"/>
<ellipse cx="595.514" cy="930.431" rx="0.528303" ry="0.56015" fill="white"/>
<ellipse cx="674.757" cy="930.431" rx="0.528303" ry="0.56015" fill="white"/>
<ellipse cx="674.757" cy="930.431" rx="0.528303" ry="0.56015" fill="white"/>
<ellipse cx="775.132" cy="874.415" rx="0.528303" ry="0.56015" fill="white"/>
<ellipse cx="35.527" cy="6.16173" rx="0.528288" ry="0.560165" fill="white"/>
<ellipse cx="114.77" cy="6.16173" rx="0.528289" ry="0.560165" fill="white"/>
<ellipse cx="194.014" cy="6.16173" rx="0.528281" ry="0.560165" fill="white"/>
<ellipse cx="273.257" cy="6.16173" rx="0.528259" ry="0.560165" fill="white"/>
<ellipse cx="352.501" cy="6.16173" rx="0.528289" ry="0.560165" fill="white"/>
<ellipse cx="431.744" cy="6.16173" rx="0.52823" ry="0.560165" fill="white"/>
<ellipse cx="510.987" cy="6.16173" rx="0.528303" ry="0.560165" fill="white"/>
<ellipse cx="590.231" cy="6.16173" rx="0.528274" ry="0.560165" fill="white"/>
<ellipse cx="669.474" cy="6.16173" rx="0.528274" ry="0.560165" fill="white"/>
<ellipse cx="748.718" cy="6.16173" rx="0.528303" ry="0.560165" fill="white"/>
<ellipse cx="72.5072" cy="62.1781" rx="0.528292" ry="0.560165" fill="white"/>
<ellipse cx="151.751" cy="62.1781" rx="0.528289" ry="0.560165" fill="white"/>
<ellipse cx="230.994" cy="62.1781" rx="0.52831" ry="0.560165" fill="white"/>
<ellipse cx="310.237" cy="62.1781" rx="0.528289" ry="0.560165" fill="white"/>
<ellipse cx="389.481" cy="62.1781" rx="0.528274" ry="0.560165" fill="white"/>
<ellipse cx="468.724" cy="62.1781" rx="0.528332" ry="0.560165" fill="white"/>
<ellipse cx="547.968" cy="62.1781" rx="0.528303" ry="0.560165" fill="white"/>
<ellipse cx="627.211" cy="62.1781" rx="0.528303" ry="0.560165" fill="white"/>
<ellipse cx="706.454" cy="62.1781" rx="0.528274" ry="0.560165" fill="white"/>
<ellipse cx="785.698" cy="62.1781" rx="0.528477" ry="0.560165" fill="white"/>
<ellipse cx="56.6585" cy="118.194" rx="0.528289" ry="0.560165" fill="white"/>
<ellipse cx="135.902" cy="118.194" rx="0.528289" ry="0.560165" fill="white"/>
<ellipse cx="215.145" cy="118.194" rx="0.528267" ry="0.560165" fill="white"/>
<ellipse cx="294.388" cy="118.194" rx="0.528274" ry="0.560165" fill="white"/>
<ellipse cx="373.632" cy="118.194" rx="0.528289" ry="0.560165" fill="white"/>
<ellipse cx="452.875" cy="118.194" rx="0.528289" ry="0.560165" fill="white"/>
<ellipse cx="532.119" cy="118.194" rx="0.528245" ry="0.560165" fill="white"/>
<ellipse cx="611.362" cy="118.194" rx="0.528274" ry="0.560165" fill="white"/>
<ellipse cx="690.606" cy="118.194" rx="0.528303" ry="0.560165" fill="white"/>
<ellipse cx="769.849" cy="118.194" rx="0.528303" ry="0.560165" fill="white"/>
<ellipse cx="72.5072" cy="174.211" rx="0.528292" ry="0.560165" fill="white"/>
<ellipse cx="151.751" cy="174.211" rx="0.528289" ry="0.560165" fill="white"/>
<ellipse cx="230.994" cy="174.211" rx="0.52831" ry="0.560165" fill="white"/>
<ellipse cx="310.237" cy="174.211" rx="0.528289" ry="0.560165" fill="white"/>
<ellipse cx="389.481" cy="174.211" rx="0.528274" ry="0.560165" fill="white"/>
<ellipse cx="468.724" cy="174.211" rx="0.528332" ry="0.560165" fill="white"/>
<ellipse cx="547.968" cy="174.211" rx="0.528303" ry="0.560165" fill="white"/>
<ellipse cx="627.211" cy="174.211" rx="0.528303" ry="0.560165" fill="white"/>
<ellipse cx="706.454" cy="174.211" rx="0.528274" ry="0.560165" fill="white"/>
<ellipse cx="785.698" cy="174.211" rx="0.528477" ry="0.560165" fill="white"/>
<ellipse cx="46.0927" cy="231.347" rx="0.528289" ry="0.560165" fill="white"/>
<ellipse cx="125.336" cy="231.347" rx="0.528299" ry="0.560165" fill="white"/>
<ellipse cx="204.58" cy="231.347" rx="0.528289" ry="0.560165" fill="white"/>
<ellipse cx="283.823" cy="231.347" rx="0.528274" ry="0.560165" fill="white"/>
<ellipse cx="363.066" cy="231.347" rx="0.528303" ry="0.560165" fill="white"/>
<ellipse cx="442.31" cy="231.347" rx="0.528289" ry="0.560165" fill="white"/>
<ellipse cx="521.553" cy="231.347" rx="0.528303" ry="0.560165" fill="white"/>
<ellipse cx="600.796" cy="231.347" rx="0.528274" ry="0.560165" fill="white"/>
<ellipse cx="680.04" cy="231.347" rx="0.528303" ry="0.560165" fill="white"/>
<ellipse cx="759.283" cy="231.347" rx="0.528303" ry="0.560165" fill="white"/>
<ellipse cx="77.7901" cy="287.364" rx="0.528289" ry="0.560165" fill="white"/>
<ellipse cx="157.034" cy="287.364" rx="0.528289" ry="0.560165" fill="white"/>
<ellipse cx="236.277" cy="287.364" rx="0.528281" ry="0.560165" fill="white"/>
<ellipse cx="315.52" cy="287.364" rx="0.528303" ry="0.560165" fill="white"/>
<ellipse cx="394.764" cy="287.364" rx="0.528289" ry="0.560165" fill="white"/>
<ellipse cx="474.007" cy="287.364" rx="0.528289" ry="0.560165" fill="white"/>
<ellipse cx="553.25" cy="287.364" rx="0.528274" ry="0.560165" fill="white"/>
<ellipse cx="632.494" cy="287.364" rx="0.528303" ry="0.560165" fill="white"/>
<ellipse cx="711.737" cy="287.364" rx="0.528303" ry="0.560165" fill="white"/>
<ellipse cx="67.2243" cy="343.38" rx="0.528281" ry="0.560165" fill="white"/>
<ellipse cx="146.468" cy="343.38" rx="0.528296" ry="0.560165" fill="white"/>
<ellipse cx="225.711" cy="343.38" rx="0.528259" ry="0.560165" fill="white"/>
<ellipse cx="304.954" cy="343.38" rx="0.528289" ry="0.560165" fill="white"/>
<ellipse cx="384.198" cy="343.38" rx="0.528289" ry="0.560165" fill="white"/>
<ellipse cx="463.441" cy="343.38" rx="0.528289" ry="0.560165" fill="white"/>
<ellipse cx="542.685" cy="343.38" rx="0.528332" ry="0.560165" fill="white"/>
<ellipse cx="621.928" cy="343.38" rx="0.528274" ry="0.560165" fill="white"/>
<ellipse cx="701.171" cy="343.38" rx="0.528303" ry="0.560165" fill="white"/>
<ellipse cx="780.415" cy="343.38" rx="0.528187" ry="0.560165" fill="white"/>
<ellipse cx="98.9216" cy="399.396" rx="0.528289" ry="0.56015" fill="white"/>
<ellipse cx="178.165" cy="399.396" rx="0.528281" ry="0.56015" fill="white"/>
<ellipse cx="257.408" cy="399.396" rx="0.52831" ry="0.56015" fill="white"/>
<ellipse cx="336.652" cy="399.396" rx="0.528289" ry="0.56015" fill="white"/>
<ellipse cx="415.895" cy="399.396" rx="0.528289" ry="0.56015" fill="white"/>
<ellipse cx="495.139" cy="399.396" rx="0.528332" ry="0.56015" fill="white"/>
<ellipse cx="574.382" cy="399.396" rx="0.528274" ry="0.56015" fill="white"/>
<ellipse cx="653.625" cy="399.396" rx="0.528303" ry="0.56015" fill="white"/>
<ellipse cx="732.869" cy="399.396" rx="0.528274" ry="0.56015" fill="white"/>
<ellipse cx="812.112" cy="398.276" rx="0.528158" ry="0.56015" fill="white"/>
<ellipse cx="56.6585" cy="455.413" rx="0.528289" ry="0.560181" fill="white"/>
<ellipse cx="135.902" cy="455.413" rx="0.528289" ry="0.560181" fill="white"/>
<ellipse cx="215.145" cy="455.413" rx="0.528267" ry="0.560181" fill="white"/>
<ellipse cx="294.388" cy="455.413" rx="0.528274" ry="0.560181" fill="white"/>
<ellipse cx="373.632" cy="455.413" rx="0.528289" ry="0.560181" fill="white"/>
<ellipse cx="452.875" cy="455.413" rx="0.528289" ry="0.560181" fill="white"/>
<ellipse cx="532.119" cy="455.413" rx="0.528245" ry="0.560181" fill="white"/>
<ellipse cx="611.362" cy="455.413" rx="0.528274" ry="0.560181" fill="white"/>
<ellipse cx="690.606" cy="455.413" rx="0.528303" ry="0.560181" fill="white"/>
<ellipse cx="769.849" cy="455.413" rx="0.528303" ry="0.560181" fill="white"/>
<ellipse cx="72.5072" cy="511.429" rx="0.528292" ry="0.560181" fill="white"/>
<ellipse cx="151.751" cy="511.429" rx="0.528289" ry="0.560181" fill="white"/>
<ellipse cx="230.994" cy="511.429" rx="0.52831" ry="0.560181" fill="white"/>
<ellipse cx="310.237" cy="511.429" rx="0.528289" ry="0.560181" fill="white"/>
<ellipse cx="389.481" cy="511.429" rx="0.528274" ry="0.560181" fill="white"/>
<ellipse cx="468.724" cy="511.429" rx="0.528332" ry="0.560181" fill="white"/>
<ellipse cx="547.968" cy="511.429" rx="0.528303" ry="0.560181" fill="white"/>
<ellipse cx="627.211" cy="511.429" rx="0.528303" ry="0.560181" fill="white"/>
<ellipse cx="706.454" cy="511.429" rx="0.528274" ry="0.560181" fill="white"/>
<ellipse cx="785.698" cy="511.429" rx="0.528477" ry="0.560181" fill="white"/>
<ellipse cx="109.487" cy="573.047" rx="0.528289" ry="0.56015" fill="white"/>
<ellipse cx="188.731" cy="573.047" rx="0.528289" ry="0.56015" fill="white"/>
<ellipse cx="267.974" cy="573.047" rx="0.528303" ry="0.56015" fill="white"/>
<ellipse cx="347.218" cy="573.047" rx="0.528289" ry="0.56015" fill="white"/>
<ellipse cx="426.461" cy="573.047" rx="0.528289" ry="0.56015" fill="white"/>
<ellipse cx="505.704" cy="573.047" rx="0.528274" ry="0.56015" fill="white"/>
<ellipse cx="584.948" cy="573.047" rx="0.528303" ry="0.56015" fill="white"/>
<ellipse cx="664.191" cy="573.047" rx="0.528303" ry="0.56015" fill="white"/>
<ellipse cx="743.435" cy="573.047" rx="0.528274" ry="0.56015" fill="white"/>
<ellipse cx="822.678" cy="571.927" rx="0.528303" ry="0.560181" fill="white"/>
<ellipse cx="77.7901" cy="634.665" rx="0.528289" ry="0.56015" fill="white"/>
<ellipse cx="157.034" cy="634.665" rx="0.528289" ry="0.56015" fill="white"/>
<ellipse cx="236.277" cy="634.665" rx="0.528281" ry="0.56015" fill="white"/>
<ellipse cx="315.52" cy="634.665" rx="0.528303" ry="0.56015" fill="white"/>
<ellipse cx="394.764" cy="634.665" rx="0.528289" ry="0.56015" fill="white"/>
<ellipse cx="474.007" cy="634.665" rx="0.528289" ry="0.56015" fill="white"/>
<ellipse cx="553.25" cy="634.665" rx="0.528274" ry="0.56015" fill="white"/>
<ellipse cx="632.494" cy="634.665" rx="0.528303" ry="0.56015" fill="white"/>
<ellipse cx="711.737" cy="634.665" rx="0.528303" ry="0.56015" fill="white"/>
<ellipse cx="790.98" cy="634.665" rx="0.528303" ry="0.56015" fill="white"/>
<ellipse cx="120.053" cy="695.163" rx="0.528274" ry="0.56015" fill="white"/>
<ellipse cx="199.297" cy="695.163" rx="0.528289" ry="0.56015" fill="white"/>
<ellipse cx="278.54" cy="695.163" rx="0.528318" ry="0.56015" fill="white"/>
<ellipse cx="357.783" cy="695.163" rx="0.528289" ry="0.56015" fill="white"/>
<ellipse cx="437.027" cy="695.163" rx="0.52823" ry="0.56015" fill="white"/>
<ellipse cx="516.27" cy="695.163" rx="0.528332" ry="0.56015" fill="white"/>
<ellipse cx="595.514" cy="695.163" rx="0.528303" ry="0.56015" fill="white"/>
<ellipse cx="674.757" cy="695.163" rx="0.528303" ry="0.56015" fill="white"/>
<ellipse cx="754" cy="695.163" rx="0.528274" ry="0.56015" fill="white"/>
<ellipse cx="88.3559" cy="756.781" rx="0.528289" ry="0.560181" fill="white"/>
<ellipse cx="167.599" cy="756.781" rx="0.528289" ry="0.560181" fill="white"/>
<ellipse cx="246.843" cy="756.781" rx="0.528281" ry="0.560181" fill="white"/>
<ellipse cx="326.086" cy="756.781" rx="0.528289" ry="0.560181" fill="white"/>
<ellipse cx="405.329" cy="756.781" rx="0.528289" ry="0.560181" fill="white"/>
<ellipse cx="484.573" cy="756.781" rx="0.52823" ry="0.560181" fill="white"/>
<ellipse cx="563.816" cy="756.781" rx="0.528274" ry="0.560181" fill="white"/>
<ellipse cx="643.06" cy="756.781" rx="0.528303" ry="0.560181" fill="white"/>
<ellipse cx="722.303" cy="756.781" rx="0.528303" ry="0.560181" fill="white"/>
<ellipse cx="801.546" cy="756.781" rx="0.528303" ry="0.560181" fill="white"/>
<ellipse cx="56.6585" cy="818.399" rx="0.528289" ry="0.560181" fill="white"/>
<ellipse cx="135.902" cy="818.399" rx="0.528289" ry="0.560181" fill="white"/>
<ellipse cx="215.145" cy="818.399" rx="0.528267" ry="0.560181" fill="white"/>
<ellipse cx="294.388" cy="818.399" rx="0.528274" ry="0.560181" fill="white"/>
<ellipse cx="373.632" cy="818.399" rx="0.528289" ry="0.560181" fill="white"/>
<ellipse cx="452.875" cy="818.399" rx="0.528289" ry="0.560181" fill="white"/>
<ellipse cx="532.119" cy="818.399" rx="0.528245" ry="0.560181" fill="white"/>
<ellipse cx="611.362" cy="818.399" rx="0.528274" ry="0.560181" fill="white"/>
<ellipse cx="690.606" cy="818.399" rx="0.528303" ry="0.560181" fill="white"/>
<ellipse cx="769.849" cy="818.399" rx="0.528303" ry="0.560181" fill="white"/>
<ellipse cx="88.3559" cy="880.017" rx="0.528289" ry="0.56015" fill="white"/>
<ellipse cx="167.599" cy="880.017" rx="0.528289" ry="0.56015" fill="white"/>
<ellipse cx="246.843" cy="880.017" rx="0.528281" ry="0.56015" fill="white"/>
<ellipse cx="326.086" cy="880.017" rx="0.528289" ry="0.56015" fill="white"/>
<ellipse cx="405.329" cy="880.017" rx="0.528289" ry="0.56015" fill="white"/>
<ellipse cx="484.573" cy="880.017" rx="0.52823" ry="0.56015" fill="white"/>
<ellipse cx="563.816" cy="880.017" rx="0.528274" ry="0.56015" fill="white"/>
<ellipse cx="643.06" cy="880.017" rx="0.528303" ry="0.56015" fill="white"/>
<ellipse cx="722.303" cy="880.017" rx="0.528303" ry="0.56015" fill="white"/>
<ellipse cx="67.2243" cy="936.033" rx="0.528281" ry="0.56015" fill="white"/>
<ellipse cx="146.468" cy="936.033" rx="0.528296" ry="0.56015" fill="white"/>
<ellipse cx="225.711" cy="936.033" rx="0.528259" ry="0.56015" fill="white"/>
<ellipse cx="304.954" cy="936.033" rx="0.528289" ry="0.56015" fill="white"/>
<ellipse cx="384.198" cy="936.033" rx="0.528289" ry="0.56015" fill="white"/>
<ellipse cx="463.441" cy="936.033" rx="0.528289" ry="0.56015" fill="white"/>
<ellipse cx="542.685" cy="936.033" rx="0.528332" ry="0.56015" fill="white"/>
<ellipse cx="621.928" cy="936.033" rx="0.528274" ry="0.56015" fill="white"/>
<ellipse cx="701.171" cy="936.033" rx="0.528303" ry="0.56015" fill="white"/>
<ellipse cx="701.171" cy="936.033" rx="0.528303" ry="0.56015" fill="white"/>
<ellipse cx="801.546" cy="880.017" rx="0.528303" ry="0.56015" fill="white"/>
<ellipse cx="58.7716" cy="28.5684" rx="0.528287" ry="0.560165" fill="white"/>
<ellipse cx="138.015" cy="28.5684" rx="0.528303" ry="0.560165" fill="white"/>
<ellipse cx="217.258" cy="28.5684" rx="0.528267" ry="0.560165" fill="white"/>
<ellipse cx="296.502" cy="28.5684" rx="0.528289" ry="0.560165" fill="white"/>
<ellipse cx="375.745" cy="28.5684" rx="0.528289" ry="0.560165" fill="white"/>
<ellipse cx="454.989" cy="28.5684" rx="0.528332" ry="0.560165" fill="white"/>
<ellipse cx="534.232" cy="28.5684" rx="0.528303" ry="0.560165" fill="white"/>
<ellipse cx="613.475" cy="28.5684" rx="0.528274" ry="0.560165" fill="white"/>
<ellipse cx="692.719" cy="28.5684" rx="0.528274" ry="0.560165" fill="white"/>
<ellipse cx="16.5086" cy="84.5846" rx="0.528287" ry="0.560165" fill="white"/>
<ellipse cx="95.7519" cy="84.5846" rx="0.528289" ry="0.560165" fill="white"/>
<ellipse cx="174.995" cy="84.5846" rx="0.528289" ry="0.560165" fill="white"/>
<ellipse cx="254.239" cy="84.5846" rx="0.528267" ry="0.560165" fill="white"/>
<ellipse cx="333.482" cy="84.5846" rx="0.528274" ry="0.560165" fill="white"/>
<ellipse cx="412.725" cy="84.5846" rx="0.528303" ry="0.560165" fill="white"/>
<ellipse cx="491.969" cy="84.5846" rx="0.528332" ry="0.560165" fill="white"/>
<ellipse cx="571.212" cy="84.5846" rx="0.528274" ry="0.560165" fill="white"/>
<ellipse cx="650.456" cy="84.5846" rx="0.528303" ry="0.560165" fill="white"/>
<ellipse cx="729.699" cy="84.5846" rx="0.528274" ry="0.560165" fill="white"/>
<ellipse cx="0.659879" cy="140.601" rx="0.528287" ry="0.560165" fill="white"/>
<ellipse cx="79.9033" cy="140.601" rx="0.528289" ry="0.560165" fill="white"/>
<ellipse cx="159.147" cy="140.601" rx="0.528289" ry="0.560165" fill="white"/>
<ellipse cx="238.39" cy="140.601" rx="0.528281" ry="0.560165" fill="white"/>
<ellipse cx="317.633" cy="140.601" rx="0.528289" ry="0.560165" fill="white"/>
<ellipse cx="396.877" cy="140.601" rx="0.528332" ry="0.560165" fill="white"/>
<ellipse cx="476.12" cy="140.601" rx="0.528289" ry="0.560165" fill="white"/>
<ellipse cx="555.364" cy="140.601" rx="0.528303" ry="0.560165" fill="white"/>
<ellipse cx="634.607" cy="140.601" rx="0.528274" ry="0.560165" fill="white"/>
<ellipse cx="713.85" cy="140.601" rx="0.528274" ry="0.560165" fill="white"/>
<ellipse cx="16.5086" cy="196.617" rx="0.528287" ry="0.560165" fill="white"/>
<ellipse cx="95.7519" cy="196.617" rx="0.528289" ry="0.560165" fill="white"/>
<ellipse cx="174.995" cy="196.617" rx="0.528289" ry="0.560165" fill="white"/>
<ellipse cx="254.239" cy="196.617" rx="0.528267" ry="0.560165" fill="white"/>
<ellipse cx="333.482" cy="196.617" rx="0.528274" ry="0.560165" fill="white"/>
<ellipse cx="412.725" cy="196.617" rx="0.528303" ry="0.560165" fill="white"/>
<ellipse cx="491.969" cy="196.617" rx="0.528332" ry="0.560165" fill="white"/>
<ellipse cx="571.212" cy="196.617" rx="0.528274" ry="0.560165" fill="white"/>
<ellipse cx="650.456" cy="196.617" rx="0.528303" ry="0.560165" fill="white"/>
<ellipse cx="729.699" cy="196.617" rx="0.528274" ry="0.560165" fill="white"/>
<ellipse cx="69.3374" cy="253.754" rx="0.528279" ry="0.560165" fill="white"/>
<ellipse cx="148.581" cy="253.754" rx="0.528289" ry="0.560165" fill="white"/>
<ellipse cx="227.824" cy="253.754" rx="0.528289" ry="0.560165" fill="white"/>
<ellipse cx="307.068" cy="253.754" rx="0.528289" ry="0.560165" fill="white"/>
<ellipse cx="386.311" cy="253.754" rx="0.528289" ry="0.560165" fill="white"/>
<ellipse cx="465.554" cy="253.754" rx="0.52823" ry="0.560165" fill="white"/>
<ellipse cx="544.798" cy="253.754" rx="0.528274" ry="0.560165" fill="white"/>
<ellipse cx="624.041" cy="253.754" rx="0.528274" ry="0.560165" fill="white"/>
<ellipse cx="703.284" cy="253.754" rx="0.528303" ry="0.560165" fill="white"/>
<ellipse cx="21.7913" cy="309.77" rx="0.528287" ry="0.560165" fill="white"/>
<ellipse cx="101.035" cy="309.77" rx="0.528289" ry="0.560165" fill="white"/>
<ellipse cx="180.278" cy="309.77" rx="0.528289" ry="0.560165" fill="white"/>
<ellipse cx="259.522" cy="309.77" rx="0.528289" ry="0.560165" fill="white"/>
<ellipse cx="338.765" cy="309.77" rx="0.528289" ry="0.560165" fill="white"/>
<ellipse cx="418.008" cy="309.77" rx="0.52823" ry="0.560165" fill="white"/>
<ellipse cx="497.252" cy="309.77" rx="0.528289" ry="0.560165" fill="white"/>
<ellipse cx="576.495" cy="309.77" rx="0.528274" ry="0.560165" fill="white"/>
<ellipse cx="655.739" cy="309.77" rx="0.528303" ry="0.560165" fill="white"/>
<ellipse cx="11.2257" cy="365.786" rx="0.528287" ry="0.56015" fill="white"/>
<ellipse cx="90.4691" cy="365.786" rx="0.528289" ry="0.56015" fill="white"/>
<ellipse cx="169.712" cy="365.786" rx="0.528289" ry="0.56015" fill="white"/>
<ellipse cx="248.956" cy="365.786" rx="0.528267" ry="0.56015" fill="white"/>
<ellipse cx="328.199" cy="365.786" rx="0.528289" ry="0.56015" fill="white"/>
<ellipse cx="407.443" cy="365.786" rx="0.528332" ry="0.56015" fill="white"/>
<ellipse cx="486.686" cy="365.786" rx="0.528289" ry="0.56015" fill="white"/>
<ellipse cx="565.929" cy="365.786" rx="0.528274" ry="0.56015" fill="white"/>
<ellipse cx="645.173" cy="365.786" rx="0.528274" ry="0.56015" fill="white"/>
<ellipse cx="724.416" cy="365.786" rx="0.528303" ry="0.56015" fill="white"/>
<ellipse cx="42.923" cy="421.803" rx="0.528288" ry="0.560181" fill="white"/>
<ellipse cx="122.166" cy="421.803" rx="0.528289" ry="0.560181" fill="white"/>
<ellipse cx="201.41" cy="421.803" rx="0.528289" ry="0.560181" fill="white"/>
<ellipse cx="280.653" cy="421.803" rx="0.528289" ry="0.560181" fill="white"/>
<ellipse cx="359.897" cy="421.803" rx="0.528289" ry="0.560181" fill="white"/>
<ellipse cx="439.14" cy="421.803" rx="0.528289" ry="0.560181" fill="white"/>
<ellipse cx="518.383" cy="421.803" rx="0.528216" ry="0.560181" fill="white"/>
<ellipse cx="597.627" cy="421.803" rx="0.528274" ry="0.560181" fill="white"/>
<ellipse cx="676.87" cy="421.803" rx="0.528303" ry="0.560181" fill="white"/>
<ellipse cx="756.113" cy="421.803" rx="0.528274" ry="0.560181" fill="white"/>
<ellipse cx="0.659879" cy="477.819" rx="0.528287" ry="0.56015" fill="white"/>
<ellipse cx="79.9033" cy="477.819" rx="0.528289" ry="0.56015" fill="white"/>
<ellipse cx="159.147" cy="477.819" rx="0.528289" ry="0.56015" fill="white"/>
<ellipse cx="238.39" cy="477.819" rx="0.528281" ry="0.56015" fill="white"/>
<ellipse cx="317.633" cy="477.819" rx="0.528289" ry="0.56015" fill="white"/>
<ellipse cx="396.877" cy="477.819" rx="0.528332" ry="0.56015" fill="white"/>
<ellipse cx="476.12" cy="477.819" rx="0.528289" ry="0.56015" fill="white"/>
<ellipse cx="555.364" cy="477.819" rx="0.528303" ry="0.56015" fill="white"/>
<ellipse cx="634.607" cy="477.819" rx="0.528274" ry="0.56015" fill="white"/>
<ellipse cx="713.85" cy="477.819" rx="0.528274" ry="0.56015" fill="white"/>
<ellipse cx="16.5086" cy="533.836" rx="0.528287" ry="0.560181" fill="white"/>
<ellipse cx="95.7519" cy="533.836" rx="0.528289" ry="0.560181" fill="white"/>
<ellipse cx="174.995" cy="533.836" rx="0.528289" ry="0.560181" fill="white"/>
<ellipse cx="254.239" cy="533.836" rx="0.528267" ry="0.560181" fill="white"/>
<ellipse cx="333.482" cy="533.836" rx="0.528274" ry="0.560181" fill="white"/>
<ellipse cx="412.725" cy="533.836" rx="0.528303" ry="0.560181" fill="white"/>
<ellipse cx="491.969" cy="533.836" rx="0.528332" ry="0.560181" fill="white"/>
<ellipse cx="571.212" cy="533.836" rx="0.528274" ry="0.560181" fill="white"/>
<ellipse cx="650.456" cy="533.836" rx="0.528303" ry="0.560181" fill="white"/>
<ellipse cx="729.699" cy="533.836" rx="0.528274" ry="0.560181" fill="white"/>
<ellipse cx="53.4887" cy="595.453" rx="0.528287" ry="0.56015" fill="white"/>
<ellipse cx="132.732" cy="595.453" rx="0.528274" ry="0.56015" fill="white"/>
<ellipse cx="211.976" cy="595.453" rx="0.528296" ry="0.56015" fill="white"/>
<ellipse cx="291.219" cy="595.453" rx="0.528289" ry="0.56015" fill="white"/>
<ellipse cx="370.462" cy="595.453" rx="0.528274" ry="0.56015" fill="white"/>
<ellipse cx="449.706" cy="595.453" rx="0.528289" ry="0.56015" fill="white"/>
<ellipse cx="528.949" cy="595.453" rx="0.528332" ry="0.56015" fill="white"/>
<ellipse cx="608.193" cy="595.453" rx="0.528303" ry="0.56015" fill="white"/>
<ellipse cx="687.436" cy="595.453" rx="0.528274" ry="0.56015" fill="white"/>
<ellipse cx="766.679" cy="595.453" rx="0.528274" ry="0.56015" fill="white"/>
<ellipse cx="21.7913" cy="657.071" rx="0.528287" ry="0.560181" fill="white"/>
<ellipse cx="101.035" cy="657.071" rx="0.528289" ry="0.560181" fill="white"/>
<ellipse cx="180.278" cy="657.071" rx="0.528289" ry="0.560181" fill="white"/>
<ellipse cx="259.522" cy="657.071" rx="0.528289" ry="0.560181" fill="white"/>
<ellipse cx="338.765" cy="657.071" rx="0.528289" ry="0.560181" fill="white"/>
<ellipse cx="418.008" cy="657.071" rx="0.52823" ry="0.560181" fill="white"/>
<ellipse cx="497.252" cy="657.071" rx="0.528289" ry="0.560181" fill="white"/>
<ellipse cx="576.495" cy="657.071" rx="0.528274" ry="0.560181" fill="white"/>
<ellipse cx="655.739" cy="657.071" rx="0.528303" ry="0.560181" fill="white"/>
<ellipse cx="734.982" cy="657.071" rx="0.528274" ry="0.560181" fill="white"/>
<ellipse cx="64.0546" cy="717.569" rx="0.528292" ry="0.560119" fill="white"/>
<ellipse cx="143.298" cy="717.569" rx="0.528274" ry="0.560119" fill="white"/>
<ellipse cx="222.541" cy="717.569" rx="0.528318" ry="0.560119" fill="white"/>
<ellipse cx="301.785" cy="717.569" rx="0.528289" ry="0.560119" fill="white"/>
<ellipse cx="381.028" cy="717.569" rx="0.528274" ry="0.560119" fill="white"/>
<ellipse cx="460.272" cy="717.569" rx="0.528303" ry="0.560119" fill="white"/>
<ellipse cx="539.515" cy="717.569" rx="0.528332" ry="0.560119" fill="white"/>
<ellipse cx="618.758" cy="717.569" rx="0.528274" ry="0.560119" fill="white"/>
<ellipse cx="698.002" cy="717.569" rx="0.528303" ry="0.560119" fill="white"/>
<ellipse cx="32.3573" cy="779.187" rx="0.528287" ry="0.560181" fill="white"/>
<ellipse cx="111.601" cy="779.187" rx="0.528274" ry="0.560181" fill="white"/>
<ellipse cx="190.844" cy="779.187" rx="0.528289" ry="0.560181" fill="white"/>
<ellipse cx="270.088" cy="779.187" rx="0.528318" ry="0.560181" fill="white"/>
<ellipse cx="349.331" cy="779.187" rx="0.528289" ry="0.560181" fill="white"/>
<ellipse cx="428.574" cy="779.187" rx="0.528289" ry="0.560181" fill="white"/>
<ellipse cx="507.818" cy="779.187" rx="0.528303" ry="0.560181" fill="white"/>
<ellipse cx="587.061" cy="779.187" rx="0.528274" ry="0.560181" fill="white"/>
<ellipse cx="666.304" cy="779.187" rx="0.528274" ry="0.560181" fill="white"/>
<ellipse cx="745.548" cy="779.187" rx="0.528303" ry="0.560181" fill="white"/>
<ellipse cx="0.659879" cy="840.805" rx="0.528287" ry="0.56015" fill="white"/>
<ellipse cx="79.9033" cy="840.805" rx="0.528289" ry="0.56015" fill="white"/>
<ellipse cx="159.147" cy="840.805" rx="0.528289" ry="0.56015" fill="white"/>
<ellipse cx="238.39" cy="840.805" rx="0.528281" ry="0.56015" fill="white"/>
<ellipse cx="317.633" cy="840.805" rx="0.528289" ry="0.56015" fill="white"/>
<ellipse cx="396.877" cy="840.805" rx="0.528332" ry="0.56015" fill="white"/>
<ellipse cx="476.12" cy="840.805" rx="0.528289" ry="0.56015" fill="white"/>
<ellipse cx="555.364" cy="840.805" rx="0.528303" ry="0.56015" fill="white"/>
<ellipse cx="634.607" cy="840.805" rx="0.528274" ry="0.56015" fill="white"/>
<ellipse cx="713.85" cy="840.805" rx="0.528274" ry="0.56015" fill="white"/>
<ellipse cx="32.3573" cy="902.423" rx="0.528287" ry="0.560088" fill="white"/>
<ellipse cx="111.601" cy="902.423" rx="0.528274" ry="0.560088" fill="white"/>
<ellipse cx="190.844" cy="902.423" rx="0.528289" ry="0.560088" fill="white"/>
<ellipse cx="270.088" cy="902.423" rx="0.528318" ry="0.560088" fill="white"/>
<ellipse cx="349.331" cy="902.423" rx="0.528289" ry="0.560088" fill="white"/>
<ellipse cx="428.574" cy="902.423" rx="0.528289" ry="0.560088" fill="white"/>
<ellipse cx="507.818" cy="902.423" rx="0.528303" ry="0.560088" fill="white"/>
<ellipse cx="587.061" cy="902.423" rx="0.528274" ry="0.560088" fill="white"/>
<ellipse cx="666.304" cy="902.423" rx="0.528274" ry="0.560088" fill="white"/>
<ellipse cx="11.2257" cy="958.44" rx="0.528287" ry="0.56015" fill="white"/>
<ellipse cx="90.4691" cy="958.44" rx="0.528289" ry="0.56015" fill="white"/>
<ellipse cx="169.712" cy="958.44" rx="0.528289" ry="0.56015" fill="white"/>
<ellipse cx="248.956" cy="958.44" rx="0.528267" ry="0.56015" fill="white"/>
<ellipse cx="328.199" cy="958.44" rx="0.528289" ry="0.56015" fill="white"/>
<ellipse cx="407.443" cy="958.44" rx="0.528332" ry="0.56015" fill="white"/>
<ellipse cx="486.686" cy="958.44" rx="0.528289" ry="0.56015" fill="white"/>
<ellipse cx="565.929" cy="958.44" rx="0.528274" ry="0.56015" fill="white"/>
<ellipse cx="645.173" cy="958.44" rx="0.528274" ry="0.56015" fill="white"/>
<ellipse cx="645.173" cy="958.44" rx="0.528274" ry="0.56015" fill="white"/>
<ellipse cx="745.548" cy="902.423" rx="0.528303" ry="0.560088" fill="white"/>
<ellipse cx="18.6217" cy="79.5433" rx="1.05658" ry="1.12033" fill="white"/>
<ellipse cx="177.108" cy="85.1448" rx="1.05658" ry="1.12032" fill="white"/>
<ellipse cx="335.595" cy="79.5433" rx="1.05658" ry="1.12033" fill="white"/>
<ellipse cx="494.082" cy="73.9416" rx="1.05654" ry="1.12032" fill="white"/>
<ellipse cx="652.569" cy="79.5433" rx="1.05658" ry="1.12033" fill="white"/>
<ellipse cx="811.055" cy="85.1448" rx="1.05647" ry="1.12032" fill="white"/>
<ellipse cx="82.0164" cy="191.576" rx="1.05657" ry="1.12033" fill="white"/>
<ellipse cx="240.503" cy="197.178" rx="1.05655" ry="1.12033" fill="white"/>
<ellipse cx="398.99" cy="191.576" rx="1.05654" ry="1.12033" fill="white"/>
<ellipse cx="557.477" cy="185.974" rx="1.05658" ry="1.12033" fill="white"/>
<ellipse cx="715.964" cy="191.576" rx="1.05655" ry="1.12033" fill="white"/>
<ellipse cx="874.45" cy="197.178" rx="1.05658" ry="1.12033" fill="white"/>
<ellipse cx="55.6021" cy="304.729" rx="1.05658" ry="1.12033" fill="white"/>
<ellipse cx="214.089" cy="310.33" rx="1.05658" ry="1.12033" fill="white"/>
<ellipse cx="372.576" cy="304.729" rx="1.05658" ry="1.12033" fill="white"/>
<ellipse cx="531.062" cy="299.127" rx="1.05661" ry="1.12031" fill="white"/>
<ellipse cx="689.549" cy="304.729" rx="1.05655" ry="1.12033" fill="white"/>
<ellipse cx="848.036" cy="309.21" rx="1.05658" ry="1.12033" fill="white"/>
<ellipse cx="29.1875" cy="416.762" rx="1.05658" ry="1.12033" fill="white"/>
<ellipse cx="187.674" cy="422.363" rx="1.05657" ry="1.12033" fill="white"/>
<ellipse cx="346.161" cy="416.762" rx="1.05657" ry="1.12033" fill="white"/>
<ellipse cx="504.648" cy="411.16" rx="1.05664" ry="1.12033" fill="white"/>
<ellipse cx="663.135" cy="416.762" rx="1.05658" ry="1.12033" fill="white"/>
<ellipse cx="821.621" cy="421.243" rx="1.05647" ry="1.12033" fill="white"/>
<ellipse cx="113.714" cy="528.794" rx="1.05659" ry="1.12033" fill="white"/>
<ellipse cx="272.201" cy="534.396" rx="1.05658" ry="1.12036" fill="white"/>
<ellipse cx="430.687" cy="528.794" rx="1.05657" ry="1.12033" fill="white"/>
<ellipse cx="589.174" cy="523.192" rx="1.05658" ry="1.12033" fill="white"/>
<ellipse cx="747.661" cy="528.794" rx="1.05658" ry="1.12033" fill="white"/>
<ellipse cx="906.148" cy="533.276" rx="1.05647" ry="1.12033" fill="white"/>
<ellipse cx="14.9237" cy="640.827" rx="1.05658" ry="1.12033" fill="white"/>
<ellipse cx="173.41" cy="646.428" rx="1.05657" ry="1.12033" fill="white"/>
<ellipse cx="331.897" cy="640.827" rx="1.05658" ry="1.12033" fill="white"/>
<ellipse cx="490.384" cy="635.225" rx="1.05658" ry="1.12033" fill="white"/>
<ellipse cx="648.871" cy="640.827" rx="1.05658" ry="1.12033" fill="white"/>
<ellipse cx="807.358" cy="645.308" rx="1.05649" ry="1.12036" fill="white"/>
<ellipse cx="27.0744" cy="737.175" rx="1.05658" ry="1.12033" fill="white"/>
<ellipse cx="185.561" cy="742.777" rx="1.05658" ry="1.12033" fill="white"/>
<ellipse cx="344.048" cy="737.175" rx="1.05658" ry="1.12033" fill="white"/>
<ellipse cx="502.535" cy="731.573" rx="1.05655" ry="1.12033" fill="white"/>
<ellipse cx="661.021" cy="737.175" rx="1.05658" ry="1.12033" fill="white"/>
<ellipse cx="819.508" cy="742.777" rx="1.05658" ry="1.12033" fill="white"/>
<ellipse cx="65.6395" cy="857.05" rx="1.05658" ry="1.12033" fill="white"/>
<ellipse cx="224.126" cy="862.652" rx="1.05655" ry="1.1203" fill="white"/>
<ellipse cx="382.613" cy="857.05" rx="1.05658" ry="1.12033" fill="white"/>
<ellipse cx="541.1" cy="851.449" rx="1.05652" ry="1.12033" fill="white"/>
<ellipse cx="699.586" cy="857.05" rx="1.05655" ry="1.12033" fill="white"/>
<ellipse cx="858.073" cy="862.652" rx="1.05661" ry="1.1203" fill="white"/>
<ellipse cx="740.264" cy="956.759" rx="1.05658" ry="1.12036" fill="white"/>
<ellipse cx="134.845" cy="34.7301" rx="1.05657" ry="1.12032" fill="white"/>
<ellipse cx="293.332" cy="29.1286" rx="1.05657" ry="1.12032" fill="white"/>
<ellipse cx="451.819" cy="23.5269" rx="1.05657" ry="1.12033" fill="white"/>
<ellipse cx="610.306" cy="29.1286" rx="1.05658" ry="1.12032" fill="white"/>
<ellipse cx="768.792" cy="34.7301" rx="1.05661" ry="1.12032" fill="white"/>
<ellipse cx="103.148" cy="146.763" rx="1.05658" ry="1.12035" fill="white"/>
<ellipse cx="261.635" cy="141.161" rx="1.05658" ry="1.12033" fill="white"/>
<ellipse cx="420.122" cy="135.56" rx="1.05663" ry="1.12033" fill="white"/>
<ellipse cx="578.608" cy="141.161" rx="1.05661" ry="1.12033" fill="white"/>
<ellipse cx="737.095" cy="146.763" rx="1.05655" ry="1.12035" fill="white"/>
<ellipse cx="8.05591" cy="254.314" rx="1.05658" ry="1.12033" fill="white"/>
<ellipse cx="166.543" cy="259.916" rx="1.05657" ry="1.12031" fill="white"/>
<ellipse cx="325.029" cy="254.314" rx="1.05658" ry="1.12033" fill="white"/>
<ellipse cx="483.516" cy="248.712" rx="1.0566" ry="1.12033" fill="white"/>
<ellipse cx="642.003" cy="254.314" rx="1.05655" ry="1.12033" fill="white"/>
<ellipse cx="800.49" cy="258.796" rx="1.05658" ry="1.12033" fill="white"/>
<ellipse cx="140.128" cy="371.948" rx="1.05657" ry="1.12033" fill="white"/>
<ellipse cx="298.615" cy="366.347" rx="1.05657" ry="1.1203" fill="white"/>
<ellipse cx="457.102" cy="360.745" rx="1.05663" ry="1.12033" fill="white"/>
<ellipse cx="615.589" cy="366.347" rx="1.05658" ry="1.1203" fill="white"/>
<ellipse cx="774.075" cy="371.948" rx="1.05658" ry="1.12033" fill="white"/>
<ellipse cx="113.714" cy="483.981" rx="1.05659" ry="1.12033" fill="white"/>
<ellipse cx="272.201" cy="478.379" rx="1.05658" ry="1.12033" fill="white"/>
<ellipse cx="430.687" cy="472.778" rx="1.05657" ry="1.12033" fill="white"/>
<ellipse cx="589.174" cy="478.379" rx="1.05658" ry="1.12033" fill="white"/>
<ellipse cx="747.661" cy="483.981" rx="1.05658" ry="1.12033" fill="white"/>
<ellipse cx="39.7533" cy="590.412" rx="1.05658" ry="1.1203" fill="white"/>
<ellipse cx="198.24" cy="596.014" rx="1.05658" ry="1.12033" fill="white"/>
<ellipse cx="356.727" cy="590.412" rx="1.05658" ry="1.1203" fill="white"/>
<ellipse cx="515.214" cy="584.81" rx="1.05664" ry="1.12033" fill="white"/>
<ellipse cx="673.7" cy="590.412" rx="1.05661" ry="1.1203" fill="white"/>
<ellipse cx="832.187" cy="594.893" rx="1.05658" ry="1.12033" fill="white"/>
<ellipse cx="99.4499" cy="706.926" rx="1.05658" ry="1.12033" fill="white"/>
<ellipse cx="257.937" cy="701.325" rx="1.0566" ry="1.12033" fill="white"/>
<ellipse cx="416.423" cy="695.723" rx="1.05663" ry="1.12033" fill="white"/>
<ellipse cx="574.91" cy="701.325" rx="1.05658" ry="1.12033" fill="white"/>
<ellipse cx="733.397" cy="706.926" rx="1.05658" ry="1.12033" fill="white"/>
<ellipse cx="111.601" cy="804.395" rx="1.05657" ry="1.12033" fill="white"/>
<ellipse cx="270.087" cy="798.793" rx="1.05657" ry="1.1203" fill="white"/>
<ellipse cx="428.574" cy="793.191" rx="1.05663" ry="1.12036" fill="white"/>
<ellipse cx="587.061" cy="798.793" rx="1.05658" ry="1.1203" fill="white"/>
<ellipse cx="745.548" cy="804.395" rx="1.05658" ry="1.12033" fill="white"/>
<ellipse cx="150.166" cy="924.27" rx="1.05657" ry="1.1203" fill="white"/>
<ellipse cx="308.652" cy="918.668" rx="1.05658" ry="1.1203" fill="white"/>
<ellipse cx="467.139" cy="913.067" rx="1.05654" ry="1.1203" fill="white"/>
<ellipse cx="625.626" cy="918.668" rx="1.05658" ry="1.1203" fill="white"/>
<ellipse cx="784.113" cy="924.27" rx="1.05649" ry="1.1203" fill="white"/>
<ellipse cx="775.908" cy="0.560165" rx="0.528286" ry="0.560165" fill="white"/>
<ellipse cx="855.152" cy="0.560165" rx="0.528289" ry="0.560165" fill="white"/>
<ellipse cx="934.395" cy="0.560165" rx="0.528289" ry="0.560165" fill="white"/>
<ellipse cx="1013.64" cy="0.560165" rx="0.528281" ry="0.560165" fill="white"/>
<ellipse cx="1092.88" cy="0.560165" rx="0.528289" ry="0.560165" fill="white"/>
<ellipse cx="1172.13" cy="0.560165" rx="0.528289" ry="0.560165" fill="white"/>
<ellipse cx="1251.37" cy="0.560165" rx="0.52823" ry="0.560165" fill="white"/>
<ellipse cx="1330.61" cy="0.560165" rx="0.528274" ry="0.560165" fill="white"/>
<ellipse cx="1409.86" cy="0.560165" rx="0.528303" ry="0.560165" fill="white"/>
<ellipse cx="1489.1" cy="0.560165" rx="0.528303" ry="0.560165" fill="white"/>
<ellipse cx="812.889" cy="56.5764" rx="0.528289" ry="0.560165" fill="white"/>
<ellipse cx="892.132" cy="56.5764" rx="0.528299" ry="0.560165" fill="white"/>
<ellipse cx="971.375" cy="56.5764" rx="0.528289" ry="0.560165" fill="white"/>
<ellipse cx="1050.62" cy="56.5764" rx="0.528274" ry="0.560165" fill="white"/>
<ellipse cx="1129.86" cy="56.5764" rx="0.528303" ry="0.560165" fill="white"/>
<ellipse cx="1209.11" cy="56.5764" rx="0.528289" ry="0.560165" fill="white"/>
<ellipse cx="1288.35" cy="56.5764" rx="0.528303" ry="0.560165" fill="white"/>
<ellipse cx="1367.59" cy="56.5764" rx="0.528274" ry="0.560165" fill="white"/>
<ellipse cx="1446.84" cy="56.5764" rx="0.528303" ry="0.560165" fill="white"/>
<ellipse cx="1526.08" cy="56.5764" rx="0.528303" ry="0.560165" fill="white"/>
<ellipse cx="797.04" cy="112.593" rx="0.528289" ry="0.560165" fill="white"/>
<ellipse cx="876.283" cy="112.593" rx="0.528289" ry="0.560165" fill="white"/>
<ellipse cx="955.527" cy="112.593" rx="0.528289" ry="0.560165" fill="white"/>
<ellipse cx="1034.77" cy="112.593" rx="0.528303" ry="0.560165" fill="white"/>
<ellipse cx="1114.01" cy="112.593" rx="0.528289" ry="0.560165" fill="white"/>
<ellipse cx="1193.26" cy="112.593" rx="0.528289" ry="0.560165" fill="white"/>
<ellipse cx="1272.5" cy="112.593" rx="0.528274" ry="0.560165" fill="white"/>
<ellipse cx="1351.74" cy="112.593" rx="0.528303" ry="0.560165" fill="white"/>
<ellipse cx="1430.99" cy="112.593" rx="0.528303" ry="0.560165" fill="white"/>
<ellipse cx="1510.23" cy="112.593" rx="0.528274" ry="0.560165" fill="white"/>
<ellipse cx="812.889" cy="168.609" rx="0.528289" ry="0.560165" fill="white"/>
<ellipse cx="892.132" cy="168.609" rx="0.528299" ry="0.560165" fill="white"/>
<ellipse cx="971.375" cy="168.609" rx="0.528289" ry="0.560165" fill="white"/>
<ellipse cx="1050.62" cy="168.609" rx="0.528274" ry="0.560165" fill="white"/>
<ellipse cx="1129.86" cy="168.609" rx="0.528303" ry="0.560165" fill="white"/>
<ellipse cx="1209.11" cy="168.609" rx="0.528289" ry="0.560165" fill="white"/>
<ellipse cx="1288.35" cy="168.609" rx="0.528303" ry="0.560165" fill="white"/>
<ellipse cx="1367.59" cy="168.609" rx="0.528274" ry="0.560165" fill="white"/>
<ellipse cx="1446.84" cy="168.609" rx="0.528303" ry="0.560165" fill="white"/>
<ellipse cx="1526.08" cy="168.609" rx="0.528303" ry="0.560165" fill="white"/>
<ellipse cx="786.474" cy="225.746" rx="0.528287" ry="0.560165" fill="white"/>
<ellipse cx="865.718" cy="225.746" rx="0.528289" ry="0.560165" fill="white"/>
<ellipse cx="944.961" cy="225.746" rx="0.528281" ry="0.560165" fill="white"/>
<ellipse cx="1024.2" cy="225.746" rx="0.52831" ry="0.560165" fill="white"/>
<ellipse cx="1103.45" cy="225.746" rx="0.528289" ry="0.560165" fill="white"/>
<ellipse cx="1182.69" cy="225.746" rx="0.528289" ry="0.560165" fill="white"/>
<ellipse cx="1261.93" cy="225.746" rx="0.528332" ry="0.560165" fill="white"/>
<ellipse cx="1341.18" cy="225.746" rx="0.528274" ry="0.560165" fill="white"/>
<ellipse cx="1420.42" cy="225.746" rx="0.528303" ry="0.560165" fill="white"/>
<ellipse cx="1499.66" cy="225.746" rx="0.528274" ry="0.560165" fill="white"/>
<ellipse cx="818.171" cy="281.762" rx="0.528287" ry="0.560165" fill="white"/>
<ellipse cx="897.415" cy="281.762" rx="0.528289" ry="0.560165" fill="white"/>
<ellipse cx="976.658" cy="281.762" rx="0.52831" ry="0.560165" fill="white"/>
<ellipse cx="1055.9" cy="281.762" rx="0.528289" ry="0.560165" fill="white"/>
<ellipse cx="1135.15" cy="281.762" rx="0.528289" ry="0.560165" fill="white"/>
<ellipse cx="1214.39" cy="281.762" rx="0.528332" ry="0.560165" fill="white"/>
<ellipse cx="1293.63" cy="281.762" rx="0.528216" ry="0.560165" fill="white"/>
<ellipse cx="1372.88" cy="281.762" rx="0.528303" ry="0.560165" fill="white"/>
<ellipse cx="1452.12" cy="281.762" rx="0.528274" ry="0.560165" fill="white"/>
<ellipse cx="807.606" cy="337.778" rx="0.528287" ry="0.560165" fill="white"/>
<ellipse cx="886.849" cy="337.778" rx="0.528274" ry="0.560165" fill="white"/>
<ellipse cx="966.092" cy="337.778" rx="0.528289" ry="0.560165" fill="white"/>
<ellipse cx="1045.34" cy="337.778" rx="0.528318" ry="0.560165" fill="white"/>
<ellipse cx="1124.58" cy="337.778" rx="0.528289" ry="0.560165" fill="white"/>
<ellipse cx="1203.82" cy="337.778" rx="0.52823" ry="0.560165" fill="white"/>
<ellipse cx="1283.07" cy="337.778" rx="0.528332" ry="0.560165" fill="white"/>
<ellipse cx="1362.31" cy="337.778" rx="0.528303" ry="0.560165" fill="white"/>
<ellipse cx="1441.55" cy="337.778" rx="0.528303" ry="0.560165" fill="white"/>
<ellipse cx="1520.8" cy="337.778" rx="0.528274" ry="0.560165" fill="white"/>
<ellipse cx="839.303" cy="393.795" rx="0.528292" ry="0.56015" fill="white"/>
<ellipse cx="918.546" cy="393.795" rx="0.528289" ry="0.56015" fill="white"/>
<ellipse cx="997.79" cy="393.795" rx="0.52831" ry="0.56015" fill="white"/>
<ellipse cx="1077.03" cy="393.795" rx="0.528289" ry="0.56015" fill="white"/>
<ellipse cx="1156.28" cy="393.795" rx="0.528274" ry="0.56015" fill="white"/>
<ellipse cx="1235.52" cy="393.795" rx="0.528332" ry="0.56015" fill="white"/>
<ellipse cx="1314.76" cy="393.795" rx="0.528303" ry="0.56015" fill="white"/>
<ellipse cx="1394.01" cy="393.795" rx="0.528303" ry="0.56015" fill="white"/>
<ellipse cx="1473.25" cy="393.795" rx="0.528274" ry="0.56015" fill="white"/>
<ellipse cx="1552.49" cy="393.795" rx="0.528477" ry="0.56015" fill="white"/>
<ellipse cx="797.04" cy="449.811" rx="0.528289" ry="0.56015" fill="white"/>
<ellipse cx="876.283" cy="449.811" rx="0.528289" ry="0.56015" fill="white"/>
<ellipse cx="955.527" cy="449.811" rx="0.528289" ry="0.56015" fill="white"/>
<ellipse cx="1034.77" cy="449.811" rx="0.528303" ry="0.56015" fill="white"/>
<ellipse cx="1114.01" cy="449.811" rx="0.528289" ry="0.56015" fill="white"/>
<ellipse cx="1193.26" cy="449.811" rx="0.528289" ry="0.56015" fill="white"/>
<ellipse cx="1272.5" cy="449.811" rx="0.528274" ry="0.56015" fill="white"/>
<ellipse cx="1351.74" cy="449.811" rx="0.528303" ry="0.56015" fill="white"/>
<ellipse cx="1430.99" cy="449.811" rx="0.528303" ry="0.56015" fill="white"/>
<ellipse cx="1510.23" cy="449.811" rx="0.528274" ry="0.56015" fill="white"/>
<ellipse cx="812.889" cy="505.827" rx="0.528289" ry="0.56015" fill="white"/>
<ellipse cx="892.132" cy="505.827" rx="0.528299" ry="0.56015" fill="white"/>
<ellipse cx="971.375" cy="505.827" rx="0.528289" ry="0.56015" fill="white"/>
<ellipse cx="1050.62" cy="505.827" rx="0.528274" ry="0.56015" fill="white"/>
<ellipse cx="1129.86" cy="505.827" rx="0.528303" ry="0.56015" fill="white"/>
<ellipse cx="1209.11" cy="505.827" rx="0.528289" ry="0.56015" fill="white"/>
<ellipse cx="1288.35" cy="505.827" rx="0.528303" ry="0.56015" fill="white"/>
<ellipse cx="1367.59" cy="505.827" rx="0.528274" ry="0.56015" fill="white"/>
<ellipse cx="1446.84" cy="505.827" rx="0.528303" ry="0.56015" fill="white"/>
<ellipse cx="1526.08" cy="505.827" rx="0.528303" ry="0.56015" fill="white"/>
<ellipse cx="849.869" cy="567.445" rx="0.528285" ry="0.56015" fill="white"/>
<ellipse cx="929.112" cy="567.445" rx="0.528289" ry="0.56015" fill="white"/>
<ellipse cx="1008.36" cy="567.445" rx="0.528281" ry="0.56015" fill="white"/>
<ellipse cx="1087.6" cy="567.445" rx="0.528289" ry="0.56015" fill="white"/>
<ellipse cx="1166.84" cy="567.445" rx="0.528332" ry="0.56015" fill="white"/>
<ellipse cx="1246.09" cy="567.445" rx="0.52823" ry="0.56015" fill="white"/>
<ellipse cx="1325.33" cy="567.445" rx="0.528303" ry="0.56015" fill="white"/>
<ellipse cx="1404.57" cy="567.445" rx="0.528274" ry="0.56015" fill="white"/>
<ellipse cx="1483.82" cy="567.445" rx="0.528274" ry="0.56015" fill="white"/>
<ellipse cx="1563.06" cy="567.445" rx="0.528303" ry="0.56015" fill="white"/>
<ellipse cx="818.171" cy="629.063" rx="0.528287" ry="0.560181" fill="white"/>
<ellipse cx="897.415" cy="629.063" rx="0.528289" ry="0.560181" fill="white"/>
<ellipse cx="976.658" cy="629.063" rx="0.52831" ry="0.560181" fill="white"/>
<ellipse cx="1055.9" cy="629.063" rx="0.528289" ry="0.560181" fill="white"/>
<ellipse cx="1135.15" cy="629.063" rx="0.528289" ry="0.560181" fill="white"/>
<ellipse cx="1214.39" cy="629.063" rx="0.528332" ry="0.560181" fill="white"/>
<ellipse cx="1293.63" cy="629.063" rx="0.528216" ry="0.560181" fill="white"/>
<ellipse cx="1372.88" cy="629.063" rx="0.528303" ry="0.560181" fill="white"/>
<ellipse cx="1452.12" cy="629.063" rx="0.528274" ry="0.560181" fill="white"/>
<ellipse cx="1531.36" cy="629.063" rx="0.528274" ry="0.560181" fill="white"/>
<ellipse cx="860.435" cy="689.561" rx="0.528285" ry="0.560181" fill="white"/>
<ellipse cx="939.678" cy="689.561" rx="0.528281" ry="0.560181" fill="white"/>
<ellipse cx="1018.92" cy="689.561" rx="0.52831" ry="0.560181" fill="white"/>
<ellipse cx="1098.16" cy="689.561" rx="0.528274" ry="0.560181" fill="white"/>
<ellipse cx="1177.41" cy="689.561" rx="0.528274" ry="0.560181" fill="white"/>
<ellipse cx="1256.65" cy="689.561" rx="0.528289" ry="0.560181" fill="white"/>
<ellipse cx="1335.9" cy="689.561" rx="0.528303" ry="0.560181" fill="white"/>
<ellipse cx="1415.14" cy="689.561" rx="0.528274" ry="0.560181" fill="white"/>
<ellipse cx="1494.38" cy="689.561" rx="0.528303" ry="0.560181" fill="white"/>
<ellipse cx="828.737" cy="751.179" rx="0.528287" ry="0.560181" fill="white"/>
<ellipse cx="907.981" cy="751.179" rx="0.528289" ry="0.560181" fill="white"/>
<ellipse cx="987.224" cy="751.179" rx="0.528296" ry="0.560181" fill="white"/>
<ellipse cx="1066.47" cy="751.179" rx="0.528289" ry="0.560181" fill="white"/>
<ellipse cx="1145.71" cy="751.179" rx="0.528274" ry="0.560181" fill="white"/>
<ellipse cx="1224.95" cy="751.179" rx="0.528274" ry="0.560181" fill="white"/>
<ellipse cx="1304.2" cy="751.179" rx="0.528303" ry="0.560181" fill="white"/>
<ellipse cx="1383.44" cy="751.179" rx="0.528303" ry="0.560181" fill="white"/>
<ellipse cx="1462.68" cy="751.179" rx="0.528274" ry="0.560181" fill="white"/>
<ellipse cx="1541.93" cy="751.179" rx="0.528303" ry="0.560181" fill="white"/>
<ellipse cx="797.04" cy="812.797" rx="0.528289" ry="0.56015" fill="white"/>
<ellipse cx="876.283" cy="812.797" rx="0.528289" ry="0.56015" fill="white"/>
<ellipse cx="955.527" cy="812.797" rx="0.528289" ry="0.56015" fill="white"/>
<ellipse cx="1034.77" cy="812.797" rx="0.528303" ry="0.56015" fill="white"/>
<ellipse cx="1114.01" cy="812.797" rx="0.528289" ry="0.56015" fill="white"/>
<ellipse cx="1193.26" cy="812.797" rx="0.528289" ry="0.56015" fill="white"/>
<ellipse cx="1272.5" cy="812.797" rx="0.528274" ry="0.56015" fill="white"/>
<ellipse cx="1351.74" cy="812.797" rx="0.528303" ry="0.56015" fill="white"/>
<ellipse cx="1430.99" cy="812.797" rx="0.528303" ry="0.56015" fill="white"/>
<ellipse cx="1510.23" cy="812.797" rx="0.528274" ry="0.56015" fill="white"/>
<ellipse cx="828.737" cy="874.415" rx="0.528287" ry="0.56015" fill="white"/>
<ellipse cx="907.981" cy="874.415" rx="0.528289" ry="0.56015" fill="white"/>
<ellipse cx="987.224" cy="874.415" rx="0.528296" ry="0.56015" fill="white"/>
<ellipse cx="1066.47" cy="874.415" rx="0.528289" ry="0.56015" fill="white"/>
<ellipse cx="1145.71" cy="874.415" rx="0.528274" ry="0.56015" fill="white"/>
<ellipse cx="1224.95" cy="874.415" rx="0.528274" ry="0.56015" fill="white"/>
<ellipse cx="1304.2" cy="874.415" rx="0.528303" ry="0.56015" fill="white"/>
<ellipse cx="1383.44" cy="874.415" rx="0.528303" ry="0.56015" fill="white"/>
<ellipse cx="1462.68" cy="874.415" rx="0.528274" ry="0.56015" fill="white"/>
<ellipse cx="807.606" cy="930.431" rx="0.528287" ry="0.56015" fill="white"/>
<ellipse cx="886.849" cy="930.431" rx="0.528274" ry="0.56015" fill="white"/>
<ellipse cx="966.092" cy="930.431" rx="0.528289" ry="0.56015" fill="white"/>
<ellipse cx="1045.34" cy="930.431" rx="0.528318" ry="0.56015" fill="white"/>
<ellipse cx="1124.58" cy="930.431" rx="0.528289" ry="0.56015" fill="white"/>
<ellipse cx="1203.82" cy="930.431" rx="0.52823" ry="0.56015" fill="white"/>
<ellipse cx="1283.07" cy="930.431" rx="0.528332" ry="0.56015" fill="white"/>
<ellipse cx="1362.31" cy="930.431" rx="0.528303" ry="0.56015" fill="white"/>
<ellipse cx="1441.55" cy="930.431" rx="0.528303" ry="0.56015" fill="white"/>
<ellipse cx="1441.55" cy="930.431" rx="0.528303" ry="0.56015" fill="white"/>
<ellipse cx="1541.93" cy="874.415" rx="0.528303" ry="0.56015" fill="white"/>
<ellipse cx="802.323" cy="6.16173" rx="0.528288" ry="0.560165" fill="white"/>
<ellipse cx="881.566" cy="6.16173" rx="0.528289" ry="0.560165" fill="white"/>
<ellipse cx="960.81" cy="6.16173" rx="0.528281" ry="0.560165" fill="white"/>
<ellipse cx="1040.05" cy="6.16173" rx="0.528259" ry="0.560165" fill="white"/>
<ellipse cx="1119.3" cy="6.16173" rx="0.528289" ry="0.560165" fill="white"/>
<ellipse cx="1198.54" cy="6.16173" rx="0.52823" ry="0.560165" fill="white"/>
<ellipse cx="1277.78" cy="6.16173" rx="0.528303" ry="0.560165" fill="white"/>
<ellipse cx="1357.03" cy="6.16173" rx="0.528274" ry="0.560165" fill="white"/>
<ellipse cx="1436.27" cy="6.16173" rx="0.528274" ry="0.560165" fill="white"/>
<ellipse cx="1515.51" cy="6.16173" rx="0.528303" ry="0.560165" fill="white"/>
<ellipse cx="839.303" cy="62.1781" rx="0.528292" ry="0.560165" fill="white"/>
<ellipse cx="918.546" cy="62.1781" rx="0.528289" ry="0.560165" fill="white"/>
<ellipse cx="997.79" cy="62.1781" rx="0.52831" ry="0.560165" fill="white"/>
<ellipse cx="1077.03" cy="62.1781" rx="0.528289" ry="0.560165" fill="white"/>
<ellipse cx="1156.28" cy="62.1781" rx="0.528274" ry="0.560165" fill="white"/>
<ellipse cx="1235.52" cy="62.1781" rx="0.528332" ry="0.560165" fill="white"/>
<ellipse cx="1314.76" cy="62.1781" rx="0.528303" ry="0.560165" fill="white"/>
<ellipse cx="1394.01" cy="62.1781" rx="0.528303" ry="0.560165" fill="white"/>
<ellipse cx="1473.25" cy="62.1781" rx="0.528274" ry="0.560165" fill="white"/>
<ellipse cx="1552.49" cy="62.1781" rx="0.528477" ry="0.560165" fill="white"/>
<ellipse cx="823.454" cy="118.194" rx="0.528289" ry="0.560165" fill="white"/>
<ellipse cx="902.698" cy="118.194" rx="0.528289" ry="0.560165" fill="white"/>
<ellipse cx="981.941" cy="118.194" rx="0.528267" ry="0.560165" fill="white"/>
<ellipse cx="1061.18" cy="118.194" rx="0.528274" ry="0.560165" fill="white"/>
<ellipse cx="1140.43" cy="118.194" rx="0.528289" ry="0.560165" fill="white"/>
<ellipse cx="1219.67" cy="118.194" rx="0.528289" ry="0.560165" fill="white"/>
<ellipse cx="1298.91" cy="118.194" rx="0.528245" ry="0.560165" fill="white"/>
<ellipse cx="1378.16" cy="118.194" rx="0.528274" ry="0.560165" fill="white"/>
<ellipse cx="1457.4" cy="118.194" rx="0.528303" ry="0.560165" fill="white"/>
<ellipse cx="1536.65" cy="118.194" rx="0.528303" ry="0.560165" fill="white"/>
<ellipse cx="839.303" cy="174.211" rx="0.528292" ry="0.560165" fill="white"/>
<ellipse cx="918.546" cy="174.211" rx="0.528289" ry="0.560165" fill="white"/>
<ellipse cx="997.79" cy="174.211" rx="0.52831" ry="0.560165" fill="white"/>
<ellipse cx="1077.03" cy="174.211" rx="0.528289" ry="0.560165" fill="white"/>
<ellipse cx="1156.28" cy="174.211" rx="0.528274" ry="0.560165" fill="white"/>
<ellipse cx="1235.52" cy="174.211" rx="0.528332" ry="0.560165" fill="white"/>
<ellipse cx="1314.76" cy="174.211" rx="0.528303" ry="0.560165" fill="white"/>
<ellipse cx="1394.01" cy="174.211" rx="0.528303" ry="0.560165" fill="white"/>
<ellipse cx="1473.25" cy="174.211" rx="0.528274" ry="0.560165" fill="white"/>
<ellipse cx="1552.49" cy="174.211" rx="0.528477" ry="0.560165" fill="white"/>
<ellipse cx="812.889" cy="231.347" rx="0.528289" ry="0.560165" fill="white"/>
<ellipse cx="892.132" cy="231.347" rx="0.528299" ry="0.560165" fill="white"/>
<ellipse cx="971.375" cy="231.347" rx="0.528289" ry="0.560165" fill="white"/>
<ellipse cx="1050.62" cy="231.347" rx="0.528274" ry="0.560165" fill="white"/>
<ellipse cx="1129.86" cy="231.347" rx="0.528303" ry="0.560165" fill="white"/>
<ellipse cx="1209.11" cy="231.347" rx="0.528289" ry="0.560165" fill="white"/>
<ellipse cx="1288.35" cy="231.347" rx="0.528303" ry="0.560165" fill="white"/>
<ellipse cx="1367.59" cy="231.347" rx="0.528274" ry="0.560165" fill="white"/>
<ellipse cx="1446.84" cy="231.347" rx="0.528303" ry="0.560165" fill="white"/>
<ellipse cx="1526.08" cy="231.347" rx="0.528303" ry="0.560165" fill="white"/>
<ellipse cx="844.586" cy="287.364" rx="0.528289" ry="0.560165" fill="white"/>
<ellipse cx="923.83" cy="287.364" rx="0.528289" ry="0.560165" fill="white"/>
<ellipse cx="1003.07" cy="287.364" rx="0.528281" ry="0.560165" fill="white"/>
<ellipse cx="1082.32" cy="287.364" rx="0.528303" ry="0.560165" fill="white"/>
<ellipse cx="1161.56" cy="287.364" rx="0.528289" ry="0.560165" fill="white"/>
<ellipse cx="1240.8" cy="287.364" rx="0.528289" ry="0.560165" fill="white"/>
<ellipse cx="1320.05" cy="287.364" rx="0.528274" ry="0.560165" fill="white"/>
<ellipse cx="1399.29" cy="287.364" rx="0.528303" ry="0.560165" fill="white"/>
<ellipse cx="1478.53" cy="287.364" rx="0.528303" ry="0.560165" fill="white"/>
<ellipse cx="834.02" cy="343.38" rx="0.528281" ry="0.560165" fill="white"/>
<ellipse cx="913.264" cy="343.38" rx="0.528296" ry="0.560165" fill="white"/>
<ellipse cx="992.507" cy="343.38" rx="0.528259" ry="0.560165" fill="white"/>
<ellipse cx="1071.75" cy="343.38" rx="0.528289" ry="0.560165" fill="white"/>
<ellipse cx="1150.99" cy="343.38" rx="0.528289" ry="0.560165" fill="white"/>
<ellipse cx="1230.24" cy="343.38" rx="0.528289" ry="0.560165" fill="white"/>
<ellipse cx="1309.48" cy="343.38" rx="0.528332" ry="0.560165" fill="white"/>
<ellipse cx="1388.72" cy="343.38" rx="0.528274" ry="0.560165" fill="white"/>
<ellipse cx="1467.97" cy="343.38" rx="0.528303" ry="0.560165" fill="white"/>
<ellipse cx="1547.21" cy="343.38" rx="0.528187" ry="0.560165" fill="white"/>
<ellipse cx="865.718" cy="399.396" rx="0.528289" ry="0.56015" fill="white"/>
<ellipse cx="944.961" cy="399.396" rx="0.528281" ry="0.56015" fill="white"/>
<ellipse cx="1024.2" cy="399.396" rx="0.52831" ry="0.56015" fill="white"/>
<ellipse cx="1103.45" cy="399.396" rx="0.528289" ry="0.56015" fill="white"/>
<ellipse cx="1182.69" cy="399.396" rx="0.528289" ry="0.56015" fill="white"/>
<ellipse cx="1261.93" cy="399.396" rx="0.528332" ry="0.56015" fill="white"/>
<ellipse cx="1341.18" cy="399.396" rx="0.528274" ry="0.56015" fill="white"/>
<ellipse cx="1420.42" cy="399.396" rx="0.528303" ry="0.56015" fill="white"/>
<ellipse cx="1499.66" cy="399.396" rx="0.528274" ry="0.56015" fill="white"/>
<ellipse cx="1578.91" cy="398.276" rx="0.528158" ry="0.56015" fill="white"/>
<ellipse cx="823.454" cy="455.413" rx="0.528289" ry="0.560181" fill="white"/>
<ellipse cx="902.698" cy="455.413" rx="0.528289" ry="0.560181" fill="white"/>
<ellipse cx="981.941" cy="455.413" rx="0.528267" ry="0.560181" fill="white"/>
<ellipse cx="1061.18" cy="455.413" rx="0.528274" ry="0.560181" fill="white"/>
<ellipse cx="1140.43" cy="455.413" rx="0.528289" ry="0.560181" fill="white"/>
<ellipse cx="1219.67" cy="455.413" rx="0.528289" ry="0.560181" fill="white"/>
<ellipse cx="1298.91" cy="455.413" rx="0.528245" ry="0.560181" fill="white"/>
<ellipse cx="1378.16" cy="455.413" rx="0.528274" ry="0.560181" fill="white"/>
<ellipse cx="1457.4" cy="455.413" rx="0.528303" ry="0.560181" fill="white"/>
<ellipse cx="1536.65" cy="455.413" rx="0.528303" ry="0.560181" fill="white"/>
<ellipse cx="839.303" cy="511.429" rx="0.528292" ry="0.560181" fill="white"/>
<ellipse cx="918.546" cy="511.429" rx="0.528289" ry="0.560181" fill="white"/>
<ellipse cx="997.79" cy="511.429" rx="0.52831" ry="0.560181" fill="white"/>
<ellipse cx="1077.03" cy="511.429" rx="0.528289" ry="0.560181" fill="white"/>
<ellipse cx="1156.28" cy="511.429" rx="0.528274" ry="0.560181" fill="white"/>
<ellipse cx="1235.52" cy="511.429" rx="0.528332" ry="0.560181" fill="white"/>
<ellipse cx="1314.76" cy="511.429" rx="0.528303" ry="0.560181" fill="white"/>
<ellipse cx="1394.01" cy="511.429" rx="0.528303" ry="0.560181" fill="white"/>
<ellipse cx="1473.25" cy="511.429" rx="0.528274" ry="0.560181" fill="white"/>
<ellipse cx="1552.49" cy="511.429" rx="0.528477" ry="0.560181" fill="white"/>
<ellipse cx="876.284" cy="573.047" rx="0.528289" ry="0.56015" fill="white"/>
<ellipse cx="955.527" cy="573.047" rx="0.528289" ry="0.56015" fill="white"/>
<ellipse cx="1034.77" cy="573.047" rx="0.528303" ry="0.56015" fill="white"/>
<ellipse cx="1114.01" cy="573.047" rx="0.528289" ry="0.56015" fill="white"/>
<ellipse cx="1193.26" cy="573.047" rx="0.528289" ry="0.56015" fill="white"/>
<ellipse cx="1272.5" cy="573.047" rx="0.528274" ry="0.56015" fill="white"/>
<ellipse cx="1351.74" cy="573.047" rx="0.528303" ry="0.56015" fill="white"/>
<ellipse cx="1430.99" cy="573.047" rx="0.528303" ry="0.56015" fill="white"/>
<ellipse cx="1510.23" cy="573.047" rx="0.528274" ry="0.56015" fill="white"/>
<ellipse cx="1589.47" cy="571.927" rx="0.528303" ry="0.560181" fill="white"/>
<ellipse cx="844.586" cy="634.665" rx="0.528289" ry="0.56015" fill="white"/>
<ellipse cx="923.83" cy="634.665" rx="0.528289" ry="0.56015" fill="white"/>
<ellipse cx="1003.07" cy="634.665" rx="0.528281" ry="0.56015" fill="white"/>
<ellipse cx="1082.32" cy="634.665" rx="0.528303" ry="0.56015" fill="white"/>
<ellipse cx="1161.56" cy="634.665" rx="0.528289" ry="0.56015" fill="white"/>
<ellipse cx="1240.8" cy="634.665" rx="0.528289" ry="0.56015" fill="white"/>
<ellipse cx="1320.05" cy="634.665" rx="0.528274" ry="0.56015" fill="white"/>
<ellipse cx="1399.29" cy="634.665" rx="0.528303" ry="0.56015" fill="white"/>
<ellipse cx="1478.53" cy="634.665" rx="0.528303" ry="0.56015" fill="white"/>
<ellipse cx="1557.78" cy="634.665" rx="0.528303" ry="0.56015" fill="white"/>
<ellipse cx="886.849" cy="695.163" rx="0.528274" ry="0.56015" fill="white"/>
<ellipse cx="966.092" cy="695.163" rx="0.528289" ry="0.56015" fill="white"/>
<ellipse cx="1045.34" cy="695.163" rx="0.528318" ry="0.56015" fill="white"/>
<ellipse cx="1124.58" cy="695.163" rx="0.528289" ry="0.56015" fill="white"/>
<ellipse cx="1203.82" cy="695.163" rx="0.52823" ry="0.56015" fill="white"/>
<ellipse cx="1283.07" cy="695.163" rx="0.528332" ry="0.56015" fill="white"/>
<ellipse cx="1362.31" cy="695.163" rx="0.528303" ry="0.56015" fill="white"/>
<ellipse cx="1441.55" cy="695.163" rx="0.528303" ry="0.56015" fill="white"/>
<ellipse cx="1520.8" cy="695.163" rx="0.528274" ry="0.56015" fill="white"/>
<ellipse cx="855.152" cy="756.781" rx="0.528289" ry="0.560181" fill="white"/>
<ellipse cx="934.395" cy="756.781" rx="0.528289" ry="0.560181" fill="white"/>
<ellipse cx="1013.64" cy="756.781" rx="0.528281" ry="0.560181" fill="white"/>
<ellipse cx="1092.88" cy="756.781" rx="0.528289" ry="0.560181" fill="white"/>
<ellipse cx="1172.13" cy="756.781" rx="0.528289" ry="0.560181" fill="white"/>
<ellipse cx="1251.37" cy="756.781" rx="0.52823" ry="0.560181" fill="white"/>
<ellipse cx="1330.61" cy="756.781" rx="0.528274" ry="0.560181" fill="white"/>
<ellipse cx="1409.86" cy="756.781" rx="0.528303" ry="0.560181" fill="white"/>
<ellipse cx="1489.1" cy="756.781" rx="0.528303" ry="0.560181" fill="white"/>
<ellipse cx="1568.34" cy="756.781" rx="0.528303" ry="0.560181" fill="white"/>
<ellipse cx="823.454" cy="818.399" rx="0.528289" ry="0.560181" fill="white"/>
<ellipse cx="902.698" cy="818.399" rx="0.528289" ry="0.560181" fill="white"/>
<ellipse cx="981.941" cy="818.399" rx="0.528267" ry="0.560181" fill="white"/>
<ellipse cx="1061.18" cy="818.399" rx="0.528274" ry="0.560181" fill="white"/>
<ellipse cx="1140.43" cy="818.399" rx="0.528289" ry="0.560181" fill="white"/>
<ellipse cx="1219.67" cy="818.399" rx="0.528289" ry="0.560181" fill="white"/>
<ellipse cx="1298.91" cy="818.399" rx="0.528245" ry="0.560181" fill="white"/>
<ellipse cx="1378.16" cy="818.399" rx="0.528274" ry="0.560181" fill="white"/>
<ellipse cx="1457.4" cy="818.399" rx="0.528303" ry="0.560181" fill="white"/>
<ellipse cx="1536.65" cy="818.399" rx="0.528303" ry="0.560181" fill="white"/>
<ellipse cx="855.152" cy="880.017" rx="0.528289" ry="0.56015" fill="white"/>
<ellipse cx="934.395" cy="880.017" rx="0.528289" ry="0.56015" fill="white"/>
<ellipse cx="1013.64" cy="880.017" rx="0.528281" ry="0.56015" fill="white"/>
<ellipse cx="1092.88" cy="880.017" rx="0.528289" ry="0.56015" fill="white"/>
<ellipse cx="1172.13" cy="880.017" rx="0.528289" ry="0.56015" fill="white"/>
<ellipse cx="1251.37" cy="880.017" rx="0.52823" ry="0.56015" fill="white"/>
<ellipse cx="1330.61" cy="880.017" rx="0.528274" ry="0.56015" fill="white"/>
<ellipse cx="1409.86" cy="880.017" rx="0.528303" ry="0.56015" fill="white"/>
<ellipse cx="1489.1" cy="880.017" rx="0.528303" ry="0.56015" fill="white"/>
<ellipse cx="834.02" cy="936.033" rx="0.528281" ry="0.56015" fill="white"/>
<ellipse cx="913.264" cy="936.033" rx="0.528296" ry="0.56015" fill="white"/>
<ellipse cx="992.507" cy="936.033" rx="0.528259" ry="0.56015" fill="white"/>
<ellipse cx="1071.75" cy="936.033" rx="0.528289" ry="0.56015" fill="white"/>
<ellipse cx="1150.99" cy="936.033" rx="0.528289" ry="0.56015" fill="white"/>
<ellipse cx="1230.24" cy="936.033" rx="0.528289" ry="0.56015" fill="white"/>
<ellipse cx="1309.48" cy="936.033" rx="0.528332" ry="0.56015" fill="white"/>
<ellipse cx="1388.72" cy="936.033" rx="0.528274" ry="0.56015" fill="white"/>
<ellipse cx="1467.97" cy="936.033" rx="0.528303" ry="0.56015" fill="white"/>
<ellipse cx="1467.97" cy="936.033" rx="0.528303" ry="0.56015" fill="white"/>
<ellipse cx="1568.34" cy="880.017" rx="0.528303" ry="0.56015" fill="white"/>
<ellipse cx="746.324" cy="28.5684" rx="0.528287" ry="0.560165" fill="white"/>
<ellipse cx="825.568" cy="28.5684" rx="0.528287" ry="0.560165" fill="white"/>
<ellipse cx="904.811" cy="28.5684" rx="0.528303" ry="0.560165" fill="white"/>
<ellipse cx="984.054" cy="28.5684" rx="0.528267" ry="0.560165" fill="white"/>
<ellipse cx="1063.3" cy="28.5684" rx="0.528289" ry="0.560165" fill="white"/>
<ellipse cx="1142.54" cy="28.5684" rx="0.528289" ry="0.560165" fill="white"/>
<ellipse cx="1221.78" cy="28.5684" rx="0.528332" ry="0.560165" fill="white"/>
<ellipse cx="1301.03" cy="28.5684" rx="0.528303" ry="0.560165" fill="white"/>
<ellipse cx="1380.27" cy="28.5684" rx="0.528274" ry="0.560165" fill="white"/>
<ellipse cx="1459.51" cy="28.5684" rx="0.528274" ry="0.560165" fill="white"/>
<ellipse cx="783.304" cy="84.5846" rx="0.528287" ry="0.560165" fill="white"/>
<ellipse cx="862.548" cy="84.5846" rx="0.528289" ry="0.560165" fill="white"/>
<ellipse cx="941.791" cy="84.5846" rx="0.528289" ry="0.560165" fill="white"/>
<ellipse cx="1021.03" cy="84.5846" rx="0.528267" ry="0.560165" fill="white"/>
<ellipse cx="1100.28" cy="84.5846" rx="0.528274" ry="0.560165" fill="white"/>
<ellipse cx="1179.52" cy="84.5846" rx="0.528303" ry="0.560165" fill="white"/>
<ellipse cx="1258.76" cy="84.5846" rx="0.528332" ry="0.560165" fill="white"/>
<ellipse cx="1338.01" cy="84.5846" rx="0.528274" ry="0.560165" fill="white"/>
<ellipse cx="1417.25" cy="84.5846" rx="0.528303" ry="0.560165" fill="white"/>
<ellipse cx="1496.49" cy="84.5846" rx="0.528274" ry="0.560165" fill="white"/>
<ellipse cx="767.456" cy="140.601" rx="0.528287" ry="0.560165" fill="white"/>
<ellipse cx="846.699" cy="140.601" rx="0.528289" ry="0.560165" fill="white"/>
<ellipse cx="925.943" cy="140.601" rx="0.528289" ry="0.560165" fill="white"/>
<ellipse cx="1005.19" cy="140.601" rx="0.528281" ry="0.560165" fill="white"/>
<ellipse cx="1084.43" cy="140.601" rx="0.528289" ry="0.560165" fill="white"/>
<ellipse cx="1163.67" cy="140.601" rx="0.528332" ry="0.560165" fill="white"/>
<ellipse cx="1242.92" cy="140.601" rx="0.528289" ry="0.560165" fill="white"/>
<ellipse cx="1322.16" cy="140.601" rx="0.528303" ry="0.560165" fill="white"/>
<ellipse cx="1401.4" cy="140.601" rx="0.528274" ry="0.560165" fill="white"/>
<ellipse cx="1480.65" cy="140.601" rx="0.528274" ry="0.560165" fill="white"/>
<ellipse cx="783.304" cy="196.617" rx="0.528287" ry="0.560165" fill="white"/>
<ellipse cx="862.548" cy="196.617" rx="0.528289" ry="0.560165" fill="white"/>
<ellipse cx="941.791" cy="196.617" rx="0.528289" ry="0.560165" fill="white"/>
<ellipse cx="1021.03" cy="196.617" rx="0.528267" ry="0.560165" fill="white"/>
<ellipse cx="1100.28" cy="196.617" rx="0.528274" ry="0.560165" fill="white"/>
<ellipse cx="1179.52" cy="196.617" rx="0.528303" ry="0.560165" fill="white"/>
<ellipse cx="1258.76" cy="196.617" rx="0.528332" ry="0.560165" fill="white"/>
<ellipse cx="1338.01" cy="196.617" rx="0.528274" ry="0.560165" fill="white"/>
<ellipse cx="1417.25" cy="196.617" rx="0.528303" ry="0.560165" fill="white"/>
<ellipse cx="1496.49" cy="196.617" rx="0.528274" ry="0.560165" fill="white"/>
<ellipse cx="756.89" cy="253.754" rx="0.528287" ry="0.560165" fill="white"/>
<ellipse cx="836.133" cy="253.754" rx="0.528279" ry="0.560165" fill="white"/>
<ellipse cx="915.377" cy="253.754" rx="0.528289" ry="0.560165" fill="white"/>
<ellipse cx="994.62" cy="253.754" rx="0.528289" ry="0.560165" fill="white"/>
<ellipse cx="1073.86" cy="253.754" rx="0.528289" ry="0.560165" fill="white"/>
<ellipse cx="1153.11" cy="253.754" rx="0.528289" ry="0.560165" fill="white"/>
<ellipse cx="1232.35" cy="253.754" rx="0.52823" ry="0.560165" fill="white"/>
<ellipse cx="1311.59" cy="253.754" rx="0.528274" ry="0.560165" fill="white"/>
<ellipse cx="1390.84" cy="253.754" rx="0.528274" ry="0.560165" fill="white"/>
<ellipse cx="1470.08" cy="253.754" rx="0.528303" ry="0.560165" fill="white"/>
<ellipse cx="788.587" cy="309.77" rx="0.528287" ry="0.560165" fill="white"/>
<ellipse cx="867.831" cy="309.77" rx="0.528289" ry="0.560165" fill="white"/>
<ellipse cx="947.074" cy="309.77" rx="0.528289" ry="0.560165" fill="white"/>
<ellipse cx="1026.32" cy="309.77" rx="0.528289" ry="0.560165" fill="white"/>
<ellipse cx="1105.56" cy="309.77" rx="0.528289" ry="0.560165" fill="white"/>
<ellipse cx="1184.8" cy="309.77" rx="0.52823" ry="0.560165" fill="white"/>
<ellipse cx="1264.05" cy="309.77" rx="0.528289" ry="0.560165" fill="white"/>
<ellipse cx="1343.29" cy="309.77" rx="0.528274" ry="0.560165" fill="white"/>
<ellipse cx="1422.53" cy="309.77" rx="0.528303" ry="0.560165" fill="white"/>
<ellipse cx="778.022" cy="365.786" rx="0.528287" ry="0.56015" fill="white"/>
<ellipse cx="857.265" cy="365.786" rx="0.528289" ry="0.56015" fill="white"/>
<ellipse cx="936.508" cy="365.786" rx="0.528289" ry="0.56015" fill="white"/>
<ellipse cx="1015.75" cy="365.786" rx="0.528267" ry="0.56015" fill="white"/>
<ellipse cx="1095" cy="365.786" rx="0.528289" ry="0.56015" fill="white"/>
<ellipse cx="1174.24" cy="365.786" rx="0.528332" ry="0.56015" fill="white"/>
<ellipse cx="1253.48" cy="365.786" rx="0.528289" ry="0.56015" fill="white"/>
<ellipse cx="1332.73" cy="365.786" rx="0.528274" ry="0.56015" fill="white"/>
<ellipse cx="1411.97" cy="365.786" rx="0.528274" ry="0.56015" fill="white"/>
<ellipse cx="1491.21" cy="365.786" rx="0.528303" ry="0.56015" fill="white"/>
<ellipse cx="809.719" cy="421.803" rx="0.528288" ry="0.560181" fill="white"/>
<ellipse cx="888.962" cy="421.803" rx="0.528289" ry="0.560181" fill="white"/>
<ellipse cx="968.206" cy="421.803" rx="0.528289" ry="0.560181" fill="white"/>
<ellipse cx="1047.45" cy="421.803" rx="0.528289" ry="0.560181" fill="white"/>
<ellipse cx="1126.69" cy="421.803" rx="0.528289" ry="0.560181" fill="white"/>
<ellipse cx="1205.94" cy="421.803" rx="0.528289" ry="0.560181" fill="white"/>
<ellipse cx="1285.18" cy="421.803" rx="0.528216" ry="0.560181" fill="white"/>
<ellipse cx="1364.42" cy="421.803" rx="0.528274" ry="0.560181" fill="white"/>
<ellipse cx="1443.67" cy="421.803" rx="0.528303" ry="0.560181" fill="white"/>
<ellipse cx="1522.91" cy="421.803" rx="0.528274" ry="0.560181" fill="white"/>
<ellipse cx="767.456" cy="477.819" rx="0.528287" ry="0.56015" fill="white"/>
<ellipse cx="846.699" cy="477.819" rx="0.528289" ry="0.56015" fill="white"/>
<ellipse cx="925.943" cy="477.819" rx="0.528289" ry="0.56015" fill="white"/>
<ellipse cx="1005.19" cy="477.819" rx="0.528281" ry="0.56015" fill="white"/>
<ellipse cx="1084.43" cy="477.819" rx="0.528289" ry="0.56015" fill="white"/>
<ellipse cx="1163.67" cy="477.819" rx="0.528332" ry="0.56015" fill="white"/>
<ellipse cx="1242.92" cy="477.819" rx="0.528289" ry="0.56015" fill="white"/>
<ellipse cx="1322.16" cy="477.819" rx="0.528303" ry="0.56015" fill="white"/>
<ellipse cx="1401.4" cy="477.819" rx="0.528274" ry="0.56015" fill="white"/>
<ellipse cx="1480.65" cy="477.819" rx="0.528274" ry="0.56015" fill="white"/>
<ellipse cx="783.304" cy="533.836" rx="0.528287" ry="0.560181" fill="white"/>
<ellipse cx="862.548" cy="533.836" rx="0.528289" ry="0.560181" fill="white"/>
<ellipse cx="941.791" cy="533.836" rx="0.528289" ry="0.560181" fill="white"/>
<ellipse cx="1021.03" cy="533.836" rx="0.528267" ry="0.560181" fill="white"/>
<ellipse cx="1100.28" cy="533.836" rx="0.528274" ry="0.560181" fill="white"/>
<ellipse cx="1179.52" cy="533.836" rx="0.528303" ry="0.560181" fill="white"/>
<ellipse cx="1258.76" cy="533.836" rx="0.528332" ry="0.560181" fill="white"/>
<ellipse cx="1338.01" cy="533.836" rx="0.528274" ry="0.560181" fill="white"/>
<ellipse cx="1417.25" cy="533.836" rx="0.528303" ry="0.560181" fill="white"/>
<ellipse cx="1496.49" cy="533.836" rx="0.528274" ry="0.560181" fill="white"/>
<ellipse cx="820.285" cy="595.453" rx="0.528287" ry="0.56015" fill="white"/>
<ellipse cx="899.528" cy="595.453" rx="0.528274" ry="0.56015" fill="white"/>
<ellipse cx="978.771" cy="595.453" rx="0.528296" ry="0.56015" fill="white"/>
<ellipse cx="1058.01" cy="595.453" rx="0.528289" ry="0.56015" fill="white"/>
<ellipse cx="1137.26" cy="595.453" rx="0.528274" ry="0.56015" fill="white"/>
<ellipse cx="1216.5" cy="595.453" rx="0.528289" ry="0.56015" fill="white"/>
<ellipse cx="1295.75" cy="595.453" rx="0.528332" ry="0.56015" fill="white"/>
<ellipse cx="1374.99" cy="595.453" rx="0.528303" ry="0.56015" fill="white"/>
<ellipse cx="1454.23" cy="595.453" rx="0.528274" ry="0.56015" fill="white"/>
<ellipse cx="1533.48" cy="595.453" rx="0.528274" ry="0.56015" fill="white"/>
<ellipse cx="788.587" cy="657.071" rx="0.528287" ry="0.560181" fill="white"/>
<ellipse cx="867.831" cy="657.071" rx="0.528289" ry="0.560181" fill="white"/>
<ellipse cx="947.074" cy="657.071" rx="0.528289" ry="0.560181" fill="white"/>
<ellipse cx="1026.32" cy="657.071" rx="0.528289" ry="0.560181" fill="white"/>
<ellipse cx="1105.56" cy="657.071" rx="0.528289" ry="0.560181" fill="white"/>
<ellipse cx="1184.8" cy="657.071" rx="0.52823" ry="0.560181" fill="white"/>
<ellipse cx="1264.05" cy="657.071" rx="0.528289" ry="0.560181" fill="white"/>
<ellipse cx="1343.29" cy="657.071" rx="0.528274" ry="0.560181" fill="white"/>
<ellipse cx="1422.53" cy="657.071" rx="0.528303" ry="0.560181" fill="white"/>
<ellipse cx="1501.78" cy="657.071" rx="0.528274" ry="0.560181" fill="white"/>
<ellipse cx="830.851" cy="717.569" rx="0.528292" ry="0.560119" fill="white"/>
<ellipse cx="910.094" cy="717.569" rx="0.528274" ry="0.560119" fill="white"/>
<ellipse cx="989.337" cy="717.569" rx="0.528318" ry="0.560119" fill="white"/>
<ellipse cx="1068.58" cy="717.569" rx="0.528289" ry="0.560119" fill="white"/>
<ellipse cx="1147.82" cy="717.569" rx="0.528274" ry="0.560119" fill="white"/>
<ellipse cx="1227.07" cy="717.569" rx="0.528303" ry="0.560119" fill="white"/>
<ellipse cx="1306.31" cy="717.569" rx="0.528332" ry="0.560119" fill="white"/>
<ellipse cx="1385.55" cy="717.569" rx="0.528274" ry="0.560119" fill="white"/>
<ellipse cx="1464.8" cy="717.569" rx="0.528303" ry="0.560119" fill="white"/>
<ellipse cx="799.153" cy="779.187" rx="0.528287" ry="0.560181" fill="white"/>
<ellipse cx="878.397" cy="779.187" rx="0.528274" ry="0.560181" fill="white"/>
<ellipse cx="957.64" cy="779.187" rx="0.528289" ry="0.560181" fill="white"/>
<ellipse cx="1036.88" cy="779.187" rx="0.528318" ry="0.560181" fill="white"/>
<ellipse cx="1116.13" cy="779.187" rx="0.528289" ry="0.560181" fill="white"/>
<ellipse cx="1195.37" cy="779.187" rx="0.528289" ry="0.560181" fill="white"/>
<ellipse cx="1274.61" cy="779.187" rx="0.528303" ry="0.560181" fill="white"/>
<ellipse cx="1353.86" cy="779.187" rx="0.528274" ry="0.560181" fill="white"/>
<ellipse cx="1433.1" cy="779.187" rx="0.528274" ry="0.560181" fill="white"/>
<ellipse cx="1512.34" cy="779.187" rx="0.528303" ry="0.560181" fill="white"/>
<ellipse cx="767.456" cy="840.805" rx="0.528287" ry="0.56015" fill="white"/>
<ellipse cx="846.699" cy="840.805" rx="0.528289" ry="0.56015" fill="white"/>
<ellipse cx="925.943" cy="840.805" rx="0.528289" ry="0.56015" fill="white"/>
<ellipse cx="1005.19" cy="840.805" rx="0.528281" ry="0.56015" fill="white"/>
<ellipse cx="1084.43" cy="840.805" rx="0.528289" ry="0.56015" fill="white"/>
<ellipse cx="1163.67" cy="840.805" rx="0.528332" ry="0.56015" fill="white"/>
<ellipse cx="1242.92" cy="840.805" rx="0.528289" ry="0.56015" fill="white"/>
<ellipse cx="1322.16" cy="840.805" rx="0.528303" ry="0.56015" fill="white"/>
<ellipse cx="1401.4" cy="840.805" rx="0.528274" ry="0.56015" fill="white"/>
<ellipse cx="1480.65" cy="840.805" rx="0.528274" ry="0.56015" fill="white"/>
<ellipse cx="799.153" cy="902.423" rx="0.528287" ry="0.560088" fill="white"/>
<ellipse cx="878.397" cy="902.423" rx="0.528274" ry="0.560088" fill="white"/>
<ellipse cx="957.64" cy="902.423" rx="0.528289" ry="0.560088" fill="white"/>
<ellipse cx="1036.88" cy="902.423" rx="0.528318" ry="0.560088" fill="white"/>
<ellipse cx="1116.13" cy="902.423" rx="0.528289" ry="0.560088" fill="white"/>
<ellipse cx="1195.37" cy="902.423" rx="0.528289" ry="0.560088" fill="white"/>
<ellipse cx="1274.61" cy="902.423" rx="0.528303" ry="0.560088" fill="white"/>
<ellipse cx="1353.86" cy="902.423" rx="0.528274" ry="0.560088" fill="white"/>
<ellipse cx="1433.1" cy="902.423" rx="0.528274" ry="0.560088" fill="white"/>
<ellipse cx="778.022" cy="958.44" rx="0.528287" ry="0.56015" fill="white"/>
<ellipse cx="857.265" cy="958.44" rx="0.528289" ry="0.56015" fill="white"/>
<ellipse cx="936.508" cy="958.44" rx="0.528289" ry="0.56015" fill="white"/>
<ellipse cx="1015.75" cy="958.44" rx="0.528267" ry="0.56015" fill="white"/>
<ellipse cx="1095" cy="958.44" rx="0.528289" ry="0.56015" fill="white"/>
<ellipse cx="1174.24" cy="958.44" rx="0.528332" ry="0.56015" fill="white"/>
<ellipse cx="1253.48" cy="958.44" rx="0.528289" ry="0.56015" fill="white"/>
<ellipse cx="1332.73" cy="958.44" rx="0.528274" ry="0.56015" fill="white"/>
<ellipse cx="1411.97" cy="958.44" rx="0.528274" ry="0.56015" fill="white"/>
<ellipse cx="1411.97" cy="958.44" rx="0.528274" ry="0.56015" fill="white"/>
<ellipse cx="1512.34" cy="902.423" rx="0.528303" ry="0.560088" fill="white"/>
<ellipse cx="785.418" cy="79.5433" rx="1.05658" ry="1.12033" fill="white"/>
<ellipse cx="943.904" cy="85.1448" rx="1.05658" ry="1.12032" fill="white"/>
<ellipse cx="1102.39" cy="79.5433" rx="1.05658" ry="1.12033" fill="white"/>
<ellipse cx="1260.88" cy="73.9416" rx="1.05654" ry="1.12032" fill="white"/>
<ellipse cx="1419.36" cy="79.5433" rx="1.05658" ry="1.12033" fill="white"/>
<ellipse cx="1577.85" cy="85.1448" rx="1.05647" ry="1.12032" fill="white"/>
<ellipse cx="848.812" cy="191.576" rx="1.05657" ry="1.12033" fill="white"/>
<ellipse cx="1007.3" cy="197.178" rx="1.05655" ry="1.12033" fill="white"/>
<ellipse cx="1165.79" cy="191.576" rx="1.05654" ry="1.12033" fill="white"/>
<ellipse cx="1324.27" cy="185.974" rx="1.05658" ry="1.12033" fill="white"/>
<ellipse cx="1482.76" cy="191.576" rx="1.05655" ry="1.12033" fill="white"/>
<ellipse cx="822.398" cy="304.729" rx="1.05658" ry="1.12033" fill="white"/>
<ellipse cx="980.885" cy="310.33" rx="1.05658" ry="1.12033" fill="white"/>
<ellipse cx="1139.37" cy="304.729" rx="1.05658" ry="1.12033" fill="white"/>
<ellipse cx="1297.86" cy="299.127" rx="1.05661" ry="1.12031" fill="white"/>
<ellipse cx="1456.34" cy="304.729" rx="1.05655" ry="1.12033" fill="white"/>
<ellipse cx="795.983" cy="416.762" rx="1.05658" ry="1.12033" fill="white"/>
<ellipse cx="954.47" cy="422.363" rx="1.05657" ry="1.12033" fill="white"/>
<ellipse cx="1112.96" cy="416.762" rx="1.05657" ry="1.12033" fill="white"/>
<ellipse cx="1271.44" cy="411.16" rx="1.05664" ry="1.12033" fill="white"/>
<ellipse cx="1429.93" cy="416.762" rx="1.05658" ry="1.12033" fill="white"/>
<ellipse cx="1588.42" cy="421.243" rx="1.05647" ry="1.12033" fill="white"/>
<ellipse cx="880.51" cy="528.794" rx="1.05659" ry="1.12033" fill="white"/>
<ellipse cx="1039" cy="534.396" rx="1.05658" ry="1.12036" fill="white"/>
<ellipse cx="1197.48" cy="528.794" rx="1.05657" ry="1.12033" fill="white"/>
<ellipse cx="1355.97" cy="523.192" rx="1.05658" ry="1.12033" fill="white"/>
<ellipse cx="1514.46" cy="528.794" rx="1.05658" ry="1.12033" fill="white"/>
<ellipse cx="781.72" cy="640.827" rx="1.05658" ry="1.12033" fill="white"/>
<ellipse cx="940.206" cy="646.428" rx="1.05657" ry="1.12033" fill="white"/>
<ellipse cx="1098.69" cy="640.827" rx="1.05658" ry="1.12033" fill="white"/>
<ellipse cx="1257.18" cy="635.225" rx="1.05658" ry="1.12033" fill="white"/>
<ellipse cx="1415.67" cy="640.827" rx="1.05658" ry="1.12033" fill="white"/>
<ellipse cx="1574.15" cy="645.308" rx="1.05649" ry="1.12036" fill="white"/>
<ellipse cx="793.87" cy="737.175" rx="1.05658" ry="1.12033" fill="white"/>
<ellipse cx="952.357" cy="742.777" rx="1.05658" ry="1.12033" fill="white"/>
<ellipse cx="1110.84" cy="737.175" rx="1.05658" ry="1.12033" fill="white"/>
<ellipse cx="1269.33" cy="731.573" rx="1.05655" ry="1.12033" fill="white"/>
<ellipse cx="1427.82" cy="737.175" rx="1.05658" ry="1.12033" fill="white"/>
<ellipse cx="1586.3" cy="742.777" rx="1.05658" ry="1.12033" fill="white"/>
<ellipse cx="832.435" cy="857.05" rx="1.05658" ry="1.12033" fill="white"/>
<ellipse cx="990.922" cy="862.652" rx="1.05655" ry="1.1203" fill="white"/>
<ellipse cx="1149.41" cy="857.05" rx="1.05658" ry="1.12033" fill="white"/>
<ellipse cx="1307.9" cy="851.449" rx="1.05652" ry="1.12033" fill="white"/>
<ellipse cx="1466.38" cy="857.05" rx="1.05655" ry="1.12033" fill="white"/>
<ellipse cx="1507.06" cy="956.759" rx="1.05658" ry="1.12036" fill="white"/>
<ellipse cx="901.641" cy="34.7301" rx="1.05657" ry="1.12032" fill="white"/>
<ellipse cx="1060.13" cy="29.1286" rx="1.05657" ry="1.12032" fill="white"/>
<ellipse cx="1218.61" cy="23.5269" rx="1.05657" ry="1.12033" fill="white"/>
<ellipse cx="1377.1" cy="29.1286" rx="1.05658" ry="1.12032" fill="white"/>
<ellipse cx="1535.59" cy="34.7301" rx="1.05661" ry="1.12032" fill="white"/>
<ellipse cx="869.944" cy="146.763" rx="1.05658" ry="1.12035" fill="white"/>
<ellipse cx="1028.43" cy="141.161" rx="1.05658" ry="1.12033" fill="white"/>
<ellipse cx="1186.92" cy="135.56" rx="1.05663" ry="1.12033" fill="white"/>
<ellipse cx="1345.4" cy="141.161" rx="1.05661" ry="1.12033" fill="white"/>
<ellipse cx="1503.89" cy="146.763" rx="1.05655" ry="1.12035" fill="white"/>
<ellipse cx="774.852" cy="254.314" rx="1.05658" ry="1.12033" fill="white"/>
<ellipse cx="933.339" cy="259.916" rx="1.05657" ry="1.12031" fill="white"/>
<ellipse cx="1091.83" cy="254.314" rx="1.05658" ry="1.12033" fill="white"/>
<ellipse cx="1250.31" cy="248.712" rx="1.0566" ry="1.12033" fill="white"/>
<ellipse cx="1408.8" cy="254.314" rx="1.05655" ry="1.12033" fill="white"/>
<ellipse cx="1567.29" cy="258.796" rx="1.05658" ry="1.12033" fill="white"/>
<ellipse cx="906.924" cy="371.948" rx="1.05657" ry="1.12033" fill="white"/>
<ellipse cx="1065.41" cy="366.347" rx="1.05657" ry="1.1203" fill="white"/>
<ellipse cx="1223.9" cy="360.745" rx="1.05663" ry="1.12033" fill="white"/>
<ellipse cx="1382.38" cy="366.347" rx="1.05658" ry="1.1203" fill="white"/>
<ellipse cx="1540.87" cy="371.948" rx="1.05658" ry="1.12033" fill="white"/>
<ellipse cx="880.51" cy="483.981" rx="1.05659" ry="1.12033" fill="white"/>
<ellipse cx="1039" cy="478.379" rx="1.05658" ry="1.12033" fill="white"/>
<ellipse cx="1197.48" cy="472.778" rx="1.05657" ry="1.12033" fill="white"/>
<ellipse cx="1355.97" cy="478.379" rx="1.05658" ry="1.12033" fill="white"/>
<ellipse cx="1514.46" cy="483.981" rx="1.05658" ry="1.12033" fill="white"/>
<ellipse cx="806.549" cy="590.412" rx="1.05658" ry="1.1203" fill="white"/>
<ellipse cx="965.036" cy="596.014" rx="1.05658" ry="1.12033" fill="white"/>
<ellipse cx="1123.52" cy="590.412" rx="1.05658" ry="1.1203" fill="white"/>
<ellipse cx="1282.01" cy="584.81" rx="1.05664" ry="1.12033" fill="white"/>
<ellipse cx="1440.5" cy="590.412" rx="1.05661" ry="1.1203" fill="white"/>
<ellipse cx="1598.98" cy="594.893" rx="1.05658" ry="1.12033" fill="white"/>
<ellipse cx="866.246" cy="706.926" rx="1.05658" ry="1.12033" fill="white"/>
<ellipse cx="1024.73" cy="701.325" rx="1.0566" ry="1.12033" fill="white"/>
<ellipse cx="1183.22" cy="695.723" rx="1.05663" ry="1.12033" fill="white"/>
<ellipse cx="1341.71" cy="701.325" rx="1.05658" ry="1.12033" fill="white"/>
<ellipse cx="1500.19" cy="706.926" rx="1.05658" ry="1.12033" fill="white"/>
<ellipse cx="878.397" cy="804.395" rx="1.05657" ry="1.12033" fill="white"/>
<ellipse cx="1036.88" cy="798.793" rx="1.05657" ry="1.1203" fill="white"/>
<ellipse cx="1195.37" cy="793.191" rx="1.05663" ry="1.12036" fill="white"/>
<ellipse cx="1353.86" cy="798.793" rx="1.05658" ry="1.1203" fill="white"/>
<ellipse cx="1512.34" cy="804.395" rx="1.05658" ry="1.12033" fill="white"/>
<ellipse cx="758.475" cy="918.668" rx="1.05658" ry="1.1203" fill="white"/>
<ellipse cx="916.962" cy="924.27" rx="1.05657" ry="1.1203" fill="white"/>
<ellipse cx="1075.45" cy="918.668" rx="1.05658" ry="1.1203" fill="white"/>
<ellipse cx="1233.94" cy="913.067" rx="1.05654" ry="1.1203" fill="white"/>
<ellipse cx="1392.42" cy="918.668" rx="1.05658" ry="1.1203" fill="white"/>
<ellipse cx="1550.91" cy="924.27" rx="1.05649" ry="1.1203" fill="white"/>
</svg>
