<?xml version="1.0" encoding="UTF-8"?>
<svg version="1.1" xmlns="http://www.w3.org/2000/svg" width="512" height="512">
<path d="M0 0 C4.22367701 0.00913286 8.44729031 -0.00495962 12.67095423 -0.01591969 C20.92346615 -0.03362248 29.17583181 -0.0299019 37.42834926 -0.01826912 C44.14071977 -0.00920243 50.85304955 -0.00802473 57.56542444 -0.01236439 C58.52403854 -0.01297732 59.48265263 -0.01359025 60.47031564 -0.01422176 C62.41826814 -0.01550077 64.36622063 -0.01679763 66.3141731 -0.01811212 C84.54164526 -0.02949378 102.76903669 -0.01644221 120.9964956 0.00508934 C136.60598892 0.02295812 152.21536321 0.01985333 167.82485437 0.0014143 C185.99110638 -0.02003519 204.1572878 -0.02839537 222.3235507 -0.01613665 C224.26397752 -0.01486257 226.20440434 -0.01360508 228.14483118 -0.01236439 C229.57658639 -0.01143873 229.57658639 -0.01143873 231.03726596 -0.01049438 C237.73457639 -0.0070537 244.4318417 -0.01284206 251.12914515 -0.0222826 C259.30095909 -0.03354941 267.47261953 -0.03036477 275.64441609 -0.00915962 C279.80662378 0.0012882 283.96857637 0.00558096 288.13078165 -0.00775623 C320.24228366 -0.10219022 320.24228366 -0.10219022 333.85512781 4.52289867 C334.70660898 4.80838825 335.55809015 5.09387783 336.43537378 5.38801861 C360.44725588 14.26344225 379.06992061 32.20049644 390.55044031 54.87055492 C399.32852354 74.08088279 399.4443546 92.96842907 399.37802649 113.66777086 C399.36889363 117.89144788 399.38298611 122.11506117 399.39394617 126.33872509 C399.41164897 134.59123701 399.40792839 142.84360268 399.39629561 151.09612012 C399.38722892 157.80849063 399.38605121 164.52082041 399.39039087 171.2331953 C399.39100381 172.1918094 399.39161674 173.15042349 399.39224824 174.1380865 C399.39352726 176.086039 399.39482412 178.03399149 399.39613861 179.98194396 C399.40752027 198.20941612 399.3944687 216.43680755 399.37293714 234.66426647 C399.35506837 250.27375978 399.35817316 265.88313407 399.37661219 281.49262524 C399.39806167 299.65887724 399.40642186 317.82505866 399.39416313 335.99132156 C399.39288906 337.93174838 399.39163157 339.87217521 399.39039087 341.81260204 C399.38977377 342.76710552 399.38915667 343.721609 399.38852087 344.70503682 C399.38508018 351.40234725 399.39086854 358.09961257 399.40030909 364.79691601 C399.41157589 372.96872996 399.40839126 381.14039039 399.38718611 389.31218696 C399.37673828 393.47439465 399.37244552 397.63634723 399.38578272 401.79855251 C399.48013544 433.87995366 399.48013544 433.87995366 394.85512781 447.52289867 C394.43481665 448.79219723 394.43481665 448.79219723 394.00601435 450.08713818 C385.29948907 474.00131829 366.99284711 492.84225328 344.51137781 504.21430492 C325.30503616 513.00252777 306.40852128 513.11212201 285.71025562 513.04579735 C281.48657861 513.03666449 277.26296531 513.05075697 273.0393014 513.06171703 C264.78678947 513.07941983 256.53442381 513.07569925 248.28190637 513.06406647 C241.56953585 513.05499978 234.85720607 513.05382208 228.14483118 513.05816174 C227.18621709 513.05877467 226.22760299 513.0593876 225.23993999 513.06001911 C223.29198749 513.06129812 221.344035 513.06259498 219.39608252 513.06390947 C201.16861036 513.07529113 182.94121893 513.06223956 164.71376002 513.04070801 C149.1042667 513.02283923 133.49489242 513.02594402 117.88540125 513.04438305 C99.71914924 513.06583253 81.55296783 513.07419272 63.38670492 513.06193399 C61.44627811 513.06065992 59.50585128 513.05940243 57.56542444 513.05816174 C56.61092097 513.05754463 55.65641749 513.05692753 54.67298967 513.05629173 C47.97567924 513.05285104 41.27841392 513.0586394 34.58111048 513.06807995 C26.40929653 513.07934676 18.23763609 513.07616212 10.06583953 513.05495697 C5.90363184 513.04450915 1.74167926 513.04021638 -2.42052603 513.05355358 C-34.50192718 513.1479063 -34.50192718 513.1479063 -48.14487219 508.52289867 C-49.41417074 508.10258751 -49.41417074 508.10258751 -50.70911169 507.67378521 C-74.62329181 498.96725993 -93.46422679 480.66061798 -104.83627844 458.17914867 C-113.62450128 438.97280702 -113.73409553 420.07629215 -113.66777086 399.37802649 C-113.658638 395.15434947 -113.67273048 390.93073617 -113.68369055 386.70707226 C-113.70139335 378.45456034 -113.69767276 370.20219467 -113.68603998 361.94967723 C-113.67697329 355.23730672 -113.67579559 348.52497693 -113.68013525 341.81260204 C-113.68074818 340.85398795 -113.68136111 339.89537386 -113.68199262 338.90771085 C-113.68327164 336.95975835 -113.68456849 335.01180586 -113.68588299 333.06385338 C-113.69726465 314.83638123 -113.68421308 296.60898979 -113.66268152 278.38153088 C-113.64481275 262.77203757 -113.64791753 247.16266328 -113.66635656 231.55317211 C-113.68780605 213.38692011 -113.69616623 195.22073869 -113.68390751 177.05447578 C-113.68263343 175.11404897 -113.68137595 173.17362214 -113.68013525 171.2331953 C-113.67951815 170.27869183 -113.67890105 169.32418835 -113.67826524 168.34076053 C-113.67482456 161.6434501 -113.68061292 154.94618478 -113.69005346 148.24888134 C-113.70132027 140.07706739 -113.69813563 131.90540696 -113.67693049 123.73361039 C-113.66648266 119.5714027 -113.6621899 115.40945012 -113.6755271 111.24724483 C-113.76987981 79.16584368 -113.76987981 79.16584368 -109.14487219 65.52289867 C-108.86466475 64.67669964 -108.5844573 63.8305006 -108.29575872 62.95865917 C-99.58923345 39.04447906 -81.28259149 20.20354407 -58.80112219 8.83149242 C-39.59478054 0.04326958 -20.69826566 -0.06632466 0 0 Z " fill="#EBBF9A" fill-opacity="0.2" transform="translate(113.14487218856812,-0.5228986740112305)"/>
<path d="M0 0 C0.72096979 -0.00297112 1.44193958 -0.00594224 2.18475693 -0.0090034 C4.61294424 -0.01771032 7.04108236 -0.01920033 9.46928406 -0.02069092 C11.20528774 -0.0253177 12.9412904 -0.03034217 14.67729187 -0.03573608 C19.40256468 -0.04887595 24.12782327 -0.05530818 28.85311151 -0.05974674 C31.80367936 -0.06267503 34.7542433 -0.06677938 37.70480919 -0.07125092 C46.93176007 -0.08493029 56.15870205 -0.09459468 65.38566238 -0.09845281 C76.04543375 -0.1029342 86.70507694 -0.12048401 97.36480933 -0.1494534 C105.59840799 -0.17105446 113.83197054 -0.18115625 122.06559724 -0.18249393 C126.98589289 -0.18354313 131.90606812 -0.18947526 136.826334 -0.20731354 C141.45479516 -0.22376689 146.08304502 -0.22596306 150.71152496 -0.21717453 C152.41068016 -0.21640267 154.10984659 -0.2207664 155.80897331 -0.23063278 C158.12827281 -0.24331081 160.44681928 -0.23749852 162.76611328 -0.22705078 C164.06416554 -0.22851734 165.36221781 -0.2299839 166.69960499 -0.2314949 C171.13895239 0.25789227 173.63463799 1.89340033 176.9485321 4.76544189 C178.7664451 8.60325822 178.38258182 12.14926314 177.0735321 16.14044189 C174.86712452 18.86638149 172.21099697 20.57170946 169.0735321 22.14044189 C167.03298205 22.21109806 164.99018953 22.22466165 162.9485321 22.20294189 C161.85282898 22.19391846 160.75712585 22.18489502 159.6282196 22.17559814 C158.78517273 22.16399658 157.94212585 22.15239502 157.0735321 22.14044189 C157.09709778 23.90919678 157.09709778 23.90919678 157.12113953 25.71368408 C157.17596258 30.14183562 157.2100703 34.56995797 157.23832703 38.99835205 C157.25329548 40.90497911 157.27367757 42.81157245 157.29985046 44.71807861 C157.44063674 55.24668388 157.54347966 65.05500345 154.0735321 75.14044189 C153.54372742 76.81106689 153.54372742 76.81106689 153.0032196 78.51544189 C146.16749439 95.52880244 132.39305586 107.35628341 118.49150085 118.71075439 C115.79720979 121.42731233 115.1113023 123.73252378 114.7610321 127.51544189 C115.42357652 135.20095706 119.81538634 139.19896825 125.2610321 144.07794189 C125.93795105 144.69983398 126.61487 145.32172607 127.31230164 145.96246338 C130.6139465 148.98268649 133.96641072 151.89181753 137.4485321 154.70294189 C148.54369653 164.32358556 156.19412131 179.96274585 157.24850464 194.56338501 C157.30261878 197.11358336 157.29902931 199.65626988 157.2688446 202.20684814 C157.26601471 203.1263475 157.26318481 204.04584686 157.26026917 204.99320984 C157.24917794 207.89659282 157.22409474 210.79965398 157.1985321 213.70294189 C157.18848799 215.68535928 157.17936466 217.66778155 157.17118835 219.65020752 C157.14927497 224.48040745 157.11482291 229.31037033 157.0735321 234.14044189 C157.89845154 234.12666504 158.72337097 234.11288818 159.57328796 234.09869385 C161.19569397 234.08262085 161.19569397 234.08262085 162.85087585 234.06622314 C163.92329529 234.05244629 164.99571472 234.03866943 166.10063171 234.0244751 C169.82410504 234.16972022 172.07993416 234.91443316 175.0735321 237.14044189 C177.23717728 239.51347209 178.02915988 241.10693877 178.1672821 244.32403564 C177.91455274 248.17184029 177.5429268 250.51458229 175.1985321 253.64044189 C171.22317736 256.44657465 167.77192877 256.27394834 163.03353882 256.29434204 C162.31242017 256.29872429 161.59130152 256.30310655 160.8483308 256.3076216 C158.42559252 256.32100437 156.00289062 256.32718724 153.5801239 256.33331299 C151.84559464 256.34121427 150.11106702 256.34948324 148.37654114 256.35809326 C142.67529367 256.38430693 136.97403887 256.39961868 131.27275085 256.41387939 C129.31060595 256.41923905 127.3484611 256.42461655 125.3863163 256.43001175 C117.22562007 256.4516381 109.06492582 256.47037568 100.90420818 256.48163414 C89.20523823 256.49787987 77.50660005 256.5310756 65.80775517 256.58803499 C57.58346508 256.62671408 49.35926381 256.64626433 41.13488513 256.6515547 C36.22173766 256.65521049 31.30894411 256.66725621 26.395895 256.69965744 C21.77388387 256.72970289 17.15244147 256.73606256 12.53035355 256.72427368 C10.83482685 256.72405266 9.13927403 256.7323813 7.44383812 256.74992752 C5.12669923 256.77260098 2.81162599 256.76433514 0.49447632 256.7484436 C-0.80135533 256.75175375 -2.09718699 256.7550639 -3.43228626 256.75847435 C-8.03638712 255.94412522 -9.64822564 254.41933476 -12.9264679 251.14044189 C-14.64790724 247.39300085 -14.54399712 243.86385252 -13.1608429 240.00372314 C-11.60748565 237.58028921 -10.452369 236.56734546 -7.9264679 235.14044189 C-5.25704573 234.93189329 -2.83092332 234.86103811 -0.1764679 234.95684814 C0.52091492 234.97010132 1.21829773 234.98335449 1.93681335 234.99700928 C3.64937372 235.03146576 5.36155044 235.08414772 7.0735321 235.14044189 C7.05258484 233.91639648 7.03163757 232.69235107 7.01005554 231.43121338 C6.93675733 226.81854303 6.89141121 222.20592226 6.85380554 217.59283447 C6.83389203 215.60967303 6.80675108 213.6265687 6.77177429 211.64361572 C6.39959433 189.97507966 9.89334492 172.62884033 25.0735321 156.14044189 C30.68829057 150.56042143 36.6272337 145.33979277 42.6985321 140.26544189 C46.93491737 136.56530793 48.80489657 133.28952616 49.5110321 127.64044189 C48.59557691 120.31680035 43.03311671 115.93118514 37.8235321 111.20294189 C37.15112488 110.58032471 36.47871765 109.95770752 35.78593445 109.31622314 C32.5098514 106.29629473 29.19315013 103.40642499 25.6985321 100.64044189 C15.0540932 91.46019437 9.1188616 76.70246414 7.0735321 63.14044189 C6.84107108 59.81934714 6.83757636 56.52299808 6.8782196 53.19512939 C6.8810495 52.29924103 6.88387939 51.40335266 6.88679504 50.48031616 C6.89786371 47.65854725 6.922942 44.83711256 6.9485321 42.01544189 C6.95857916 40.08575902 6.96770197 38.15607111 6.97587585 36.22637939 C6.99775917 31.5309409 7.03219459 26.83574778 7.0735321 22.14044189 C6.24861267 22.15349365 5.42369324 22.16654541 4.57377625 22.17999268 C2.95137024 22.19521973 2.95137024 22.19521973 1.29618835 22.21075439 C0.22376892 22.22380615 -0.84865051 22.23685791 -1.9535675 22.25030518 C-5.71161453 22.11142687 -7.93681688 21.44017344 -10.9264679 19.14044189 C-13.58859669 15.14724871 -14.72163008 11.91141499 -13.9264679 7.14044189 C-10.05490116 0.98895253 -7.0374735 0.01614139 0 0 Z " fill="#F3B3A6" transform="translate(173.9264678955078,127.85955810546875)"/>
<path d="M0 0 C2.41308594 1.71264648 2.41308594 1.71264648 4.734375 3.93359375 C6.02504883 5.1553833 6.02504883 5.1553833 7.34179688 6.40185547 C8.21900391 7.25924316 9.09621094 8.11663086 10 9 C10.85142578 9.82000488 11.70285156 10.64000977 12.58007812 11.48486328 C15.15830969 13.98983846 17.70717788 16.52162194 20.25 19.0625 C21.10851562 19.90876953 21.96703125 20.75503906 22.8515625 21.62695312 C30.69640452 29.45369167 35.3903423 35.17102691 39 46 C39 58.87 39 71.74 39 85 C10.62 85 -17.76 85 -47 85 C-47 37.85369214 -47 37.85369214 -28.30123901 19.02426147 C-27.19900802 17.92439969 -26.09524463 16.82607157 -24.98999023 15.72924805 C-23.29755192 14.04764764 -21.61622125 12.35545888 -19.93554688 10.66210938 C-18.8495999 9.57748227 -17.76303361 8.4934748 -16.67578125 7.41015625 C-16.17983963 6.91016617 -15.68389801 6.41017609 -15.17292786 5.89503479 C-6.98409438 -2.1849585 -6.98409438 -2.1849585 0 0 Z " fill="#39322D"  transform="translate(260,278)"/>
</svg>
