<svg xmlns="http://www.w3.org/2000/svg"
     viewBox="0 0 512 512"
     fill="currentColor"
     preserveAspectRatio="xMidYMid meet">
  <g transform="translate(0,512) scale(0.1,-0.1)" stroke="none">
    <path d="M2380 4954 c-537 -51 -997 -242 -1386 -578 -441 -380 -717 -883 -810
    -1478 -25 -158 -25 -518 0 -676 74 -473 259 -879 561 -1230 382 -445 916 -731
    1515 -814 123 -17 478 -16 600 1 293 40 579 131 819 259 1112 591 1578 1920
    1080 3079 -376 877 -1264 1454 -2219 1441 -69 0 -141 -3 -160 -4z m381 -324
    c727 -74 1364 -520 1675 -1175 274 -577 270 -1236 -10 -1810 -431 -881 -1425
    -1341 -2377 -1100 -284 72 -569 214 -794 396 -431 347 -709 863 -765 1418 -53
    532 113 1087 451 1506 438 543 1131 834 1820 765z"/>
    <path d="M2973 3660 c-46 -20 -79 -64 -89 -117 -13 -71 -2 -88 209 -300 l201
    -203 -941 -2 c-938 -3 -942 -3 -970 -24 -98 -73 -98 -195 0 -268 28 -21 30
    -21 1165 -24 625 -1 1152 0 1170 3 45 8 109 73 118 119 16 88 19 84 -349 455
    -399 400 -410 409 -514 361z"/>
    <path d="M1410 2389 c-32 -13 -68 -47 -86 -81 -20 -38 -17 -107 4 -143 32 -52
    675 -697 709 -712 90 -37 200 21 219 116 15 75 4 92 -203 307 l-194 204 940 2
    c931 3 940 3 967 24 53 39 69 71 69 134 0 63 -16 95 -69 134 -27 21 -33 21
    -1179 23 -752 1 -1161 -2 -1177 -8z"/>
  </g>
</svg>
