<?xml version="1.0" encoding="UTF-8"?>
<svg xmlns="http://www.w3.org/2000/svg" id="Layer_1" data-name="Layer 1" viewBox="0 0 24 24">
  <path d="m6,0C2.691,0,0,2.691,0,6s2.691,6,6,6,6-2.691,6-6S9.309,0,6,0Zm0,11c-2.757,0-5-2.243-5-5S3.243,1,6,1s5,2.243,5,5-2.243,5-5,5Zm7,13h11v-11h-11v11Zm1-10h9v9h-9v-9Zm10-8.5v4.5h-1v-4.5c0-.827-.673-1.5-1.5-1.5h-5.191l2.266,2.266-.707.707-2.439-2.439c-.569-.569-.569-1.497,0-2.066L17.867.027l.707.707-2.266,2.266h5.191c1.379,0,2.5,1.121,2.5,2.5Zm-15.428,13.967c.569.569.569,1.497,0,2.066l-2.439,2.439-.707-.707,2.266-2.266H2.5c-1.379,0-2.5-1.121-2.5-2.5v-4.5h1v4.5c0,.827.673,1.5,1.5,1.5h5.191l-2.266-2.266.707-.707,2.439,2.439Z"/>
</svg>
