<?xml version="1.0" standalone="no"?>
<!DOCTYPE svg PUBLIC "-//W3C//DTD SVG 20010904//EN"
 "http://www.w3.org/TR/2001/REC-SVG-20010904/DTD/svg10.dtd">
<svg version="1.0" xmlns="http://www.w3.org/2000/svg"
 width="512.000000pt" height="512.000000pt" viewBox="0 0 512.000000 512.000000"
 preserveAspectRatio="xMidYMid meet">

<g transform="translate(0.000000,512.000000) scale(0.100000,-0.100000)"
fill="currentColor" stroke="none">
<path d="M3302 4216 c-93 -23 -199 -83 -266 -150 -108 -106 -164 -229 -173
-381 -10 -176 44 -311 184 -456 l85 -89 -1323 -2 c-1255 -3 -1327 -4 -1379
-22 -155 -51 -290 -165 -353 -297 -50 -104 -60 -150 -60 -264 1 -162 54 -288
172 -405 69 -67 147 -115 241 -146 52 -18 124 -19 1378 -22 l1324 -2 -89 -93
c-138 -145 -190 -275 -180 -452 9 -152 65 -275 173 -382 76 -75 195 -136 298
-154 142 -24 304 8 417 84 30 20 324 307 655 639 643 646 638 640 680 783 23
80 23 230 0 310 -42 143 -37 137 -680 783 -331 332 -625 619 -655 639 -86 57
-179 85 -296 89 -62 2 -120 -2 -153 -10z m206 -391 c46 -20 1154 -1122 1183
-1177 25 -49 25 -127 0 -176 -11 -20 -274 -291 -588 -604 -620 -619 -597 -599
-698 -584 -84 13 -155 100 -155 190 0 62 32 102 280 351 137 137 253 263 259
278 21 55 14 129 -18 179 -58 91 108 82 -1661 88 l-1565 5 -42 22 c-124 67
-124 259 0 326 l42 22 1565 5 c1476 5 1567 6 1598 23 67 37 104 133 87 224 -6
33 -42 73 -261 293 -162 164 -259 269 -269 293 -29 70 -14 139 44 200 53 56
127 71 199 42z"/>
</g>
</svg>
