<?xml version="1.0" encoding="UTF-8"?>
<svg xmlns="http://www.w3.org/2000/svg" id="Layer_1" data-name="Layer 1" viewBox="0 0 24 24" width="512" height="512"><path d="M9,12c-3.309,0-6-2.691-6-6S5.691,0,9,0s6,2.691,6,6-2.691,6-6,6Zm13.696,7.134l-.974-.562c.166-.497,.278-1.019,.278-1.572s-.111-1.075-.278-1.572l.974-.562c.478-.276,.642-.888,.366-1.366-.277-.479-.887-.644-1.366-.366l-.973,.562c-.705-.794-1.644-1.375-2.723-1.594v-1.101c0-.552-.448-1-1-1s-1,.448-1,1v1.101c-1.079,.22-2.018,.801-2.723,1.594l-.973-.562c-.48-.277-1.09-.113-1.366,.366-.276,.479-.112,1.09,.366,1.366l.974,.562c-.166,.497-.278,1.019-.278,1.572s.111,1.075,.278,1.572l-.974,.562c-.478,.276-.642,.888-.366,1.366,.186,.321,.521,.5,.867,.5,.169,0,.341-.043,.499-.134l.973-.562c.705,.794,1.644,1.375,2.723,1.594v1.101c0,.552,.448,1,1,1s1-.448,1-1v-1.101c1.079-.22,2.018-.801,2.723-1.594l.973,.562c.158,.091,.33,.134,.499,.134,.346,0,.682-.179,.867-.5,.276-.479,.112-1.09-.366-1.366Zm-5.696-.634c-.827,0-1.5-.673-1.5-1.5s.673-1.5,1.5-1.5,1.5,.673,1.5,1.5-.673,1.5-1.5,1.5Zm-9-1.5c0-1.044,.187-2.043,.514-2.975C3.778,14.279,0,18.202,0,23c0,.552,.448,1,1,1H11.349c-2.041-1.65-3.349-4.171-3.349-7Z"/></svg>
