<?xml version="1.0" encoding="UTF-8"?>
<svg width="36px" height="36px" viewBox="0 0 36 36" version="1.1" xmlns="http://www.w3.org/2000/svg" xmlns:xlink="http://www.w3.org/1999/xlink">
    <title>standby</title>
    <g id="Page-1" stroke="none" stroke-width="1" fill="none" fill-rule="evenodd">
        <g id="standby" fill="#FBC538" fill-rule="nonzero">
            <rect id="Rectangle" fill-opacity="0.2" x="0" y="0" width="36" height="36" rx="6"></rect>
            <path d="M22.4,27 L13.6,27 C11.6152,27 10,25.48575 10,23.625 L10,12.375 C10,10.51425 11.6152,9 13.6,9 L22.4,9 C24.3848,9 26,10.51425 26,12.375 L26,23.625 C26,25.48575 24.3848,27 22.4,27 Z M13.6,9.75 C12.056,9.75 10.8,10.9275 10.8,12.375 L10.8,23.625 C10.8,25.0725 12.056,26.25 13.6,26.25 L22.4,26.25 C23.944,26.25 25.2,25.0725 25.2,23.625 L25.2,12.375 C25.2,10.9275 23.944,9.75 22.4,9.75 L13.6,9.75 Z M22.8,13.125 C22.8,12.918 22.6208,12.75 22.4,12.75 L17.6,12.75 C17.3792,12.75 17.2,12.918 17.2,13.125 C17.2,13.332 17.3792,13.5 17.6,13.5 L22.4,13.5 C22.6208,13.5 22.8,13.332 22.8,13.125 Z M22.8,17.625 C22.8,17.418 22.6208,17.25 22.4,17.25 L17.6,17.25 C17.3792,17.25 17.2,17.418 17.2,17.625 C17.2,17.832 17.3792,18 17.6,18 L22.4,18 C22.6208,18 22.8,17.832 22.8,17.625 Z M22.8,22.125 C22.8,21.918 22.6208,21.75 22.4,21.75 L17.6,21.75 C17.3792,21.75 17.2,21.918 17.2,22.125 C17.2,22.332 17.3792,22.5 17.6,22.5 L22.4,22.5 C22.6208,22.5 22.8,22.332 22.8,22.125 Z M15.2,14.25 L13.6,14.25 C13.3792,14.25 13.2,14.082 13.2,13.875 L13.2,12.375 C13.2,12.168 13.3792,12 13.6,12 L15.2,12 C15.4208,12 15.6,12.168 15.6,12.375 L15.6,13.875 C15.6,14.082 15.4208,14.25 15.2,14.25 Z M14,13.5 L14.8,13.5 L14.8,12.75 L14,12.75 L14,13.5 Z M15.2,18.75 L13.6,18.75 C13.3792,18.75 13.2,18.582 13.2,18.375 L13.2,16.875 C13.2,16.668 13.3792,16.5 13.6,16.5 L15.2,16.5 C15.4208,16.5 15.6,16.668 15.6,16.875 L15.6,18.375 C15.6,18.582 15.4208,18.75 15.2,18.75 Z M14,18 L14.8,18 L14.8,17.25 L14,17.25 L14,18 Z M15.2,23.25 L13.6,23.25 C13.3792,23.25 13.2,23.082 13.2,22.875 L13.2,21.375 C13.2,21.168 13.3792,21 13.6,21 L15.2,21 C15.4208,21 15.6,21.168 15.6,21.375 L15.6,22.875 C15.6,23.082 15.4208,23.25 15.2,23.25 Z M14,22.5 L14.8,22.5 L14.8,21.75 L14,21.75 L14,22.5 Z" id="Shape"></path>
        </g>
    </g>
</svg>