<?xml version="1.0" encoding="UTF-8"?>
<svg id="Layer_2" data-name="Layer 2" xmlns="http://www.w3.org/2000/svg" xmlns:xlink="http://www.w3.org/1999/xlink" viewBox="0 0 1220 1220">
  <defs>
    <linearGradient id="linear-gradient" x1="312.082" y1="1000.825" x2="313.082" y2="1000.825" gradientTransform="translate(-338620.7 -1085284.75) scale(1085)" gradientUnits="userSpaceOnUse">
      <stop offset="0" stop-color="#28f4af"/>
      <stop offset=".068" stop-color="#28f4af"/>
      <stop offset=".909" stop-color="#00caff"/>
      <stop offset="1" stop-color="#00caff"/>
    </linearGradient>
    <clipPath id="clippath">
      <rect x="412.22" y="249.032" width="395.56" height="721.936" style="fill: none; stroke-width: 0px;"/>
    </clipPath>
  </defs>
  <g id="svg2">
    <g id="g10">
      <g id="g12">
        <g id="g14">
          <g id="g20">
            <path id="path22" d="m1220,610c0,336.893-273.107,610-610,610S0,946.893,0,610,273.107,0,610,0s610,273.107,610,610" style="stroke-width: 0px;"/>
          </g>
          <g id="g24">
            <path id="path36" d="m1140.5,610c0,292.987-237.513,530.5-530.5,530.5S79.5,902.987,79.5,610,317.013,79.5,610,79.5s530.5,237.513,530.5,530.5Z" style="fill: none; stroke: url(#linear-gradient); stroke-miterlimit: 13.333; stroke-width: 24px;"/>
          </g>
          <g id="g38">
            <g id="g56">
              <g style="clip-path: url(#clippath);">
                <g id="g54" style="opacity: .53;">
                  <g id="g48">
                    <path id="path46" d="m442.297,486.791c-10.139-6.276-10.483-20.901-.651-27.648l301.221-206.68c10.076-5.42,22.431-4.347,31.317,2.705,8.589,6.817,12.497,18.077,10.008,28.844l-158.524,303.967c-2.625,5.035-8.977,6.779-13.805,3.789l-169.567-104.977Z" style="fill: #215140; stroke-width: 0px;"/>
                  </g>
                  <g id="g52">
                    <path id="path50" d="m628.285,599.912c-4.541-2.692-10.403-1.261-13.193,3.22l-199.231,319.947c-7.055,14.204-3.557,31.147,7.904,40.637,9.575,7.927,23.299,9.487,35.056,4.029.559-.26,1.093-.579,1.6-.928l339.019-233.637c11.587-7.985,10.996-25.291-1.109-32.467l-170.045-100.801Z" style="fill: #215140; stroke-width: 0px;"/>
                  </g>
                </g>
              </g>
            </g>
          </g>
          <g id="g58">
            <path id="path60" d="m346.587,723.052v-175.393h-69.447v-50.712h202.525v50.712h-69.124v175.393h-63.955Z" style="fill: #fff; stroke-width: 0px;"/>
          </g>
          <g id="g62">
            <path id="path64" d="m613.068,727.575c-17.876,0-34.4-2.856-49.581-8.56-15.181-5.703-28.319-13.833-39.407-24.387-11.093-10.548-19.76-22.984-26.003-37.308-6.248-14.317-9.367-30.089-9.367-47.32s3.119-32.997,9.367-47.32c6.243-14.319,14.909-26.755,26.003-37.308,11.088-10.548,24.225-18.679,39.407-24.387,15.181-5.704,31.705-8.56,49.581-8.56,20.884,0,39.568,3.664,56.041,10.983,16.473,7.323,30.201,17.876,41.184,31.655l-40.699,36.823c-7.324-8.611-15.343-15.181-24.064-19.704-8.721-4.521-18.468-6.783-29.232-6.783-9.261,0-17.765,1.509-25.519,4.521-7.752,3.019-14.373,7.379-19.864,13.083-5.492,5.708-9.801,12.547-12.921,20.511-3.124,7.969-4.683,16.796-4.683,26.487s1.559,18.523,4.683,26.487c3.12,7.969,7.429,14.808,12.921,20.511,5.491,5.708,12.112,10.069,19.864,13.083,7.753,3.017,16.257,4.521,25.519,4.521,10.764,0,20.511-2.261,29.232-6.783,8.721-4.523,16.74-11.088,24.064-19.704l40.699,36.823c-10.983,13.567-24.711,24.064-41.184,31.493-16.473,7.429-35.157,11.144-56.041,11.144" style="fill: #fff; stroke-width: 0px;"/>
          </g>
          <g id="g66">
            <path id="path68" d="m792.339,723.052v-95.611l14.859,38.439-101.101-168.933h67.508l73,122.42h-39.084l73.323-122.42h62.017l-100.779,168.933,14.213-38.439v95.611h-63.956Z" style="fill: #fff; stroke-width: 0px;"/>
          </g>
        </g>
      </g>
    </g>
  </g>
</svg>