<?xml version="1.0" encoding="UTF-8"?>
<svg xmlns="http://www.w3.org/2000/svg" id="Layer_1" data-name="Layer 1" viewBox="0 0 24 24" style="fill: var(--sec-font-color)">
  <path d="M6,15c-1.654,0-3,1.346-3,3v3c0,1.654,1.346,3,3,3s3-1.346,3-3v-3c0-1.654-1.346-3-3-3Zm1,6c0,.551-.449,1-1,1s-1-.449-1-1v-3c0-.551,.449-1,1-1s1,.449,1,1v3Zm11-6c-1.654,0-3,1.346-3,3v3c0,1.654,1.346,3,3,3s3-1.346,3-3v-3c0-1.654-1.346-3-3-3Zm1,6c0,.551-.449,1-1,1s-1-.449-1-1v-3c0-.551,.449-1,1-1s1,.449,1,1v3Zm-6-6v9h-2v-6l-1.243-1.17,1.723-1.83h1.52ZM1.032,17.682c-.644-.899-1.032-1.993-1.032-3.182,0-1.786,.85-3.425,2.265-4.45-.176-.666-.265-1.352-.265-2.05,0-3.545,2.228-6.582,5.613-7.634,4.148-1.29,8.348,.962,9.827,4.693,3.73,.459,6.559,3.604,6.559,7.441,0,1.508-.461,2.903-1.231,4.079-.617-2.062-2.509-3.579-4.769-3.579H6c-2.648,0-4.8,2.076-4.968,4.682Z"/>
</svg>
