<?xml version="1.0" encoding="UTF-8"?>
<svg id="Layer_2" data-name="Layer 2" xmlns="http://www.w3.org/2000/svg" viewBox="0 0 267.65 162.95">
  <g id="Layer_1-2" data-name="Layer 1">
    <path d="m133.5,17.76c3.69-6.02,9.81-12.32,16.4-14.99,11.34-5.16,26.54-2.94,35.79,5.22,8.95,8.11,13.5,19.23,11.35,31.66,2.2-.4,4.41-1.81,6.74-2.61,13.9-3.92,28.6.33,37.51,12.25,6.69,8.51,8.44,21.72,4.42,32-1.99,5.17-5.4,9.82-9.82,13.78l.45.45c12.93.63,25.64,10.67,29.56,22.98,4.25,12.42.51,25.69-8.57,34.77-7.42,7.33-16.96,9.87-27.57,9.66H37.22c-15.81.34-28.03-6.66-34.6-20.72C-2.55,130.15,0,114.71,9.64,105.51c6.08-6.35,13.69-8.96,21.9-10.27-9.3-8.62-13.77-20.42-11.16-33.08,1.87-10.25,10.61-20.64,20.65-24.22,8.85-3.52,20.83-2.9,28.93,1.88l.29-.35c-2.44-13.95,3.74-26.54,15.32-34.26,10.32-6.98,26.82-6.8,36.93.62,4.54,2.78,8.28,7.56,11.01,11.93" style="fill: #fff; stroke-width: 0px;"/>
    <path d="m188.01,22.97c4.14,8.35,1.71,19.28-2.61,26.78l-33.41,75.16-.29.35-12.08-76.25c-.97-7.32,6.85-10.45,11.46-13.96-.23-1.08-1.42-1.02-2.16-1.52l-11.29-.12-.34-.34c.06-9.47,5.16-18.21,13.79-22.8,9.02-5.21,21.72-3.8,29.55,2.89,3.18,2.83,5.85,6.13,7.38,9.82" style="fill: #645faa; stroke-width: 0px;"/>
    <path d="m126.46,20.36c2.73,5.05,4.31,10.79,3.35,17.14l-13.62,87.31c.07.11-.05.22-.16.28l-3.53-7.02-34.14-76.25c-3.18-9.82-.23-20.08,6.92-27.12,7.21-7.31,19.06-9.3,28.48-5.33,4.99,2.15,9.75,6.12,12.71,11" style="fill: #c9234a; stroke-width: 0px;"/>
    <path d="m237.43,57.11c4.59,7.83,3.56,19.69-1.55,26.96-3.16,5.11-8.39,7.65-12.81,11l-70.75,48.56h-.16l.79-2.32,37.5-84.65c5.62-9.98,16.34-15.03,27.68-13.51,7.77,1.42,15.54,6.47,19.29,13.95" style="fill: #0089cf; stroke-width: 0px;"/>
    <path d="m76.71,56.67l39.03,86.96h-.63l-78.68-54.23c-8.01-6.75-11.29-16.85-8.57-27.07,2.04-7.65,8.39-14.81,15.95-17.64,12.38-4.53,26.32.29,32.91,11.97" style="fill: #f36f21; stroke-width: 0px;"/>
    <path d="m257.96,118.5c3.92,8.28,2.38,19.63-3.23,26.67-5.56,6.75-13.01,10.44-21.74,10.2l-83.89.05,70.28-48.9c6.87-4.42,17.3-5.22,24.8-1.64,5.79,2.27,11.24,7.94,13.78,13.61" style="fill: #0db14b; stroke-width: 0px;"/>
    <path d="m9.53,118.5c-3.91,8.28-2.38,19.63,3.24,26.67,5.56,6.75,12.98,10.44,21.73,10.2l83.89.05-70.28-48.9c-6.86-4.42-17.3-5.22-24.78-1.64-5.79,2.27-11.24,7.94-13.8,13.61" style="fill: #fdb913; stroke-width: 0px;"/>
  </g>
</svg>