<svg width="83" height="24" viewBox="0 0 83 24" fill="none" xmlns="http://www.w3.org/2000/svg">
<g clip-path="url(#clip0_2056_7809)">
<path d="M76.3321 23.9969C75.924 23.998 75.5168 23.9568 75.1173 23.8739C74.2569 23.6967 73.4433 23.3418 72.7288 22.8321C72.0144 22.3225 71.415 21.6693 70.9692 20.9148L70.9464 20.8727C70.7252 20.455 70.6716 19.969 70.7965 19.5133C70.9213 19.0577 71.2153 18.6663 71.6188 18.4186C71.8983 18.251 72.2184 18.1626 72.5446 18.1629C72.8695 18.1634 73.1885 18.25 73.4687 18.4138C73.749 18.5777 73.9805 18.8129 74.1395 19.0953L74.2012 19.1989L74.3961 19.4611L74.656 19.7234C74.9939 20.0147 75.4028 20.2124 75.8416 20.2964C76.1965 20.3648 76.5618 20.3587 76.9142 20.2784C77.2666 20.1982 77.5983 20.0455 77.8881 19.8302C78.1875 19.6179 78.4358 19.3419 78.615 19.0222C78.7942 18.7024 78.8999 18.347 78.9243 17.9816C78.9543 17.6198 78.9064 17.2559 78.7837 16.9141C78.661 16.5724 78.4664 16.2608 78.2129 16.0002C78.2129 16.0002 72.223 9.84883 72.0931 9.67724L71.7975 9.24017C71.0967 8.14997 70.7801 6.85822 70.8977 5.56878C70.9618 4.6753 71.2272 3.80772 71.6741 3.03053L71.9339 2.57728C72.4067 1.90335 73.0249 1.34357 73.7432 0.939074L74.0388 0.728633C75.4206 -0.0284042 77.0452 -0.215101 78.5636 0.208646C80.082 0.632392 81.3731 1.63278 82.1596 2.99492C82.2822 3.20049 82.362 3.42852 82.3943 3.66545C82.4267 3.90238 82.4109 4.14338 82.348 4.37412C82.2857 4.60903 82.1768 4.82914 82.0279 5.02152C81.8789 5.21389 81.6929 5.37464 81.4807 5.49431C81.2104 5.65413 80.9017 5.73803 80.5874 5.73713C80.2643 5.73625 79.9472 5.64973 79.6686 5.48646C79.3901 5.32318 79.1601 5.08901 79.0022 4.80795C78.8309 4.5173 78.5995 4.26626 78.3234 4.07146C78.0473 3.87667 77.7328 3.74257 77.4008 3.67805C77.0633 3.61253 76.7158 3.61755 76.3803 3.69278C76.0448 3.76801 75.7287 3.91182 75.4518 4.11512C75.1858 4.32174 74.9671 4.58255 74.8103 4.88012C74.6534 5.17769 74.5621 5.50518 74.5423 5.84073C74.5142 6.17756 74.5575 6.51653 74.6694 6.83558C74.7813 7.15464 74.9594 7.44664 75.192 7.69261L80.8213 13.4781C81.6704 14.3562 82.2413 15.464 82.4627 16.6634C82.6842 17.8627 82.5465 19.1006 82.0666 20.2224C81.5868 21.3442 80.7862 22.3004 79.7647 22.9716C78.7432 23.6429 77.5459 23.9995 76.3224 23.9969H76.3321Z" fill="#003D8F"/>
<path d="M58.5242 23.9935C56.9198 23.9918 55.3815 23.3558 54.247 22.225C53.1125 21.0943 52.4744 19.5611 52.4727 17.962V6.03157C52.4727 5.23949 52.6292 4.45517 52.9333 3.72339C53.2374 2.9916 53.6832 2.32669 54.2451 1.76661C54.8071 1.20652 55.4742 0.76224 56.2084 0.459126C56.9426 0.156011 57.7295 0 58.5242 0C59.319 0 60.1059 0.156011 60.8401 0.459126C61.5743 0.76224 62.2414 1.20652 62.8034 1.76661C63.3653 2.32669 63.8111 2.9916 64.1152 3.72339C64.4193 4.45517 64.5758 5.23949 64.5758 6.03157V17.962C64.5741 19.5611 63.936 21.0943 62.8015 22.225C61.6669 23.3558 60.1287 23.9918 58.5242 23.9935ZM58.5242 3.64225C57.8887 3.64311 57.2795 3.89511 56.8301 4.34301C56.3807 4.79091 56.1279 5.39814 56.127 6.03157V17.962C56.1235 18.2767 56.1831 18.5889 56.3024 18.8804C56.4216 19.1719 56.5981 19.4366 56.8214 19.6592C57.0447 19.8818 57.3103 20.0576 57.6028 20.1765C57.8952 20.2953 58.2085 20.3547 58.5242 20.3513C59.1598 20.3504 59.769 20.0984 60.2184 19.6505C60.6678 19.2026 60.9206 18.5954 60.9215 17.962V6.03157C60.9131 5.40049 60.6578 4.79761 60.2101 4.35133C59.7623 3.90505 59.1574 3.65063 58.5242 3.64225Z" fill="#003D8F"/>
<path d="M35.0202 12.3055V22.1897C35.0202 22.6723 34.8279 23.1351 34.4855 23.4763C34.1432 23.8175 33.6789 24.0092 33.1947 24.0092C32.7105 24.0092 32.2462 23.8175 31.9038 23.4763C31.5615 23.1351 31.3691 22.6723 31.3691 22.1897V4.749L35.0202 12.3055ZM44.8788 19.2533V1.81902C44.859 1.34931 44.6578 0.905419 44.3173 0.58007C43.9768 0.25472 43.5234 0.0730739 43.0517 0.0730739C42.58 0.0730739 42.1265 0.25472 41.7861 0.58007C41.4456 0.905419 41.2444 1.34931 41.2245 1.81902V11.6936L44.8788 19.2533ZM34.8481 1.03229V0.996676C34.6835 0.703325 34.4437 0.458814 34.1532 0.288158C33.8627 0.117502 33.5319 0.0268269 33.1947 0.0254095C33.0713 0.0248249 32.9482 0.0378543 32.8276 0.0642601C32.417 0.143961 32.0476 0.365009 31.7839 0.688743C31.5203 1.01248 31.3792 1.41829 31.3854 1.8352V2.25285L41.4097 22.9959C41.5668 23.2911 41.8002 23.5392 42.0858 23.7145C42.3713 23.8898 42.6986 23.9859 43.0338 23.993C43.1751 23.9934 43.3159 23.976 43.4528 23.9412C43.8563 23.8571 44.2184 23.6371 44.4781 23.318C44.7378 22.999 44.8794 22.6006 44.8788 22.1897V21.7785C44.8788 21.7785 35.1177 1.58591 34.8481 1.03229Z" fill="#003D8F"/>
<path d="M17.6707 23.9935C16.066 23.9927 14.5273 23.3569 13.3926 22.226C12.2579 21.095 11.62 19.5614 11.6191 17.962V6.03157C11.6191 4.4319 12.2567 2.89774 13.3916 1.7666C14.5265 0.635467 16.0658 0 17.6707 0C19.2757 0 20.815 0.635467 21.9499 1.7666C23.0848 2.89774 23.7223 4.4319 23.7223 6.03157V17.962C23.7215 19.5614 23.0836 21.095 21.9489 22.226C20.8142 23.3569 19.2755 23.9927 17.6707 23.9935ZM17.6707 3.64225C17.3558 3.64182 17.0439 3.70333 16.7528 3.82326C16.4618 3.94318 16.1974 4.11916 15.9747 4.34111C15.752 4.56307 15.5754 4.82663 15.4551 5.11671C15.3348 5.40679 15.2731 5.71768 15.2735 6.03157V17.962C15.2735 18.5956 15.5261 19.2034 15.9756 19.6515C16.4252 20.0995 17.0349 20.3513 17.6707 20.3513C18.3065 20.3513 18.9163 20.0995 19.3659 19.6515C19.8154 19.2034 20.068 18.5956 20.068 17.962V6.03157C20.0596 5.40049 19.8043 4.79761 19.3566 4.35133C18.9088 3.90505 18.3039 3.65063 17.6707 3.64225Z" fill="#003D8F"/>
<path d="M1.98498 23.9841C1.72205 23.9854 1.4615 23.9344 1.21861 23.834C0.975722 23.7337 0.755386 23.586 0.570524 23.3996C0.385663 23.2132 0.239999 22.992 0.142075 22.7488C0.0441513 22.5056 -0.00406039 22.2453 0.000267587 21.9833V1.95251C0.00966261 1.43182 0.224689 0.935823 0.598688 0.572154C0.972687 0.208485 1.47548 0.00648018 1.99798 0.0099737C2.43551 0.00359255 2.86247 0.144148 3.21011 0.40901C3.55776 0.673872 3.80586 1.04763 3.91448 1.47011C3.92787 1.51589 3.93871 1.56236 3.94696 1.60933V1.69674C3.96556 1.80364 3.97425 1.91201 3.97295 2.0205C3.97295 2.0205 3.97295 21.7696 3.97295 21.9962C3.97467 22.2572 3.92447 22.5159 3.82525 22.7575C3.72604 22.999 3.57977 23.2185 3.39492 23.4034C3.21006 23.5882 2.99028 23.7347 2.74827 23.8344C2.50626 23.9341 2.24684 23.9849 1.98498 23.9841Z" fill="#003D8F"/>
</g>
<defs>
<clipPath id="clip0_2056_7809">
<rect width="82.5882" height="24" fill="white"/>
</clipPath>
</defs>
</svg>