<?xml version="1.0" encoding="UTF-8"?>
<svg width="41px" height="36px" viewBox="0 0 41 36" version="1.1" xmlns="http://www.w3.org/2000/svg" xmlns:xlink="http://www.w3.org/1999/xlink">
    <title>Group</title>
    <g id="Page-1" stroke="none" stroke-width="1" fill="none" fill-rule="evenodd">
        <g id="vultr" fill-rule="nonzero">
            <g id="Group">
                <path d="M14.473,0.97 C14.105,0.387 13.455,0 12.715,0 L2.077,0 C0.929,0 0,0.93 0,2.077 C0,2.484 0.117,2.864 0.32,3.185 L5.557,11.493 L19.71,9.278 L14.473,0.97 Z" id="Path" fill="#C9F4FF"></path>
                <path d="M16.655,4.431 C16.287,3.848 15.636,3.461 14.897,3.461 L4.259,3.461 C3.112,3.461 2.182,4.391 2.182,5.538 C2.182,5.946 2.299,6.325 2.502,6.646 L5.557,11.492 L19.709,9.277 L16.655,4.431 Z" id="Path" fill="#51B9FF"></path>
                <path d="M5.557,11.493 C5.354,11.172 5.237,10.793 5.237,10.385 C5.237,9.238 6.167,8.308 7.314,8.308 L17.953,8.308 C18.693,8.308 19.342,8.695 19.709,9.278 L29.23,24.379 C29.433,24.699 29.549,25.079 29.549,25.486 C29.549,25.894 29.433,26.273 29.23,26.593 L23.91,35.031 C23.543,35.613 22.893,36 22.154,36 C21.413,36 20.764,35.613 20.396,35.031 L5.557,11.493 Z" id="Path" fill="#007BFC"></path>
                <path d="M31.385,16.015 C31.752,16.597 32.403,16.984 33.143,16.984 C33.883,16.984 34.533,16.597 34.899,16.015 L40.219,7.577 C40.422,7.256 40.539,6.876 40.539,6.469 C40.539,6.062 40.422,5.682 40.219,5.362 L37.449,0.97 C37.082,0.387 36.432,0 35.691,0 L25.055,0 C23.908,0 22.977,0.93 22.977,2.077 C22.977,2.484 23.094,2.864 23.297,3.185 L31.385,16.015 Z" id="Path" fill="#007BFC"></path>
            </g>
        </g>
    </g>
</svg>